<svg width="46" height="64" viewBox="0 0 46 64" fill="none" xmlns="http://www.w3.org/2000/svg">
<path d="M46 64H0L5.97344 49H40.0266L46 64Z" fill="#00DA78"/>
<path d="M46 21.5696C46 28.0905 42.4593 33.1589 38.5138 38.2032L22.9997 57.9549L22.9626 58L7.48617 38.2032C3.54071 33.1589 0 28.0891 0 21.5696C0 9.67574 10.3173 0 22.9971 0H23.0939C35.7324 0.0475695 46 9.70565 46 21.5696Z" fill="#FF623F"/>
<path d="M37 21.0005C37 28.1686 30.7188 34 22.9997 34C15.2807 34 9 28.1686 9 21.0005C9 13.8314 15.2807 8 22.9997 8C30.7188 8 37 13.8314 37 21.0005Z" fill="white"/>
</svg>
