<svg width="275" height="165" viewBox="0 0 275 165" fill="none" xmlns="http://www.w3.org/2000/svg">
<path d="M113.442 0H27.4552V140.258H113.442V0Z" fill="#E6E6E6"/>
<path d="M110.412 4.94336H30.4852V135.316H110.412V4.94336Z" fill="white"/>
<path d="M99.9061 27.809H41.247C40.7719 27.8082 40.3164 27.5801 39.9806 27.1747C39.6449 26.7692 39.4563 26.2197 39.4563 25.6467C39.4563 25.0737 39.6449 24.5241 39.9806 24.1187C40.3164 23.7133 40.7719 23.4851 41.247 23.4844H99.9061C100.142 23.484 100.375 23.5397 100.593 23.6482C100.811 23.7567 101.009 23.9159 101.176 24.1167C101.342 24.3175 101.475 24.556 101.565 24.8185C101.655 25.0811 101.702 25.3625 101.702 25.6467C101.702 25.9309 101.655 26.2123 101.565 26.4748C101.475 26.7373 101.342 26.9758 101.176 27.1767C101.009 27.3775 100.811 27.5367 100.593 27.6452C100.375 27.7537 100.142 27.8094 99.9061 27.809V27.809Z" fill="#E6E6E6"/>
<path d="M99.9061 50.0492H41.247C40.7719 50.0485 40.3164 49.8203 39.9806 49.4149C39.6449 49.0095 39.4563 48.4599 39.4563 47.8869C39.4563 47.3139 39.6449 46.7644 39.9806 46.3589C40.3164 45.9535 40.7719 45.7254 41.247 45.7246H99.9061C100.142 45.7242 100.375 45.7799 100.593 45.8884C100.811 45.9969 101.009 46.1561 101.176 46.3569C101.342 46.5578 101.475 46.7962 101.565 47.0588C101.655 47.3213 101.702 47.6027 101.702 47.8869C101.702 48.1711 101.655 48.4525 101.565 48.7151C101.475 48.9776 101.342 49.2161 101.176 49.4169C101.009 49.6177 100.811 49.7769 100.593 49.8854C100.375 49.9939 100.142 50.0496 99.9061 50.0492V50.0492Z" fill="#E6E6E6"/>
<path d="M99.9061 72.2914H41.247C40.7719 72.2907 40.3164 72.0625 39.9806 71.6571C39.6449 71.2517 39.4563 70.7021 39.4563 70.1291C39.4563 69.5561 39.6449 69.0066 39.9806 68.6011C40.3164 68.1957 40.7719 67.9676 41.247 67.9668H99.9061C100.142 67.9664 100.375 68.0221 100.593 68.1306C100.811 68.2391 101.009 68.3983 101.176 68.5991C101.342 68.7999 101.475 69.0384 101.565 69.301C101.655 69.5635 101.702 69.8449 101.702 70.1291C101.702 70.4133 101.655 70.6947 101.565 70.9572C101.475 71.2198 101.342 71.4583 101.176 71.6591C101.009 71.8599 100.811 72.0191 100.593 72.1276C100.375 72.2361 100.142 72.2918 99.9061 72.2914V72.2914Z" fill="#E6E6E6"/>
<path d="M99.9061 94.5316H41.247C40.7719 94.5309 40.3164 94.3027 39.9806 93.8973C39.6449 93.4919 39.4563 92.9423 39.4563 92.3693C39.4563 91.7963 39.6449 91.2468 39.9806 90.8414C40.3164 90.4359 40.7719 90.2078 41.247 90.207H99.9061C100.142 90.2067 100.375 90.2623 100.593 90.3708C100.811 90.4793 101.009 90.6385 101.176 90.8393C101.342 91.0402 101.475 91.2787 101.565 91.5412C101.655 91.8037 101.702 92.0851 101.702 92.3693C101.702 92.6535 101.655 92.9349 101.565 93.1975C101.475 93.46 101.342 93.6985 101.176 93.8993C101.009 94.1001 100.811 94.2594 100.593 94.3679C100.375 94.4764 100.142 94.532 99.9061 94.5316V94.5316Z" fill="#E6E6E6"/>
<path d="M99.9061 116.774H41.247C40.7719 116.773 40.3164 116.545 39.9806 116.14C39.6449 115.734 39.4563 115.185 39.4563 114.612C39.4563 114.039 39.6449 113.489 39.9806 113.084C40.3164 112.678 40.7719 112.45 41.247 112.449H99.9061C100.142 112.449 100.375 112.505 100.593 112.613C100.811 112.722 101.009 112.881 101.176 113.082C101.342 113.282 101.475 113.521 101.565 113.783C101.655 114.046 101.702 114.327 101.702 114.612C101.702 114.896 101.655 115.177 101.565 115.44C101.475 115.702 101.342 115.941 101.176 116.142C101.009 116.342 100.811 116.502 100.593 116.61C100.375 116.719 100.142 116.774 99.9061 116.774V116.774Z" fill="#E6E6E6"/>
<path d="M89.6601 27.809H40.991C40.7553 27.8094 40.5219 27.7537 40.3041 27.6452C40.0863 27.5367 39.8883 27.3775 39.7216 27.1767C39.5548 26.9758 39.4225 26.7373 39.3323 26.4748C39.242 26.2123 39.1956 25.9309 39.1956 25.6467C39.1956 25.3625 39.242 25.0811 39.3323 24.8185C39.4225 24.556 39.5548 24.3175 39.7216 24.1167C39.8883 23.9159 40.0863 23.7567 40.3041 23.6482C40.5219 23.5397 40.7553 23.484 40.991 23.4844H89.6601C90.1353 23.4851 90.5907 23.7133 90.9265 24.1187C91.2622 24.5241 91.4508 25.0737 91.4508 25.6467C91.4508 26.2197 91.2622 26.7692 90.9265 27.1747C90.5907 27.5801 90.1353 27.8082 89.6601 27.809V27.809Z" fill="#6C63FF"/>
<path d="M74.547 50.0492H40.9909C40.5154 50.0492 40.0593 49.8214 39.7231 49.4159C39.3868 49.0104 39.1979 48.4604 39.1979 47.8869C39.1979 47.3134 39.3868 46.7634 39.7231 46.3579C40.0593 45.9524 40.5154 45.7246 40.9909 45.7246H74.547C74.7827 45.7242 75.0161 45.7799 75.2339 45.8884C75.4517 45.9969 75.6497 46.1561 75.8164 46.3569C75.9832 46.5578 76.1155 46.7962 76.2057 47.0588C76.296 47.3213 76.3424 47.6027 76.3424 47.8869C76.3424 48.1711 76.296 48.4525 76.2057 48.7151C76.1155 48.9776 75.9832 49.2161 75.8164 49.4169C75.6497 49.6177 75.4517 49.7769 75.2339 49.8854C75.0161 49.9939 74.7827 50.0496 74.547 50.0492V50.0492Z" fill="#6C63FF"/>
<path d="M56.104 72.2914H40.991C40.7553 72.2918 40.5219 72.2361 40.3041 72.1276C40.0863 72.0191 39.8883 71.8599 39.7216 71.6591C39.5548 71.4583 39.4225 71.2198 39.3323 70.9572C39.242 70.6947 39.1956 70.4133 39.1956 70.1291C39.1956 69.8449 39.242 69.5635 39.3323 69.301C39.4225 69.0384 39.5548 68.7999 39.7216 68.5991C39.8883 68.3983 40.0863 68.2391 40.3041 68.1306C40.5219 68.0221 40.7553 67.9664 40.991 67.9668H56.104C56.5792 67.9676 57.0346 68.1957 57.3704 68.6011C57.7062 69.0066 57.8947 69.5561 57.8947 70.1291C57.8947 70.7021 57.7062 71.2517 57.3704 71.6571C57.0346 72.0625 56.5792 72.2907 56.104 72.2914Z" fill="#6C63FF"/>
<path d="M94.2708 94.5316H40.9909C40.5154 94.5316 40.0593 94.3038 39.7231 93.8983C39.3868 93.4928 39.1979 92.9428 39.1979 92.3693C39.1979 91.7959 39.3868 91.2459 39.7231 90.8404C40.0593 90.4348 40.5154 90.207 40.9909 90.207H94.2708C94.7464 90.207 95.2024 90.4348 95.5387 90.8404C95.875 91.2459 96.0639 91.7959 96.0639 92.3693C96.0639 92.9428 95.875 93.4928 95.5387 93.8983C95.2024 94.3038 94.7464 94.5316 94.2708 94.5316Z" fill="#6C63FF"/>
<path d="M82.4878 116.774H40.991C40.7553 116.774 40.5219 116.719 40.3041 116.61C40.0863 116.502 39.8883 116.342 39.7216 116.142C39.5548 115.941 39.4225 115.702 39.3323 115.44C39.242 115.177 39.1956 114.896 39.1956 114.612C39.1956 114.327 39.242 114.046 39.3323 113.783C39.4225 113.521 39.5548 113.282 39.7216 113.082C39.8883 112.881 40.0863 112.722 40.3041 112.613C40.5219 112.505 40.7553 112.449 40.991 112.449H82.4878C82.7235 112.449 82.9569 112.505 83.1747 112.613C83.3925 112.722 83.5905 112.881 83.7572 113.082C83.924 113.282 84.0563 113.521 84.1465 113.783C84.2368 114.046 84.2832 114.327 84.2832 114.612C84.2832 114.896 84.2368 115.177 84.1465 115.44C84.0563 115.702 83.924 115.941 83.7572 116.142C83.5905 116.342 83.3925 116.502 83.1747 116.61C82.9569 116.719 82.7235 116.774 82.4878 116.774V116.774Z" fill="#6C63FF"/>
<path d="M274.655 158.963H0V159.709H274.655V158.963Z" fill="#3F3D56"/>
<path d="M156.5 49.7395C156.5 49.7395 154.556 32.5472 151.316 37.236C148.076 41.9248 151.316 48.958 151.316 48.958L153.908 52.8653L156.5 50.5209V49.7395Z" fill="#9F616A"/>
<path d="M164.276 55.2114C164.276 55.2114 157.796 46.6153 156.5 48.1782C155.204 49.7412 151.316 50.5226 151.964 53.6485C152.612 56.7743 166.22 66.9334 166.22 66.9334L164.276 55.2114Z" fill="#6C63FF"/>
<path opacity="0.1" d="M164.276 55.2114C164.276 55.2114 157.796 46.6153 156.5 48.1782C155.204 49.7412 151.316 50.5226 151.964 53.6485C152.612 56.7743 166.22 66.9334 166.22 66.9334L164.276 55.2114Z" fill="black"/>
<path d="M201.214 54.4297V60.6814C201.214 60.6814 201.862 74.7478 197.973 73.9663C194.085 73.1849 196.029 61.4629 196.029 61.4629L196.677 54.4297L201.214 54.4297Z" fill="#9F616A"/>
<path d="M199.269 99.7539C199.269 99.7539 205.102 110.694 207.046 111.476C208.99 112.257 219.358 119.291 220.654 126.324L229.727 140.39L225.19 147.423C225.19 147.423 204.454 120.853 198.621 118.509C192.789 116.165 186.957 104.443 186.957 104.443L199.269 99.7539Z" fill="#9F616A"/>
<path d="M153.26 81.7812C153.26 81.7812 140.947 84.1256 142.891 93.5032C144.835 102.881 163.628 122.417 163.628 122.417L164.276 127.106L171.404 128.669L174.645 124.762L173.997 122.417C173.997 122.417 166.22 113.821 165.572 110.696C164.924 107.57 157.796 95.0662 154.556 94.2847L159.092 91.1589L153.26 81.7812Z" fill="#9F616A"/>
<path d="M227.783 140.39C227.783 140.39 225.19 135.701 229.079 136.482C232.967 137.264 235.559 138.045 235.559 141.171C235.559 144.297 232.319 166.178 228.431 164.615C224.542 163.052 227.783 156.019 227.783 156.019C227.783 156.019 225.839 149.767 224.542 148.986C223.246 148.204 223.246 144.297 224.542 144.297C225.839 144.297 228.431 141.953 227.783 140.39Z" fill="#2F2E41"/>
<path d="M172.701 123.198C172.701 123.198 172.701 119.29 175.293 123.198C177.885 127.105 179.181 130.231 176.589 132.575C173.997 134.919 164.924 140.39 164.924 140.39C164.924 140.39 155.204 142.734 156.5 137.264C156.5 137.264 162.98 133.357 162.98 130.231C162.98 127.105 162.98 121.635 164.924 123.198C166.868 124.76 172.701 125.542 172.701 123.198Z" fill="#2F2E41"/>
<path d="M185.013 64.5879C185.013 64.5879 194.085 66.1508 193.437 81.7801C193.437 81.7801 205.102 95.8465 201.862 100.535C198.622 105.224 191.493 113.82 188.901 111.476C186.309 109.131 178.533 91.1577 178.533 91.1577C178.533 91.1577 160.388 98.9724 157.148 95.0651C153.908 91.1577 150.668 81.7801 150.668 81.7801L166.868 71.6211L185.013 64.5879Z" fill="#2F2E41"/>
<path d="M159.74 20.0443C164.035 20.0443 167.516 15.8458 167.516 10.6667C167.516 5.48756 164.035 1.28906 159.74 1.28906C155.445 1.28906 151.964 5.48756 151.964 10.6667C151.964 15.8458 155.445 20.0443 159.74 20.0443Z" fill="#9F616A"/>
<path d="M165.572 11.4492C165.572 11.4492 170.108 20.0453 171.405 20.8268C172.701 21.6083 162.332 29.4229 162.332 29.4229C162.332 29.4229 162.332 19.2639 159.092 16.9195L165.572 11.4492Z" fill="#9F616A"/>
<path d="M166.22 20.0439C166.22 20.0439 176.589 16.1365 178.533 22.3883C180.477 28.64 185.013 40.362 184.365 48.1766C183.717 55.9913 182.421 54.4283 184.365 56.7727C186.309 59.1171 187.605 57.5542 186.957 60.6801C186.309 63.8059 185.661 63.8059 186.309 65.3688C186.957 66.9318 178.533 72.402 171.404 73.1835L164.276 73.965C164.276 73.965 164.276 59.8986 162.98 56.7727C161.684 53.6469 159.092 47.3951 159.092 45.0507V38.8477C159.092 34.719 159.986 30.6618 161.684 27.077V27.077C161.684 27.077 165.572 20.0439 166.22 20.0439Z" fill="#6C63FF"/>
<path d="M173.997 23.1699C173.997 23.1699 197.973 25.5143 200.566 33.329C203.158 41.1436 204.454 56.7729 201.862 56.7729C199.27 56.7729 196.029 58.3359 195.381 56.7729C194.733 55.21 192.141 39.5807 191.493 39.5807C190.845 39.5807 171.404 37.2363 171.404 37.2363C171.404 37.2363 162.98 24.7329 173.997 23.1699Z" fill="#6C63FF"/>
<path d="M159.428 8.34078C159.428 8.34078 157.364 4.01614 154.785 7.77248C152.205 11.5288 148.009 4.62588 148.653 3.15295C149.297 1.68001 151.572 3.21917 155.471 1.68232C159.369 0.145468 166.879 -2.9854 168.136 7.22761C169.394 17.4406 166.399 16.3699 166.399 16.3699C166.399 16.3699 165.026 7.32012 163.785 9.91962L162.544 12.5191L161.468 12.8386L159.428 8.34078Z" fill="#2F2E41"/>
</svg>
