<svg width="59" height="65" viewBox="0 0 59 65" fill="none" xmlns="http://www.w3.org/2000/svg">
<path d="M32.9525 1C34.9761 6.62502 41.3809 3.81251 48.1831 8.08342C55.4 12.6147 54.254 42.4589 54.254 42.4589C54.254 42.4589 56.644 44.6198 57.6137 47.0436C58.5834 49.4675 57.8189 55.486 54.2734 55.4744C52.6251 55.469 52.1184 49.5729 52.1184 49.5729C52.1184 49.5729 50.8254 51.0483 49.2032 49.7836C47.581 48.5191 49.2032 44.7505 49.2032 44.7505C47.3588 35.4708 47.2793 28.7276 47.3199 26.4265C47.3489 24.7752 46.8054 25.531 44.3994 16.7482C44.1761 15.9331 42.9972 15.9274 42.7641 16.7399C42.5403 17.5198 42.2572 18.3859 41.8992 19.3336C40.0863 24.1314 43.5665 42.7527 43.6452 43.6322C43.8576 46.0034 44.7564 57.1509 43.5645 64H32.9525L32.6263 55.9674C32.5597 54.326 31.1797 53.0288 29.5 53.0288C27.825 53.0288 26.4406 54.3214 26.3737 55.9674L26.0475 64H15.4355C14.2789 57.3544 15.1048 44.8259 15.4678 42.7862C15.9567 40.0386 18.7573 23.7174 17.1008 19.3337C16.7427 18.3858 16.4594 17.5193 16.2357 16.7393C16.0025 15.9267 14.8239 15.9333 14.6006 16.7484C12.1822 25.576 11.6505 24.7461 11.6801 26.4268C11.7207 28.7278 11.6412 35.4711 9.7968 44.7506C9.7968 44.7506 11.419 48.5191 9.7968 49.7838C8.17462 51.0484 6.88165 49.573 6.88165 49.573C6.88165 49.573 6.37491 55.4691 4.72662 55.4746C1.18109 55.4863 0.416558 49.4676 1.38628 47.0438C2.35601 44.6199 4.74597 42.459 4.74597 42.459C4.74597 42.459 3.60015 12.6146 10.817 8.08342C17.6193 3.81251 24.0239 6.62502 26.0476 1" fill="#FFC7B3"/>
<path d="M3.42252 46.3804C4.39289 43.8644 6.78453 41.6214 6.78453 41.6214C6.78453 41.6214 6.40854 31.461 7.44386 21.8945C7.54193 20.988 8.41591 20.1933 8.58204 19.3132C8.90265 17.6144 8.12584 16.9243 8.33906 15.8429C8.95906 12.6975 9.80923 9.92728 10.9711 8.02344C4.61258 11.9596 4.52732 35.1427 4.80704 42.4515C4.80704 42.4515 2.42601 44.6113 1.45991 47.0338C0.493813 49.4564 1.25549 55.4718 4.78776 55.4601C5.10398 55.4591 5.37801 55.2391 5.61439 54.8854C3.05999 53.7072 2.56782 48.5967 3.42252 46.3804Z" fill="#F4B1A9"/>
<path d="M26.568 1.01562H26.0289C25.9555 1.22027 25.8757 1.41234 25.7909 1.5954C26.0665 1.42643 26.3259 1.23474 26.568 1.01562Z" fill="#F4B1A9"/>
<path d="M8.92164 49.0059C8.92164 49.0059 8.87856 49.5256 8.77673 50.2618C9.22621 50.1925 9.66948 49.9408 9.95218 49.6723C9.3204 49.4767 8.92164 49.0059 8.92164 49.0059Z" fill="#F4B1A9"/>
<path d="M54.1899 49.0059C54.1899 49.0059 53.2709 50.0933 52.0103 49.6497C52.0807 50.38 52.6251 55.4551 54.1492 55.4602C54.8011 55.4623 55.3584 55.2587 55.8282 54.9106C54.5885 53.8149 54.1899 49.0059 54.1899 49.0059Z" fill="#F4B1A9"/>
<path d="M51.2727 49.2253C49.6495 47.9126 51.2727 44.0008 51.2727 44.0008C49.427 34.3685 49.3475 27.3691 49.3881 24.9806C49.416 23.3381 49.0364 24.2002 47.0335 17.0275C46.9194 16.6189 44.4985 16.062 44.288 16.6895C44.2959 16.7114 44.3056 16.7318 44.3121 16.7551C46.7214 25.5781 47.2511 24.7487 47.2216 26.4283C47.1813 28.7281 47.2605 35.4678 49.0979 44.7425C49.0979 44.7425 47.4818 48.5089 49.0979 49.7728C50.5109 50.8779 51.673 49.8897 51.9431 49.6237C51.7279 49.5398 51.5038 49.4121 51.2727 49.2253Z" fill="#F4B1A9"/>
<path d="M17.9184 42.8398C17.9194 42.8271 21.1691 19.8462 18.586 17.3631C17.7742 16.5827 16.3144 16.1737 16.1972 16.5989C16.3017 16.8121 16.4386 17.5409 17.1159 19.339C18.7662 23.7204 15.9761 40.0328 15.4889 42.779C15.1648 44.6068 14.2662 57.118 15.4569 63.9816H17.9994C16.8064 56.8722 17.7059 45.3011 17.9184 42.8398Z" fill="#F4B1A9"/>
<path d="M29.9378 53.0513C31.3919 53.267 32.523 54.4695 32.5831 55.9538L32.9081 63.9821H35.0109L34.6845 55.6443C34.5901 53.2405 31.9793 51.7985 29.9378 53.0513Z" fill="#F4B1A9"/>
<path d="M26.2839 59L26.4043 56.1191C26.4702 54.5426 27.8349 53.2967 29.496 53.2967C31.157 53.2967 32.5217 54.5426 32.5877 56.1191L32.7081 59H43.9128C44.2033 53.3216 43.7097 45.3431 43.2896 43H15.7024C15.1183 46.2575 14.8558 54.6347 15.0791 59H26.2839Z" fill="#430E68"/>
<path d="M18 43H15.6925C15.1172 46.2575 14.8573 54.6174 15.0783 59H17.3858C17.0998 53.327 17.5855 45.3469 18 43Z" fill="#9C5FFF"/>
<path d="M31 53.2316C31.9944 53.6769 32.708 54.7257 32.7531 55.9706L32.8631 59H35L34.8901 55.9706C34.8121 53.8234 32.8044 52.4237 31 53.2316Z" fill="#5B267C"/>
<path d="M15.3879 43C15.2428 43.6721 15.2042 43.6563 15 46H44C43.8117 43.8385 43.7619 43.693 43.6121 43H15.3879Z" fill="#7953CA"/>
<path d="M18 43H15.4024C15.2519 43.6721 15.2118 43.6563 15 46H17.5976C17.7939 43.8286 17.8446 43.6934 18 43Z" fill="#5C17A0"/>
<path d="M9.7832 16.0158C9.87004 15.6399 9.72497 15.2873 9.45918 15.2282C9.19339 15.1691 8.90753 15.4259 8.82069 15.8018C8.73385 16.1777 8.87892 16.5303 9.14471 16.5895C9.4105 16.6486 9.69636 16.3918 9.7832 16.0158Z" fill="#F4B1A9"/>
<path d="M29.5004 39C28.291 39 27.5949 38.0977 28.2543 37.4445C28.7615 36.9317 29.877 36.8379 30.5611 37.2932C31.4985 37.9205 30.8363 39 29.5004 39Z" fill="black"/>
<path d="M58.5359 46.6661C57.7131 44.6071 56.0031 42.7701 55.2663 42.0395C55.4879 34.1864 55.4375 11.4663 48.7143 7.24061C41.8289 2.91341 35.6637 5.51735 33.9243 0.678276C33.7341 0.149262 33.143 -0.128384 32.6042 0.0583639C32.0652 0.244985 31.7825 0.824907 31.9725 1.35392C34.2361 7.6522 41.0473 4.83409 47.5981 8.95131C53.3 12.5348 53.4352 35.7149 53.184 42.4163C53.1726 42.713 53.2942 42.9999 53.5164 43.2011C53.5387 43.2212 55.7381 45.2279 56.6094 47.4081C57.4247 49.448 56.6989 54.3174 54.3531 54.4452C53.8844 53.9779 53.3069 51.6792 53.1167 49.4798C53.0359 48.5392 51.8707 48.2206 51.3043 48.899C51.0502 49.1696 50.5243 49.5315 49.8188 48.981C49.1675 48.4727 49.5803 46.4233 50.1282 45.1403C50.2081 44.9543 50.2299 44.7492 50.1905 44.551C48.3831 35.4485 48.2865 28.8587 48.3289 26.4479C48.3635 24.4754 47.8164 25.406 45.3776 16.4933C44.8818 14.6817 42.2668 14.6683 41.7492 16.4734C41.5161 17.2865 41.2342 18.1327 40.9112 18.9881C39.3923 23.0121 41.236 35.5338 42.2046 41.2888H16.7958C20.2161 20.7979 18.134 19.5477 17.2528 16.4728C16.7342 14.6637 14.1191 14.685 13.6246 16.4935C11.1842 25.4088 10.6382 24.4772 10.6731 26.4479C10.7156 28.8586 10.6189 35.4485 8.81151 44.551C8.77231 44.7483 8.79418 44.9537 8.87347 45.1391C9.42179 46.4232 9.83468 48.4727 9.18339 48.981C8.47765 49.5316 7.95183 49.1696 7.69792 48.899C7.13355 48.2234 5.96719 48.5358 5.88544 49.4796C5.69529 51.6792 5.11773 53.9781 4.64909 54.4452C2.29036 54.3163 1.58733 49.4232 2.39281 47.408C3.25972 45.2388 5.46414 43.2208 5.48574 43.2011C5.7081 42.9998 5.82956 42.713 5.81817 42.4163C5.56723 35.7345 5.69904 12.5366 11.404 8.95105C17.9727 4.82254 24.7606 7.66654 27.0296 1.35367C27.2196 0.824654 26.9368 0.244731 26.3978 0.05811C25.8589 -0.128511 25.2679 0.149262 25.0778 0.678023C23.3447 5.49932 17.144 2.93157 10.2878 7.24036C3.55374 11.473 3.5161 34.2596 3.73574 42.0392C2.99895 42.7699 1.28892 44.607 0.466108 46.6657C-0.748119 49.7034 0.317871 56.4788 4.75413 56.4788C6.81005 56.4788 7.44607 53.1994 7.75354 51.2076C8.55966 51.4125 9.52139 51.3117 10.4714 50.5703C12.3907 49.0725 11.3133 45.7218 10.9007 44.6466C12.6901 35.5051 12.7856 28.8613 12.7425 26.4122C12.7191 25.1085 13.2228 25.6519 15.4486 17.6531C15.6554 18.3215 15.8903 19.005 16.15 19.6931C17.4348 23.0962 15.6987 35.6972 14.4704 42.6066C14.1125 44.6191 13.2435 57.2866 14.4377 64.1553C14.5224 64.6433 14.9533 65 15.4577 65H26.0537C26.6093 65 27.0657 64.5695 27.0878 64.0247C27.3592 57.3339 27.2505 60.217 27.4212 55.996C27.4657 54.8959 28.3794 54.0342 29.5011 54.0342C30.6228 54.0342 31.5363 54.8959 31.5808 55.996C31.7247 59.5489 31.6393 57.2419 31.9144 64.0247C31.9365 64.5695 32.3929 65 32.9485 65H43.5444C44.0488 65 44.4797 64.6431 44.5645 64.1553C45.6731 57.7793 44.9712 45.0786 44.5318 42.6065C43.3035 35.6972 41.5674 23.0961 42.8522 19.6931C43.1119 19.0049 43.3469 18.3212 43.5536 17.6532C45.7886 25.6855 46.2828 25.0986 46.2597 26.4123C46.2167 28.8613 46.3121 35.505 48.1015 44.6466C47.689 45.7218 46.6115 49.0725 48.5308 50.5703C49.4811 51.3118 50.4425 51.4126 51.2486 51.2076C51.5577 53.2104 52.1977 56.4722 54.2341 56.4788C58.7067 56.4789 59.7383 49.6737 58.5359 46.6661ZM33.6567 55.9156C33.5677 53.7217 31.7422 52.0033 29.501 52.0033C27.2597 52.0033 25.4344 53.7217 25.3453 55.9156L25.2633 57.9382H15.9733C15.8348 54.0099 16.011 49.8864 16.195 46.9956H32.4357C33.0072 46.9956 33.4705 46.5409 33.4705 45.98C33.4705 45.4191 33.0072 44.9644 32.4357 44.9644H16.3389C16.3747 44.5067 16.4391 43.6783 16.4871 43.3197H42.5147C42.5611 43.6646 42.6301 44.5424 42.6629 44.9644H40.3435C39.772 44.9644 39.3087 45.4191 39.3087 45.98C39.3087 46.5409 39.772 46.9956 40.3435 46.9956H42.8068C42.9908 49.8865 43.1669 54.01 43.0285 57.9382H33.7385L33.6567 55.9156ZM16.3446 62.9691C16.2106 62.0273 16.1114 61.0168 16.0402 59.9695H25.1807L25.059 62.9691H16.3446ZM33.9428 62.9691L33.8211 59.9695H42.9616C42.8906 61.0168 42.7914 62.0273 42.6572 62.9691H33.9428Z" fill="black"/>
<path d="M36.0009 47C35.449 47 35 46.5523 35 46C35 45.4477 35.4459 45 35.9978 45C36.564 45 37 45.4578 37 46C37.0001 46.5523 36.5527 47 36.0009 47Z" fill="black"/>
<path d="M12.4923 25.7032L14.7487 28.8528C15.0947 29.3355 15.0826 29.9438 14.7172 30.4165L12.4608 33.3381C11.9384 34.0146 10.8686 34.2037 10.0716 33.7601C9.27472 33.3171 9.05146 32.4092 9.57435 31.7324L10.1305 31.0124C9.64532 31.1523 9.7357 31.0638 4.72572 31.0911C3.77269 31.0911 3 30.4354 3 29.6266C3 28.8178 3.77269 28.162 4.72572 28.162C9.59614 28.2096 9.69537 28.0537 10.3173 28.3056C9.53703 27.2165 9.29177 26.9952 9.29177 26.4655C9.29177 24.9902 11.5874 24.4402 12.4923 25.7032Z" fill="white"/>
<path d="M46.5077 33.2968L44.2513 30.1472C43.9053 29.6645 43.9174 29.0562 44.2828 28.5835L46.5392 25.6619C47.0616 24.9854 48.1314 24.7963 48.9284 25.2399C49.7253 25.6829 49.9485 26.5908 49.4256 27.2676L48.8695 27.9876C49.3547 27.8477 49.2643 27.9362 54.2743 27.9089C55.2273 27.9089 56 28.5646 56 29.3734C56 30.1822 55.2273 30.838 54.2743 30.838C49.4039 30.7904 49.3046 30.9463 48.6827 30.6944C49.463 31.7835 49.7082 32.0048 49.7082 32.5345C49.7082 34.0098 47.4126 34.5598 46.5077 33.2968Z" fill="white"/>
</svg>
