<svg width="81" height="79" viewBox="0 0 81 79" fill="none" xmlns="http://www.w3.org/2000/svg">
<path d="M66.9981 33.0035H66.9964L66.9942 33.0047L15.072 33C14.3374 35.6504 13.9171 38.7108 14.0137 42.7945C14.2921 54.5023 19.5133 66.972 26.2816 76C38.068 76 53.961 76 55.8076 76C61.3431 68.6186 67.5509 55.5005 67.9732 42.7984C68.1096 38.7028 67.7157 35.648 66.9981 33.0035Z" fill="#FFCDB3"/>
<path d="M34.1898 34.7253C44.6953 34.7253 54.4777 32.4195 62.6762 28.6536L62.6897 28.6484C58.3637 20.0677 55.9671 10.0207 56.5811 0H23.6351C23.7335 11.3128 20.97 22.5414 16.2345 32.4115C20.9301 33.6552 27.0203 34.7253 34.1898 34.7253Z" fill="#FFCDB3"/>
<path d="M14.5857 41.2741C21.5 44 35.468 53.7046 40.6773 58C48.6675 51.4107 57.5498 42.6865 66.9969 39.313L67 39.3113C66.1635 36.0124 64.7837 33.4499 63.3668 30L63.356 30.0051C56.829 33.6858 49.041 35.9394 40.6773 35.9394C35.6671 35.9394 21.4496 31.9397 17 30.5C16.222 32.9189 15.0028 37.1828 14.5857 41.2741Z" fill="#430E68"/>
<path d="M54.7383 11.8842C54.7383 10.9471 54.0295 10.1865 53.1562 10.1865C52.283 10.1865 51.5742 10.9471 51.5742 11.8842C51.5742 12.8213 52.283 13.5819 53.1562 13.5819C54.0295 13.5819 54.7383 12.8213 54.7383 11.8842Z" fill="black"/>
<path d="M59.9213 0.530528C59.6226 0.191839 59.207 0 58.7724 0H22.2275C21.7929 0 21.3773 0.191839 21.0786 0.530528C20.7799 0.869217 20.6241 1.32488 20.6478 1.79055C21.6154 20.7162 13.8095 31.6797 11.983 38.5545C8.68056 50.9494 14.068 66.9586 21.6167 77.4345C21.9163 77.8503 22.3784 78.0938 22.8682 78.0938H58.1333C58.6229 78.0938 59.085 77.8503 59.3846 77.4347C66.5694 67.4667 72.1963 50.802 69.0055 38.5688C67.2094 31.6562 59.3799 20.8038 60.3521 1.79055C60.3759 1.32505 60.2201 0.869387 59.9213 0.530528ZM63.005 31.9976C63.1969 32.4294 63.3867 32.851 63.5734 33.2645C64.3162 34.9105 64.9804 36.3861 65.5079 37.97C56.4652 41.6226 47.9437 49.5145 40.4999 55.5936C33.0242 49.489 24.5301 41.6192 15.485 37.9677C16.0182 36.3856 16.682 34.9121 17.4238 33.2688C17.6113 32.8537 17.8019 32.4306 17.9944 31.9974C24.9117 35.5028 32.6564 37.3492 40.4999 37.3492C48.3433 37.3492 56.0879 35.5028 63.005 31.9976ZM14.6304 41.2513C23.1976 44.781 31.3142 52.3858 38.9179 58.5657V74.6984H23.6524C15.5037 63.0088 13.072 49.7437 14.6304 41.2513ZM57.3464 74.6984H42.082V58.5657C49.7396 52.341 57.8061 44.7871 66.3442 41.2615C68.2253 51.9904 63.3201 66.0349 57.3464 74.6984ZM61.3112 27.8676C61.4369 28.2092 61.5685 28.5536 61.7047 28.902C55.1956 32.211 47.8972 33.9538 40.4999 33.9538C33.1027 33.9538 25.804 32.211 19.2949 28.902C19.4295 28.557 19.5607 28.2143 19.6869 27.8715C22.6532 19.8092 24.059 11.5838 23.8731 3.39555H57.1265C56.9407 11.5806 58.346 19.8042 61.3112 27.8676Z" fill="black"/>
<path d="M55.2961 18.288C55.1121 17.3715 54.2703 16.7879 53.4165 16.9858C52.5623 17.1833 52.019 18.0863 52.203 19.0029C52.6803 21.3808 53.2905 23.7927 54.0164 26.1717C54.2878 27.0613 55.1803 27.549 56.0123 27.2567C56.8427 26.9649 57.2953 26.006 57.0233 25.1149C56.3313 22.8476 55.7503 20.5508 55.2961 18.288Z" fill="black"/>
<path d="M79.418 13.581H69.6318L73.2593 9.68836C73.8771 9.02541 73.8771 7.95043 73.2593 7.28731C72.6415 6.6242 71.6397 6.62437 71.0218 7.28731L64.6937 14.0781C64.0759 14.741 64.0759 15.816 64.6937 16.4791L71.0218 23.2699C71.6396 23.9328 72.6413 23.9328 73.2593 23.2699C73.8771 22.6069 73.8771 21.532 73.2593 20.8688L69.6318 16.9764H79.418C80.2917 16.9764 81 16.2163 81 15.2787C81 14.341 80.2917 13.581 79.418 13.581Z" fill="white"/>
<path d="M1.58203 16.9771H11.3682L7.74072 20.8697C7.12294 21.5327 7.12294 22.6077 7.74072 23.2708C8.3585 23.9337 9.36025 23.9337 9.97819 23.2708L16.3063 16.48C16.9241 15.8171 16.9241 14.7421 16.3063 14.079L9.97819 7.28823C9.3604 6.62528 8.35866 6.62528 7.74072 7.28823C7.12278 7.95117 7.12294 9.02615 7.74072 9.68927L11.3682 13.5817H1.58203C0.708275 13.5817 0 14.3418 0 15.2794C0 16.2171 0.708275 16.9771 1.58203 16.9771Z" fill="white"/>
</svg>
