<svg width="89" height="95" viewBox="0 0 89 95" fill="none" xmlns="http://www.w3.org/2000/svg">
<path d="M11.7417 84.1318C10.4539 79.4758 14.3808 64.9713 14.7463 61.5761C16.458 59.3005 17.8058 56.2658 20.2048 52.7301C21.8587 50.2924 23.1655 43.5713 23.1655 43.5713C23.1655 43.5713 11.8039 45.0225 10.2206 55.004C9.01809 62.5847 6.9509 74.2918 6.02611 79.4847C5.75153 81.0262 5.0225 82.4309 3.96298 83.5356C2.68161 84.8716 1.13766 87.0316 1.42758 89.4812C1.80744 92.6909 4.11499 93.6625 5.71732 93.4943C8.25361 93.2277 8.44477 89.0705 8.44477 89.0705C8.44477 89.0705 10.6835 90.1487 11.4299 88.5804C11.945 87.4976 12.2085 85.8197 11.7417 84.1318Z" fill="#FFC7B3"/>
<path d="M55.7478 51.7668C52.1493 51.6214 42.4923 57.8744 42.4923 57.8744L39.8962 43.5966C39.8962 43.5966 50.4886 43.1874 55.6093 45.6594C59.5977 47.5848 72.0274 47.172 76.6805 46.8953C77.8072 46.8283 78.8827 46.4087 79.7964 45.7127C81.8759 44.1286 84.2486 45.1333 86.4627 46.656C87.9359 47.6692 87.7238 50.0042 86.0883 50.6898C84.9413 51.1706 83.595 51.5797 82.2586 51.632C75.6058 51.8928 58.0662 51.8605 55.7478 51.7668Z" fill="#FFC7B3"/>
<path d="M43.9458 49.9078C46.6362 61.2415 35.9941 73.007 42.1315 79.1508C49.1173 86.1438 47.3947 93.4939 47.3947 93.4939H15.518C15.518 93.4939 13.7954 86.1436 20.7812 79.1508C26.7845 73.1413 16.7332 61.7528 18.8094 50.651C19.5226 46.8371 22.0604 43.6791 25.4917 42.2268L26.1033 41.9678C29.7164 40.4385 33.7606 40.4851 37.3411 42.0971C40.9861 43.7385 43.1612 46.6032 43.9458 49.9078Z" fill="#FFC7B3"/>
<path d="M42.4225 79.134C41.4485 78.213 40.8882 77.1608 40.6253 76H22.3741C22.1112 77.1607 21.5513 78.213 20.5775 79.134C13.4296 85.8944 15.1923 93 15.1923 93H47.8079C47.8077 93 49.5702 85.8944 42.4225 79.134Z" fill="#F4B1A9"/>
<path d="M42.4226 78.7034C42.1903 78.4769 41.9841 78.2417 41.7972 78H21.2028C21.0159 78.2417 20.8099 78.4767 20.5774 78.7034C13.4297 85.6737 15.1923 93 15.1923 93H47.8077C47.8077 93 49.5702 85.6737 42.4226 78.7034Z" fill="#430E68"/>
<path d="M26.3268 42.1156L25.7546 42.3697C22.4012 43.859 19.9315 47.1108 19.2592 51.0272C18.6828 54.3849 19.1416 57.7669 19.9121 61.0207L23.0673 61.7713C27.5806 62.8449 30.4655 59.3901 30.4445 59.4116C30.9354 58.9067 31.6999 58.9181 32.1781 59.4375C34.0662 61.488 36.7762 62.4126 39.4335 61.8266L43.0879 61.0207C43.9188 57.5127 44.3869 53.8559 43.5864 50.2409C41.8196 42.2604 33.0678 39.1221 26.3268 42.1156Z" fill="#430E68"/>
<path d="M43.5827 58.3124L39.7721 59.1718C37.0315 59.7899 34.1975 58.635 32.2063 56.4236C32.2886 56.4236 31.2605 55.4892 30.3986 56.3959C27.9671 58.9528 25.1694 59.712 22.7059 59.1128L19.4158 58.3124C18.9641 56.362 18.7673 58.1419 19.4158 60.9421L22.7059 61.7425C25.2862 62.3702 28.071 61.6739 30.3986 59.2262C30.9104 58.6878 31.7076 58.7 32.2063 59.2539C32.2895 59.2539 35.0151 62.8741 39.7721 61.8013L43.5827 60.9419C44.2332 58.1335 44.0364 56.3534 43.5827 58.3124Z" fill="#E072DE"/>
<path d="M34.9033 43.0708C33.6492 38.3467 33.9366 30 33.9366 30H28.0683C28.0683 30 28.3558 38.3467 27.1016 43.0708C26.2415 46.3104 31.042 48.3958 34.0536 45.8926C34.1844 45.8924 35.3359 44.7004 34.9033 43.0708Z" fill="#F4B1A9"/>
<path d="M45.7954 36H17.2048C15.9872 36 15 34.9679 15 33.6947V17.214C15 11.6144 18.0628 6.50805 22.8838 4.06977C33.8003 -1.45127 48 4.45848 48 17.214V33.6947C48.0002 34.9679 47.013 36 45.7954 36Z" fill="#D17168"/>
<path d="M40.116 3.91841C40.2068 3.91841 31.9347 -0.398015 22.8838 3.91841C18.0626 6.21764 15 11.0328 15 16.313V19C15 11.8705 20.317 5.82241 29.1841 4.79269C30.3825 4.65358 31.8867 5.76955 33.0894 5.8471C33.8915 5.89892 34.3953 4.85215 35.1878 5.0003C43.4905 6.55271 48 12.4329 48 19V16.313C48 11.0328 44.9372 6.21764 40.116 3.91841Z" fill="#D88D85"/>
<path d="M41.6238 16.7178C41.6238 16.7178 44.7672 33.5738 32.8816 38.6158C31.674 39.1281 30.326 39.1281 29.1184 38.6158C17.2329 33.5738 20.3762 16.7178 20.3762 16.7178C20.3762 16.7178 25.8915 18.3968 28.245 13C28.245 13.0002 31.607 18.6365 41.6238 16.7178Z" fill="#FFC7B3"/>
<path d="M87.3715 45.4141C87.3485 45.39 85.7813 44.2844 84.0657 43.7219C81.7927 42.9769 80.1068 43.7396 79.0928 44.5109C78.3815 45.0518 77.5611 45.3642 76.7205 45.414C72.6032 45.6585 60.0083 46.1048 56.2859 44.3111C51.4954 42.0019 42.5809 42.0501 40.3891 42.1C39.1944 41.2428 37.7413 40.5711 36.3767 40.1305C36.297 39.5937 36.2269 39.0158 36.1661 38.399C36.7561 38.0315 37.3144 37.6263 37.8407 37.1848H46.2319C48.2301 37.1848 49.8558 35.4787 49.8558 33.3815V16.8016C49.8558 3.02189 34.692 -3.87158 22.6445 2.24201C17.3575 4.92483 13.9413 10.64 13.9413 16.8016V33.3815C13.9413 35.4787 15.5668 37.1848 17.565 37.1848H25.1709C25.6973 37.6263 26.2556 38.0315 26.8455 38.3988C26.7818 39.046 26.7079 39.6519 26.6235 40.2108C25.3223 40.6529 23.7835 41.361 22.6582 42.1568C16.0483 43.3057 9.9789 47.6107 8.84319 54.76C7.62676 62.4161 5.50353 74.4105 4.64707 79.2118C4.42788 80.4408 3.84942 81.5717 2.97494 82.4821C-2.85586 88.5512 0.84341 95.4998 5.86703 94.9716C8.07116 94.7403 9.15971 92.7437 9.61081 90.9053C12.2118 91.1222 13.1891 89.1118 13.4044 86.3917C13.4712 85.5477 13.3746 84.6483 13.117 83.718C12.0106 79.7229 15.5688 65.9799 16.1192 62.1694C16.7011 61.3602 17.2462 60.4715 17.7936 59.5363C19.3984 67.0562 23.1311 73.7861 20.3216 77.5207C19.5205 78.5855 13.9339 83.2841 13.9376 91.3492C13.9382 92.0885 14.0062 93.1511 14.1706 93.8503C14.3262 94.5131 14.8925 94.9791 15.5426 94.9791H47.4692C48.1193 94.9791 48.6856 94.5131 48.8412 93.8503C49.0027 93.1631 49.0737 92.1056 49.0742 91.3492C49.0781 83.3186 43.3711 78.4028 42.6893 77.5196C39.6573 73.4865 44.2574 65.9365 45.5494 57.7562C50.347 54.9057 54.2336 53.1916 55.7812 53.2504C59.0114 53.3802 78.5246 53.2682 78.9904 53.2504C81.7122 53.0144 83.3389 53.4952 86.7464 52.0687C89.4438 50.9393 89.8031 47.0845 87.3715 45.4141ZM39.2348 76.962H23.7766C25.0512 72.8272 22.9633 67.5822 21.5024 62.5836C21.8203 62.5829 26.8658 64.5235 31.2084 60.2737L31.296 60.188C35.7069 64.6463 40.9979 62.5423 41.5211 62.543C39.9972 67.766 37.9725 72.8667 39.2348 76.962ZM33.4667 39.7237C33.6389 41.1189 33.8649 42.3227 34.1422 43.3177C34.2598 43.7394 34.1135 44.2015 33.7778 44.4669C32.44 45.5262 30.5713 45.5262 29.2333 44.4668C28.3827 43.7939 29.0917 43.3953 29.5447 39.7237C30.7894 40.1368 32.1749 40.1507 33.4667 39.7237ZM22.0256 18.3179C24.1474 18.4871 27.0151 17.9473 28.9746 15.3572C32.2259 18.2486 36.7329 18.826 40.9836 18.2957C41.7286 25.4364 40.0996 32.9896 34.0316 36.2463C32.3589 37.1412 31.4023 37.3687 29.7945 36.6478C23.1138 33.6285 21.2357 25.9457 22.0256 18.3179ZM37.0065 43.5351C37.7054 44.1531 45.3006 46.2964 42.3606 59.34L39.4509 59.9505C37.1833 60.426 34.8467 59.6942 33.1995 57.992C32.1623 56.9203 30.5144 56.895 29.4487 57.9385C29.3921 57.9721 26.9704 60.7842 23.0641 59.9006L20.6546 59.3552C19.3647 53.6245 19.5406 48.2799 24.0426 44.7686C24.6448 44.3182 25.3 43.9321 26.0046 43.6275C26.0226 46.5007 28.8124 48.2261 31.5058 48.2261C34.1529 48.2263 37.0567 46.5114 37.0065 43.5351ZM16.7674 33.3815V16.8016C16.7674 11.7712 19.5568 7.1051 23.874 4.91444C33.9975 -0.222458 47.0297 5.21923 47.0297 16.8016V33.3815C47.0297 33.842 46.6719 34.2167 46.2319 34.2167H40.5313C42.1144 31.9203 43.1736 29.0804 43.6638 25.755C44.3968 20.7802 43.6009 16.494 43.5664 16.3139C43.4154 15.5205 42.687 15.002 41.9321 15.1437C33.3106 16.7623 30.235 12.5961 29.9473 12.1722C29.1994 11.0688 27.8873 11.3479 27.4572 12.314C26.6935 14.0312 25.4915 15.0027 23.783 15.2843C22.4062 15.5116 21.2219 15.1786 21.2168 15.1771C20.4232 14.9398 19.6056 15.471 19.445 16.3139C19.4108 16.494 18.6147 20.78 19.3477 25.755C19.8379 29.0806 20.8973 31.9203 22.4802 34.2167H17.5648C17.125 34.2167 16.7674 33.842 16.7674 33.3815ZM16.092 56.7604C13.5408 61.2075 13.4482 60.6419 13.3654 61.4097C13.0001 64.7947 8.98202 79.4166 10.4032 84.547C10.5637 85.1271 10.6259 85.6651 10.5877 86.1461C10.5443 86.696 10.4244 87.4439 10.1792 87.9266C10.011 87.9939 9.45927 87.914 9.04614 87.7218C8.13669 87.2844 7.09476 87.9529 7.04672 88.9996C7.0204 89.571 6.67757 91.9039 5.58584 92.0184C4.69388 92.1126 3.10989 91.6446 2.83188 89.2988C2.6148 87.4673 3.87132 85.7276 4.96376 84.5904C6.24801 83.2535 7.09883 81.5828 7.42435 79.7585C8.28223 74.9483 10.4097 62.9311 11.6302 55.2487C12.3054 50.999 15.0492 48.1521 18.8602 46.4239C17.6959 48.5426 16.9878 51.2295 17.1632 54.9138C16.7847 55.5533 16.4336 56.1653 16.092 56.7604ZM46.2353 92.0111H33.3115V87.8526C33.3115 87.033 32.6788 86.3685 31.8985 86.3685C31.1181 86.3685 30.4855 87.033 30.4855 87.8526V92.0111H16.7808C16.5754 88.321 18.0232 83.9905 21.7882 80.2269C21.8837 80.1314 21.9777 80.0323 22.0699 79.9301H40.9416C41.0338 80.0321 41.1733 80.1765 41.2237 80.2267C45.0215 84.0228 46.4518 88.3468 46.2353 92.0111ZM85.6999 49.3115C82.8875 50.4887 81.7954 50.0468 78.9063 50.2835C78.1634 50.2889 59.3678 50.4251 55.8895 50.2845C53.5791 50.1912 49.5046 52.1243 45.8707 54.1783C45.9195 50.8297 45.2534 47.7495 43.3532 45.0778C46.7932 45.1611 52.0661 45.5429 55.1072 47.0086C59.7871 49.2644 74.0655 48.5446 76.8804 48.3774C80.5973 48.1567 80.699 45.7284 83.2237 46.5554C84.0428 46.8238 84.918 47.2757 85.8248 47.8983C86.3453 48.2559 86.2734 49.0714 85.6999 49.3115Z" fill="black"/>
<path d="M78.2968 41.2834L75.1472 43.7278C74.6645 44.1026 74.0562 44.0895 73.5835 43.6937L70.6619 41.2492C69.9854 40.6832 69.7963 39.5244 70.2399 38.6609C70.6829 37.7976 71.5908 37.5557 72.2676 38.1222L72.9876 38.7247C72.8477 38.1991 72.9362 38.297 72.9089 32.8695C72.9089 31.8371 73.5646 31 74.3734 31C75.1822 31 75.838 31.8371 75.838 32.8695C75.7904 38.1458 75.9463 38.2533 75.6944 38.927C76.7835 38.0818 77.0048 37.8161 77.5345 37.8161C79.0098 37.8161 79.5598 40.303 78.2968 41.2834Z" fill="white"/>
<path d="M62.3749 56.2987L59.5753 54.2303C59.1462 53.9132 58.6055 53.9242 58.1853 54.2592L55.5883 56.3276C54.9871 56.8065 54.819 57.7871 55.2133 58.5177C55.6071 59.2482 56.414 59.4528 57.0156 58.9735L57.6556 58.4637C57.5313 58.9085 57.6099 58.8256 57.5857 63.4181C57.5857 64.2917 58.1686 65 58.8875 65C59.6064 65 60.1893 64.2917 60.1893 63.4181C60.147 58.9535 60.2856 58.8626 60.0617 58.2925C61.0298 59.0077 61.2265 59.2325 61.6973 59.2325C63.0087 59.2325 63.4976 57.1282 62.3749 56.2987Z" fill="white"/>
</svg>
