<svg width="68" height="67" viewBox="0 0 68 67" fill="none" xmlns="http://www.w3.org/2000/svg">
<path d="M8.97054 55.6584C7.98456 52.3207 10.9913 41.9228 11.2711 39.4891C12.5816 37.8578 13.6135 35.6824 15.4503 33.1476C16.7166 31.4001 17.7172 26.582 17.7172 26.582C17.7172 26.582 9.0181 27.6224 7.80588 34.7776C6.88525 40.2121 5.30238 48.6044 4.59431 52.3269C4.38414 53.432 3.82592 54.4388 3.01463 55.2307C2.03355 56.1885 0.851483 57.7369 1.07347 59.493C1.36427 61.7938 3.13113 62.4905 4.35784 62.3698C6.29979 62.1788 6.44619 59.1985 6.44619 59.1985C6.44619 59.1985 8.16031 59.9714 8.73169 58.8472C9.12624 58.0714 9.3279 56.8685 8.97054 55.6584Z" fill="#FFC7B3"/>
<path d="M60.3248 32.4571C60.3248 32.4571 60.3248 32.4571 62.962 32.3603C63.9856 32.3227 65.0165 32.0294 65.8948 31.6846C67.1467 31.1931 67.3092 29.5198 66.1813 28.7934C64.4805 27.6981 62.6637 26.9853 61.0768 28.117C60.3772 28.6159 59.5537 28.9167 58.691 28.9648C55.1285 29.1632 45.6116 29.4592 42.5578 28.0789C38.6371 26.3067 30.5271 26.6002 30.5271 26.6002L32.7245 37.9156C32.7245 37.9156 34.6531 36.2808 36.2907 34.5809C37.2232 33.6128 38.5586 33.1251 39.9071 33.2623C42.0992 33.4854 45.3104 33.7832 46.7396 33.7731C50.1524 33.7488 60.3248 32.4571 60.3248 32.4571Z" fill="#FFC7B3"/>
<path d="M33.8166 52.1946H14.314V28.5127C14.314 26.7627 15.5048 25.2294 17.2212 24.7693C20.6089 23.8613 23.5195 22.7885 27.9081 23.9648L30.9095 24.7693C32.6259 25.2294 33.8167 26.7627 33.8167 28.5127L33.8166 52.1946Z" fill="#430E68"/>
<path d="M30.9093 24.7693C27.5217 23.8613 24.6111 22.7885 20.2225 23.9648L17.2211 24.7693C15.5047 25.2294 14.3138 26.7628 14.3138 28.5127V30.8825C14.3138 29.1325 15.5047 27.5992 17.2211 27.1391C20.6087 26.2311 23.5193 25.1583 27.9079 26.3347L30.9093 27.1391C32.6257 27.5992 33.8165 29.1325 33.8165 30.8825V28.5127C33.8165 26.7628 32.6257 25.2294 30.9093 24.7693Z" fill="#FFBADE"/>
<path d="M27.1173 26.1018C26.1361 22.7999 26.361 16.9658 26.361 16.9658H21.7696C21.7696 16.9658 21.9945 22.7997 21.0131 26.1018C20.3405 28.3653 24.0958 29.824 26.4525 28.0739C26.5477 28.0741 27.4559 27.2413 27.1173 26.1018Z" fill="#FFAD9B"/>
<path d="M32.3157 8.10645C32.3157 8.10645 34.7456 20.085 25.5578 23.6682C24.6242 24.0322 23.5822 24.0322 22.6487 23.6682C13.4609 20.0851 15.8908 8.10645 15.8908 8.10645H32.3157Z" fill="#FFC7B3"/>
<path d="M14.314 52.1943H33.8166V65.4725H14.314V52.1943Z" fill="#6C5985"/>
<path d="M14.314 52.1943H33.8166V54.3674H14.314V52.1943Z" fill="#5BA6FF"/>
<path d="M14.6593 12.8413C14.6593 12.8413 19.5794 12.8919 20.7254 8.22154C20.7254 8.22154 27.8072 14.8472 34.5588 8.82548C34.5588 8.82548 34.3064 2.28462 27.481 1.47936C20.6556 0.674109 18.4136 3.49931 18.4136 3.49931C18.4136 3.49931 13.5252 2.5197 12.801 6.12633C11.9233 10.498 14.6593 12.8413 14.6593 12.8413Z" fill="#FFC449"/>
<path d="M66.7629 28.012C64.6823 26.6721 62.4518 25.9395 60.4538 27.3637C59.9075 27.7535 59.2774 27.9782 58.6312 28.0142C55.4412 28.1924 45.8396 28.5048 43.0012 27.2221C40.5884 26.1316 36.8162 25.7697 33.8853 25.666C32.6222 23.9971 31.0993 23.8288 28.7496 23.1989C32.5447 20.3748 33.8108 15.607 33.6563 10.92C34.1943 10.579 34.7342 10.1755 35.272 9.69575C35.505 9.48789 35.6327 9.18919 35.6207 8.87976C35.6178 8.80332 35.5369 6.98757 34.5222 5.06514C33.568 3.25738 31.5939 1.00392 27.6074 0.533624C24.4241 0.157961 20.475 0.400244 18.0466 2.47974C15.0838 2.14348 12.3343 3.14978 11.7585 6.017C10.7725 10.9276 13.8313 13.6135 13.962 13.7256C14.1525 13.8886 14.3958 13.9796 14.6482 13.9824C14.8144 13.9842 14.7634 19.6794 19.4406 23.183L16.9422 23.8528C15.4061 24.2645 14.1984 25.3623 13.6217 26.7533C10.8091 27.9336 7.51234 30.247 6.75777 34.7003C5.82824 40.1866 4.20485 48.7863 3.54992 52.2291C3.38173 53.1131 2.93802 53.9269 2.26675 54.5821C-1.99431 58.7419 0.410879 63.5263 4.0716 63.5261C5.86092 63.5244 6.87826 62.2726 7.31426 60.5907C8.26518 60.6696 9.20108 60.3578 9.68225 59.4112C10.2132 58.3664 10.414 56.892 9.99112 55.4607C9.14356 52.5915 11.8678 42.7279 12.2863 40.0023C12.6195 39.5683 12.9369 39.1018 13.2513 38.6136V65.5666C13.2513 66.1448 13.7272 66.6137 14.3141 66.6137H33.8167C34.4036 66.6137 34.8794 66.1448 34.8794 65.5666C34.8794 64.3868 34.8794 38.7789 34.8794 37.5088C35.5097 36.9322 36.3135 36.1736 37.062 35.3966C37.763 34.6688 38.7861 34.2946 39.7984 34.3988C41.4601 34.5679 45.0907 34.9236 46.7477 34.9152C50.1001 34.8914 59.5594 33.7047 60.4128 33.5967C62.9914 33.5019 64.1177 33.6047 66.2884 32.7523C68.3374 31.9481 68.6099 29.2012 66.7629 28.012ZM22.0331 26.4901C22.1798 25.9965 22.308 25.4294 22.4167 24.7949C23.4435 25.1579 24.6117 25.1909 25.7181 24.8195C25.8258 25.444 25.9527 26.0028 26.0973 26.4901C26.1891 26.799 26.0749 27.1373 25.8128 27.3319C24.7837 28.0961 23.3466 28.0961 22.3174 27.3319C22.0556 27.1373 21.9412 26.799 22.0331 26.4901ZM13.8435 6.42355C13.9745 5.77105 14.3408 4.87168 16.0011 4.59563C16.7191 4.47626 17.6524 4.5061 18.2017 4.61945C18.5965 4.69812 19.0026 4.55099 19.2508 4.23829C19.2695 4.21473 21.2936 1.89779 27.3546 2.61312C32.2301 3.18827 33.2404 7.10027 33.4457 8.48342C32.7532 9.04482 32.2949 9.27899 32.0467 9.43122C28.5446 11.3641 24.1166 10.0027 21.4559 7.55486C20.8694 7.00786 19.8877 7.2775 19.6905 8.07634C19.1312 10.3438 17.339 11.6309 15.0859 11.8626C14.5023 11.1886 13.2564 9.34823 13.8435 6.42355ZM16.7682 13.667C18.7113 13.1004 20.3424 11.8745 21.2286 10.0462C24.2804 12.1733 27.9976 13.1983 31.5472 11.9508C31.4908 18.4835 28.3195 21.2776 25.9193 22.4569C24.5285 23.1293 23.7801 23.2174 22.1155 22.3731C18.3641 20.4641 17.1044 16.7888 16.7682 13.667ZM17.5002 25.8736L20.1827 25.1545C20.1237 25.4229 20.0609 25.6737 19.9932 25.9016C19.2912 28.2635 21.6312 29.9969 24.0652 29.9969C26.4813 29.9969 28.8435 28.2779 28.1372 25.9016C28.0694 25.6739 28.0066 25.4231 27.9476 25.1545L30.6303 25.8736C31.9006 26.2141 32.7536 27.3599 32.7536 28.6067V51.2412H15.3767C15.3767 49.0011 15.3767 30.7084 15.3767 28.6067C15.3767 27.4019 16.1921 26.2241 17.5002 25.8736ZM12.2995 36.1368C10.332 39.3518 10.2785 38.9161 10.2151 39.4662C9.93413 41.9093 6.86338 52.3672 7.9502 56.0459C8.22586 56.9796 8.05209 57.9412 7.78162 58.4735C7.74256 58.5506 7.24717 58.4977 6.88862 58.3414C6.20592 58.0337 5.42119 58.503 5.38479 59.243C5.3646 59.6553 5.09944 61.3396 4.25241 61.4229C3.56386 61.4898 2.34247 61.153 2.12819 59.4587C1.96147 58.1393 2.925 56.8874 3.76274 56.0697C4.74208 55.1137 5.39091 53.9189 5.63906 52.6147C6.29506 49.1658 7.92164 40.5497 8.85422 35.045C9.34934 32.123 11.2866 30.3371 13.2512 29.2588V34.6047C12.911 35.1378 12.6008 35.6447 12.2995 36.1368ZM32.7537 64.5194H25.1279V60.435C25.1279 59.8567 24.6521 59.3879 24.0652 59.3879C23.4783 59.3879 23.0024 59.8567 23.0024 60.435V64.5194H15.3767V53.3355H32.7537V64.5194ZM65.5014 30.8068C63.3461 31.6531 62.5112 31.335 60.2852 31.5058C60.1425 31.5109 50.1257 32.7971 46.7322 32.821C45.675 32.8251 43.2909 32.649 40.0165 32.3157C38.3531 32.1472 36.6718 32.7595 35.52 33.9551C35.3097 34.1734 35.0942 34.3907 34.8793 34.603C34.849 28.7628 34.9408 28.5691 34.8119 27.8039C38.04 27.9807 40.5998 28.4408 42.1151 29.1258C45.689 30.7413 56.6003 30.2249 58.7512 30.1053C61.5897 29.9474 61.6659 28.2039 63.607 28.8001C64.7317 29.1455 65.5678 29.7651 65.6002 29.7651C66.0102 30.0291 65.9516 30.6301 65.5014 30.8068Z" fill="black"/>
<path d="M46.0927 36.5433L43.7696 35.1523C43.4195 34.9426 42.9781 34.9499 42.6353 35.1714L40.4805 36.5624C39.9895 36.8793 39.8523 37.5284 40.1739 38.012C40.4955 38.4959 41.1543 38.631 41.6453 38.3141L42.2203 37.9429C42.0883 38.2721 42.171 38.2492 42.1455 41.3171C42.1455 41.8954 42.6213 42.3642 43.2082 42.3642C43.7952 42.3642 44.271 41.8954 44.271 41.3171C44.271 38.0492 44.3146 38.1381 44.1414 37.8256L44.9888 38.3331C45.4916 38.6338 46.1447 38.4753 46.4489 37.9819C46.7539 37.4878 46.5944 36.8437 46.0927 36.5433Z" fill="white"/>
<path d="M57.6131 25.3235L55.8542 26.8346C55.5891 27.0624 55.2549 27.0544 54.9953 26.8138L53.3638 25.3027C52.9921 24.9585 52.8881 24.2533 53.1317 23.7279C53.3752 23.2022 53.8739 23.0555 54.2457 23.3997L54.6811 23.803C54.6039 23.5267 54.6244 23.6756 54.6244 20.1375C54.6244 19.5093 54.9847 19 55.4291 19C55.8735 19 56.2338 19.5093 56.2338 20.1375C56.2338 23.6875 56.2668 23.591 56.1356 23.9304L56.7773 23.3791C57.158 23.0525 57.6524 23.2247 57.8828 23.7606C58.1137 24.2974 57.9928 24.9971 57.6131 25.3235Z" fill="white"/>
<path d="M21.8939 20.5261C22.3048 20.6607 23.0912 21.1243 24.3189 21.1243C25.5725 21.1243 26.3183 20.6654 26.744 20.5261C27.2889 20.3108 27.5535 19.7013 27.3349 19.1646C27.1165 18.6278 26.4979 18.3672 25.9531 18.5822C24.2354 19.2609 24.0486 19.1209 22.6849 18.5822C22.1405 18.3676 21.5216 18.6279 21.303 19.1645C21.0845 19.7014 21.3491 20.311 21.8939 20.5261Z" fill="black"/>
</svg>
