<svg width="325" height="178" viewBox="0 0 325 178" fill="none" xmlns="http://www.w3.org/2000/svg">
<path d="M0 177H55" stroke="#3F3D56" stroke-miterlimit="10"/>
<path d="M318.578 10H87.422C83.8752 10 81 12.367 81 15.2867V140.713C81 143.633 83.8752 146 87.422 146H318.578C322.125 146 325 143.633 325 140.713V15.2867C325 12.367 322.125 10 318.578 10Z" fill="#F2F2F2"/>
<path d="M311.552 1H79.4483C75.887 1 73 3.36695 73 6.28673V131.713C73 134.633 75.887 137 79.4483 137H311.552C315.113 137 318 134.633 318 131.713V6.28673C318 3.36695 315.113 1 311.552 1Z" stroke="#3F3D56" stroke-miterlimit="10"/>
<path d="M73 15H318" stroke="#3F3D56" stroke-miterlimit="10"/>
<path opacity="0.3" d="M283.636 44H221.364C220.058 44 219 44.9219 219 46.0591V50.9409C219 52.0781 220.058 53 221.364 53H283.636C284.942 53 286 52.0781 286 50.9409V46.0591C286 44.9219 284.942 44 283.636 44Z" fill="#6C63FF"/>
<path opacity="0.3" d="M296.627 69H208.373C207.062 69 206 69.7621 206 70.7022V73.2978C206 74.2379 207.062 75 208.373 75H296.627C297.938 75 299 74.2379 299 73.2978V70.7022C299 69.7621 297.938 69 296.627 69Z" fill="#6C63FF"/>
<path opacity="0.3" d="M296.627 86H208.373C207.062 86 206 86.8891 206 87.9859V91.0141C206 92.1109 207.062 93 208.373 93H296.627C297.938 93 299 92.1109 299 91.0141V87.9859C299 86.8891 297.938 86 296.627 86Z" fill="#6C63FF"/>
<path opacity="0.3" d="M296.627 105H208.373C207.062 105 206 105.889 206 106.986V110.014C206 111.111 207.062 112 208.373 112H296.627C297.938 112 299 111.111 299 110.014V106.986C299 105.889 297.938 105 296.627 105Z" fill="#6C63FF"/>
<path d="M286.671 42H225.329C224.043 42 223 42.9219 223 44.0591V48.9409C223 50.0781 224.043 51 225.329 51H286.671C287.957 51 289 50.0781 289 48.9409V44.0591C289 42.9219 287.957 42 286.671 42Z" stroke="#3F3D56" stroke-miterlimit="10"/>
<path d="M299.653 65H212.347C211.051 65 210 65.8891 210 66.9859V70.0141C210 71.1109 211.051 72 212.347 72H299.653C300.949 72 302 71.1109 302 70.0141V66.9859C302 65.8891 300.949 65 299.653 65Z" stroke="#3F3D56" stroke-miterlimit="10"/>
<path d="M299.653 84H212.347C211.051 84 210 84.8891 210 85.9859V89.0141C210 90.1109 211.051 91 212.347 91H299.653C300.949 91 302 90.1109 302 89.0141V85.9859C302 84.8891 300.949 84 299.653 84Z" stroke="#3F3D56" stroke-miterlimit="10"/>
<path d="M299.653 103H212.347C211.051 103 210 103.889 210 104.986V108.014C210 109.111 211.051 110 212.347 110H299.653C300.949 110 302 109.111 302 108.014V104.986C302 103.889 300.949 103 299.653 103Z" stroke="#3F3D56" stroke-miterlimit="10"/>
<path opacity="0.3" d="M92 13C94.7614 13 97 11.433 97 9.5C97 7.567 94.7614 6 92 6C89.2386 6 87 7.567 87 9.5C87 11.433 89.2386 13 92 13Z" fill="#6C63FF"/>
<path opacity="0.3" d="M105 13C107.761 13 110 11.433 110 9.5C110 7.567 107.761 6 105 6C102.239 6 100 7.567 100 9.5C100 11.433 102.239 13 105 13Z" fill="#6C63FF"/>
<path opacity="0.3" d="M120 13C122.761 13 125 11.433 125 9.5C125 7.567 122.761 6 120 6C117.239 6 115 7.567 115 9.5C115 11.433 117.239 13 120 13Z" fill="#6C63FF"/>
<path d="M93 12C95.7614 12 98 10.2091 98 8C98 5.79086 95.7614 4 93 4C90.2386 4 88 5.79086 88 8C88 10.2091 90.2386 12 93 12Z" stroke="#3F3D56" stroke-miterlimit="10"/>
<path d="M108 12C110.761 12 113 10.2091 113 8C113 5.79086 110.761 4 108 4C105.239 4 103 5.79086 103 8C103 10.2091 105.239 12 108 12Z" stroke="#3F3D56" stroke-miterlimit="10"/>
<path d="M122 12C124.761 12 127 10.2091 127 8C127 5.79086 124.761 4 122 4C119.239 4 117 5.79086 117 8C117 10.2091 119.239 12 122 12Z" stroke="#3F3D56" stroke-miterlimit="10"/>
<path d="M150 132C149.214 128.74 149.006 124.287 149.27 121.189C149.27 121.189 145.296 105.467 142.169 104L142.168 104.001C142.12 104.056 140.602 105.848 140.41 111.392C140.214 117.023 138 120.719 138 120.719C138 120.719 138.717 127.739 138.307 132L150 132Z" fill="#6C63FF"/>
<path d="M181.133 34H104.867C103.834 34 102.811 34.1697 101.856 34.4995C100.902 34.8293 100.035 35.3127 99.3042 35.9221C98.5737 36.5314 97.9942 37.2549 97.5988 38.051C97.2035 38.8472 97 39.7005 97 40.5623V125.438C97 126.299 97.2035 127.153 97.5988 127.949C97.9942 128.745 98.5737 129.469 99.3042 130.078C100.035 130.687 100.902 131.171 101.856 131.5C102.811 131.83 103.834 132 104.867 132H131.625C130.731 128.908 129.62 124.08 130.745 120.722L130.745 120.72L130.745 120.722C130.798 120.565 130.854 120.41 130.916 120.261C131.689 118.082 131.947 115.798 131.675 113.537C132.171 111.606 132.171 109.608 131.675 107.676C130.848 104.459 130.269 101.298 130.269 101.298C130.269 101.298 129.814 97.046 130.212 94.4395C130.22 94.3823 130.231 94.328 130.24 94.2724C130.1 94.2457 130.021 94.2304 130.021 94.2304C130.021 94.2304 131.192 89.8058 131.605 86.9901C131.703 86.3254 131.831 85.4827 131.971 84.5843C131.589 84.5314 131.213 84.452 130.848 84.3468C127.128 83.2551 125.957 73.3715 125.957 73.3715V70.2398C125.957 70.2398 124.717 65.4417 129.057 63.3156C133.236 61.2682 134.904 60.7079 135.022 60.6692C135.054 60.6502 135.085 60.633 135.118 60.612C135.59 60.3028 135.964 59.9014 136.206 59.4432C136.212 59.3643 136.213 59.2859 136.21 59.208C136.14 58.0854 135.203 57.0644 134.314 56.1735C133.556 55.4137 132.798 54.6539 132.039 53.8941C131.78 53.6677 131.58 53.3983 131.453 53.1032C131.405 52.9404 131.385 52.7728 131.392 52.6052C131.391 52.5432 131.391 52.4813 131.393 52.4194C131.405 51.8529 131.424 51.2865 131.448 50.7202C131.47 50.2254 131.619 49.6012 132.2 49.4995C132.502 49.4466 132.902 49.5388 133.061 49.3185C133.115 49.2277 133.129 49.1241 133.1 49.0257C133.098 49.0331 133.098 49.0407 133.095 49.0479C133.093 49.0387 133.091 49.0295 133.089 49.0204C132.97 48.6237 132.898 48.2181 132.874 47.8095C132.867 47.6251 132.899 47.4412 132.967 47.2657C133.304 46.4444 134.462 46.1074 135.486 45.9524C136.51 45.7975 137.659 45.6642 138.302 44.9815C138.474 44.7548 138.66 44.5361 138.861 44.3262C139.155 44.1027 139.518 43.9503 139.908 43.8854C141.179 43.6171 142.522 43.7165 143.716 44.1673C144.211 44.3558 144.709 44.6097 145.252 44.581C145.816 44.5512 146.298 44.2199 146.856 44.1392C147.755 44.0091 148.616 44.5715 149.059 45.2375C149.341 45.6611 149.482 46.1399 149.467 46.6241C149.478 47.1063 149.269 47.5739 148.883 47.933C148.496 48.2757 147.918 48.5111 147.757 48.9625C147.692 49.1463 147.707 49.3442 147.649 49.5297C147.642 49.5529 147.63 49.5745 147.621 49.597C147.631 49.6085 147.643 49.6194 147.653 49.6309C148.331 50.3755 148.785 51.2445 148.978 52.1653C149.17 53.0861 149.096 54.032 148.762 54.9241C148.427 55.8162 147.842 56.6285 147.054 57.2934C146.266 57.9583 145.3 58.4564 144.234 58.7461C144.232 58.8042 144.229 58.8624 144.229 58.9209C144.209 59.2831 144.283 59.6447 144.445 59.9812C144.607 60.3176 144.854 60.6211 145.169 60.8711L151.307 62.9708C151.307 62.9708 155.002 62.5972 156.335 67.1971C156.549 67.9617 156.626 68.7485 156.564 69.5318C156.515 70.2254 156.628 71.4465 157.575 73.0267C159.091 75.5551 158.746 81.3587 155.647 81.9334C152.71 82.4776 151.568 82.249 151.456 82.2233L151.449 82.3249C151.497 83.4139 151.962 92.8065 153.649 93.943C154.115 94.2573 154.026 94.4696 153.644 94.6127L153.644 94.6136C153.644 94.6136 153.648 94.6739 153.655 94.7825C153.705 95.4695 153.966 98.0855 155.095 99.5741C156.404 101.298 156.267 111.239 156.267 111.239L157.162 117.101C157.162 117.101 156.611 120.721 157.162 121.353C157.475 121.711 157.854 127.261 158.123 132H181.133C183.22 132 185.221 131.309 186.696 130.078C188.171 128.847 189 127.178 189 125.438V40.5623C189 39.7005 188.797 38.8472 188.401 38.051C188.006 37.2549 187.426 36.5314 186.696 35.9221C185.965 35.3127 185.098 34.8293 184.144 34.4995C183.189 34.1697 182.166 34 181.133 34Z" fill="#6C63FF"/>
<path d="M173.048 28H95.9524C91.5604 28 88 30.8781 88 34.4284V117.572C88 121.122 91.5604 124 95.9524 124H173.048C177.44 124 181 121.122 181 117.572V34.4284C181 30.8781 177.44 28 173.048 28Z" stroke="#3F3D56" stroke-miterlimit="10"/>
<path d="M33.978 62.3377C33.978 62.3377 30.8393 61.5326 30.1661 62.4086C29.4928 63.2847 31.0839 69.6354 31.0839 69.6354L38 70L35.5864 64.7126L33.978 62.3377Z" fill="#2F2E41"/>
<path d="M9.5513 111C9.5513 111 16.1672 122.348 11.0722 121.992C5.97717 121.635 4 111 4 111H9.5513Z" fill="#A0616A"/>
<path d="M50.6718 109.128C50.6718 109.128 48.4156 122.302 52.1726 120.895C55.9296 119.488 54.8589 108 54.8589 108L50.6718 109.128Z" fill="#A0616A"/>
<path d="M31.7274 60.0488C31.7274 60.0488 31.6597 65.6683 34.1646 65.961C36.6695 66.2537 32.7429 69.239 32.7429 69.239L28.2748 70L21.8434 69.5902L19 66.4293C19 66.4293 24.0097 64.3805 21.8434 58L31.7274 60.0488Z" fill="#A0616A"/>
<path opacity="0.1" d="M31.7274 60.0488C31.7274 60.0488 31.6597 65.6683 34.1646 65.961C36.6695 66.2537 32.7429 69.239 32.7429 69.239L28.2748 70L21.8434 69.5902L19 66.4293C19 66.4293 24.0097 64.3805 21.8434 58L31.7274 60.0488Z" fill="black"/>
<path d="M44.2392 107.01C44.2392 107.01 47.659 112.944 44.9668 131.566C44.9668 131.566 45.7672 138.145 45.1123 139.379C44.4575 140.613 39.0731 157.355 39.0731 157.355C39.0731 157.355 32.1608 158.589 31.2149 154.888C31.2149 154.888 32.1608 149.601 32.0881 148.778C32.0153 147.956 33.616 138.968 33.616 138.968L30.3418 121.579L27.8679 137.264C27.8679 137.264 27.8679 141.788 27.0675 142.786C26.2671 143.785 27.0675 163.876 27.0675 163.876C27.0675 163.876 29.3231 166.93 25.9033 166.989C22.4835 167.048 19.4276 166.93 19.1365 164.992C18.8454 163.053 18.6999 161.115 17.9723 159.94C17.2447 158.765 16.2988 145.312 16.5171 140.613C16.7354 135.913 11.7148 111.769 13.3156 109.243C14.9163 106.717 44.2392 107.01 44.2392 107.01Z" fill="#2F2E41"/>
<path d="M29 62C33.9706 62 38 58.866 38 55C38 51.134 33.9706 48 29 48C24.0294 48 20 51.134 20 55C20 58.866 24.0294 62 29 62Z" fill="#A0616A"/>
<path d="M19.3972 65.9952C19.3972 65.9952 24.5745 69.1634 32.0922 66.6406C32.0922 66.6406 34.5745 65.6432 34.3617 64.1178C34.1489 62.5925 39.539 76.3796 39.539 76.3796L45 100.375L44.7163 110.173C44.7163 110.173 42.305 109.175 34.7872 111.405C27.2695 113.634 15 108.882 15 108.882L15.4255 83.7132L15.8511 69.046L16.9858 65.8192C16.9858 65.8192 17.5532 64.9392 19.3972 65.9952Z" fill="#F2F2F2"/>
<path d="M32 62.0052C32 62.0052 33.2737 61.8368 34.4994 63.4214C35.7251 65.0059 38.6092 66.0036 38.6092 66.0036C38.6092 66.0036 45.6029 66.3558 46.6124 69.4076C47.6218 72.4594 50.1453 76.6262 51.371 84.3144C52.5967 92.0026 55.0482 104.268 55.4087 105.266C55.7692 106.264 54.904 109.316 55.9134 110.255C56.9228 111.194 48.7754 111.194 48.7754 111.194C48.7754 111.194 48.0544 106.381 47.5497 106.381C47.045 106.381 47.1892 109.609 47.6939 111.957C48.1986 114.304 44.0167 111.957 44.0167 111.957C44.0167 111.957 40.7722 101.217 37.6718 91.5331C34.5715 81.8495 32.769 76.5089 33.3458 74.3374C33.9226 72.1659 35.5088 65.945 34.3552 65.3581C33.2016 64.7712 32 62.0052 32 62.0052Z" fill="#2F2E41"/>
<path d="M21.6705 62C21.6705 62 19.8754 62.8335 15.3407 65.5887C10.806 68.344 7.71421 70.4543 7.71421 70.4543C7.71421 70.4543 5.92782 71.6268 4.82851 78.6028C3.7292 85.5788 1.25573 103.634 2.21764 105.92C3.17954 108.207 3.52307 109.555 3.17954 110.903C2.836 112.252 10.3938 112.193 10.5312 111.9C10.6686 111.607 10.3251 106.272 10.6686 106.155C11.0122 106.038 12.8673 109.321 13.2108 112.076C13.5543 114.831 17.5393 117 18.4326 117C19.3258 117 23.9291 101.114 23.9978 90.2685C24.0665 79.4235 22.4863 70.2785 21.3183 68.9888C20.1502 67.6991 21.6705 62 21.6705 62Z" fill="#2F2E41"/>
<path d="M34.9881 158.376C34.9881 158.376 35.5265 157.128 37.4112 157.525C39.2958 157.922 40.5747 156.505 40.5747 156.505C40.5747 156.505 41.5843 156.391 40.9112 157.469C40.2381 158.546 39.6997 159.283 39.6997 159.283C39.6997 159.283 43.7382 167.051 41.1132 168.922C38.4881 170.794 35.4592 169.66 35.4592 169.66C35.4592 169.66 32.4977 167.902 32.6323 163.252C32.6323 163.252 32.4977 161.778 30.8823 159.396C29.2668 157.015 28.0553 153.386 30.0072 152.706C31.9592 152.025 32.4616 152 32.4616 152C32.4616 152 31.5482 155.519 33.9076 156.749L34.9881 158.376Z" fill="#3F3D56"/>
<path d="M21.1355 167.118C21.1355 167.118 19.3773 164.502 22.3076 164.211C25.2379 163.921 28.388 163.746 28.2415 164.967C28.095 166.188 27.7287 168.048 27.7287 168.048L28.2415 169.385C28.2415 169.385 28.388 172.698 28.9008 173.105C29.4136 173.512 32.1974 177 26.2635 177C20.3297 177 18.5715 176.477 19.0843 175.372C19.5971 174.268 19.7436 168.804 19.7436 168.804L21.1355 167.118Z" fill="#3F3D56"/>
<path d="M25.4189 49.4192C25.4189 49.4192 29.31 50.3169 31.325 50.6759C33.34 51.035 33.1315 50.0176 33.1315 50.0176C33.1315 50.0176 35.7719 50.3169 35.6329 50.0775C35.4939 49.8381 36.7446 48.5814 35.2855 47.1451C33.8264 45.7089 34.2432 44.6317 34.2432 44.6317H32.9926L32.6451 44.2128H30.6996C30.6996 44.2128 29.2405 43.734 25.4189 44.2128C21.5973 44.6915 16.3861 44.8112 15.9692 46.7861C15.5523 48.7609 13.3984 51.2145 14.1627 52.3516C14.927 53.4886 19.3044 58.1564 19.7213 60.1313C20.1382 62.1061 22.0848 62.5449 22.0148 61.3082C21.9448 60.0714 19.9992 55.7627 21.6668 55.5831C23.3344 55.4036 26.1832 51.7531 25.4189 49.4192Z" fill="#2F2E41"/>
</svg>
