<svg width="89" height="93" viewBox="0 0 89 93" fill="none" xmlns="http://www.w3.org/2000/svg">
<path d="M83.7712 18.7585H89V24.2071H83.7712V18.7585Z" fill="black"/>
<path d="M83.7712 31.2642H89V36.7127H83.7712V31.2642Z" fill="black"/>
<path d="M65.8259 25.0114H60.4131L55.9247 43.7713H47.1036V40.2409C47.1036 36.1213 44.4332 32.6432 40.806 31.5918C40.1865 29.2591 38.6876 27.3058 36.7059 26.1483C37.1262 25.7203 37.5253 25.264 37.8991 24.7791C39.4259 22.7987 40.446 20.4408 40.8804 17.9544H44.4964V12.5058H40.8814C39.6484 5.40391 33.6908 0 26.544 0C19.3973 0 13.4397 5.40409 12.2066 12.5058H8.59146V17.9544H12.2066C12.7592 21.1364 14.259 23.9762 16.3914 26.1427C14.2677 27.3795 12.6963 29.5294 12.1656 32.0813C11.0765 31.5584 9.86656 31.2644 8.59146 31.2644C3.85416 31.2642 0 35.2914 0 40.2415V80.4831C1.23304 87.585 7.42882 92.9889 14.5755 92.9889H44.4959C52.5333 92.9889 59.072 86.1566 59.072 77.7583V61.3008C62.5383 60.1448 65.0562 56.7483 65.0562 52.7478C65.0562 49.5268 63.4236 46.6979 60.9784 45.114L64.4847 30.46H65.826V33.9887H71.0405V21.4831H65.826V25.0114H65.8259ZM26.5439 5.44841C30.8009 5.44841 34.4008 8.43387 35.5328 12.5056H17.5551C18.6871 8.43387 22.287 5.44841 26.5439 5.44841ZM35.5391 17.9542C35.1998 19.1843 34.6292 20.3354 33.8387 21.3607C32.0498 23.6807 29.3911 25.0114 26.5439 25.0114C22.287 25.0114 18.6871 22.0259 17.5551 17.9544H35.5391V17.9542ZM5.21443 40.2415C5.21443 38.2958 6.72939 36.7128 8.59146 36.7128C10.4535 36.7128 11.9685 38.2958 11.9685 40.2415V75.0345H5.21443V40.2415ZM5.58656 80.4831H11.9683V87.1515C8.89998 86.2199 6.47806 83.6894 5.58656 80.4831ZM29.1511 87.5405V77.759H23.9367V87.5405H17.1828V33.9885C17.1828 32.0428 18.6975 30.4598 20.5596 30.4598H32.5279C33.6553 30.4598 34.6526 31.0417 35.2653 31.9316C32.1334 33.2725 29.9207 36.491 29.9207 40.2407V52.7476C29.9207 56.7482 32.4386 60.1446 35.905 61.3006V87.5401H29.1511V87.5405ZM44.4959 87.5405H41.1196V61.7245H53.8575V77.7583C53.8575 83.1522 49.658 87.5405 44.4959 87.5405ZM56.4655 56.2759H38.5117C36.6499 56.2759 35.1353 54.6931 35.1353 52.7478V40.2409C35.1353 38.2956 36.6499 36.7128 38.5129 36.7128C40.3746 36.7128 41.8892 38.2956 41.8892 40.2409V49.2198H56.4655C58.3272 49.2198 59.8418 50.8027 59.8418 52.748C59.8418 54.6933 58.3272 56.2759 56.4655 56.2759Z" fill="black"/>
<path d="M75.1761 25.0115H80.405V30.4601H75.1761V25.0115Z" fill="black"/>
</svg>
