<svg width="79" height="105" viewBox="0 0 79 105" fill="none" xmlns="http://www.w3.org/2000/svg">
<path d="M18.9304 10.1506H9.46518C7.72517 10.1506 6.31012 11.6682 6.31012 13.5342V23.6849C6.31012 25.5509 7.72517 27.0685 9.46518 27.0685H18.9304C20.6704 27.0685 22.0854 25.5509 22.0854 23.6849V13.5342C22.0854 11.6682 20.6704 10.1506 18.9304 10.1506ZM9.46518 23.6849V13.5342H18.9304L18.9319 23.6849H9.46518Z" fill="black"/>
<path d="M12.6202 30.4521H15.7753V33.8357H12.6202V30.4521Z" fill="black"/>
<path d="M18.9304 30.4521H22.0855V33.8357H18.9304V30.4521Z" fill="black"/>
<path d="M6.31012 30.4521H9.46518V33.8357H6.31012V30.4521Z" fill="black"/>
<path d="M61.5237 10.1506H42.5934C39.9841 10.1506 37.8608 12.4278 37.8608 15.226V25.6998C37.8608 28.3204 39.8485 30.452 42.292 30.452C42.5997 30.452 42.912 30.4165 43.2196 30.3472L62.5144 25.9113C64.682 25.4139 66.2563 23.3279 66.2563 20.9493V15.226C66.2563 12.4278 64.133 10.1506 61.5237 10.1506ZM63.1013 20.9493C63.1013 21.741 62.576 22.4364 61.8534 22.6039L42.5618 27.0363C41.7541 27.2207 41.0158 26.5508 41.0158 25.6998V15.226C41.0158 14.2938 41.7241 13.5342 42.5934 13.5342H61.5237C62.393 13.5342 63.1013 14.2938 63.1013 15.226V20.9493Z" fill="black"/>
<path d="M44.1709 16.9177H47.3259V20.3013H44.1709V16.9177Z" fill="black"/>
<path d="M50.481 16.9177H53.6361V20.3013H50.481V16.9177Z" fill="black"/>
<path d="M56.7911 16.9177H59.9462V20.3013H56.7911V16.9177Z" fill="black"/>
<path d="M74.144 3.38357H29.4115C26.9742 1.27222 23.8775 0 20.5079 0H14.1978C6.37007 0 0 6.83143 0 15.2261V35.5275C0 38.3257 2.12336 40.6028 4.73259 40.6028H6.28489C6.22179 54.5736 5.392 68.6628 3.77819 82.5168L3.23394 87.1895C3.18188 87.6395 3.15506 88.0946 3.15506 88.5497C3.15506 90.7202 3.74822 92.8231 4.87142 94.63L6.47261 97.2048C7.6952 101.742 11.5365 104.891 15.9694 104.891H34.5117C38.9445 104.891 42.7858 101.742 44.0084 97.2048L45.5812 94.6739C46.7233 92.8383 47.3259 90.7016 47.3259 88.4955C47.3259 88.0844 47.3054 87.6733 47.2613 87.2656L44.2545 58.2448C44.1993 57.7 44.1709 57.1535 44.1709 56.6054C44.1709 49.9364 48.3608 44.0541 54.3602 42.298L75.3887 36.1467C77.441 35.5461 78.875 33.5329 78.875 31.2489V8.45892C78.8766 5.66071 76.7532 3.38357 74.144 3.38357ZM31.5506 15.2261V35.5275C31.5506 36.4596 30.8423 37.2193 29.9731 37.2193H28.3956V15.2261C28.3956 10.7175 26.5593 6.66225 23.6472 3.8708C28.211 5.32405 31.5506 9.86479 31.5506 15.2261ZM3.15506 35.5275V15.2261C3.15506 8.69577 8.10851 3.38357 14.1978 3.38357C20.2871 3.38357 25.2405 8.69577 25.2405 15.2261V37.2193H4.73259C3.86337 37.2193 3.15506 36.4596 3.15506 35.5275ZM8.73164 94.7399L7.49643 92.7538C7.22194 92.3139 7.01213 91.8419 6.83071 91.3564H12.6203V87.9728H6.34325C6.35114 87.8527 6.35114 87.7309 6.36376 87.6107L6.71713 84.5892H15.7753V81.2056H7.08627C7.21247 80.0806 7.31501 78.9505 7.43017 77.8221H18.9304V74.4385H7.77408C8.35934 68.1975 8.77739 61.9295 9.05503 55.6546C10.8376 56.8643 12.9011 57.5207 15.0623 57.5207C16.8054 57.5207 18.5502 57.0791 20.1072 56.2434L29.2664 51.3321C29.9731 50.9532 30.7619 50.7535 31.5506 50.7535C33.2906 50.7535 34.7057 52.2711 34.7057 54.1371C34.7057 54.8646 34.4817 55.5853 34.0747 56.1672L32.2227 58.8183C24.8793 69.3158 20.3833 81.7098 19.1071 94.7399H8.73164ZM34.5117 101.507H15.9694C13.5983 101.507 11.4734 100.184 10.2634 98.1235H40.2176C39.0076 100.184 36.8827 101.507 34.5117 101.507ZM53.5304 39.0345C46.1617 41.1899 41.0158 48.4155 41.0158 56.6054C41.0158 57.277 41.0505 57.9487 41.1199 58.6169L44.1267 87.6412C44.1567 87.9254 44.1709 88.2096 44.1709 88.4955C44.1709 90.0317 43.7513 91.5205 42.9562 92.7978L41.7494 94.7399H22.2826C23.5462 82.4491 27.8119 70.7606 34.7451 60.8484L36.5987 58.1974C37.4127 57.0334 37.8608 55.592 37.8608 54.1371C37.8608 50.405 35.0307 47.37 31.5506 47.37C30.276 47.37 28.9982 47.6931 27.8561 48.3055L18.6953 53.2168C17.5737 53.819 16.318 54.1371 15.0623 54.1371C12.8916 54.1371 10.8518 53.2303 9.31532 51.5842L9.23487 51.4979C9.35634 47.8606 9.4226 44.2283 9.43995 40.6011H29.9731C32.5823 40.6011 34.7057 38.324 34.7057 35.5258V15.2261C34.7057 12.0979 33.8191 9.18808 32.3047 6.76714H69.4114V34.3889L53.5304 39.0345ZM75.7215 31.2506C75.7215 32.0119 75.2435 32.6836 74.5589 32.8832L72.5665 33.4669V6.76714H74.144C75.0132 6.76714 75.7215 7.52675 75.7215 8.45892V31.2506Z" fill="black"/>
</svg>
