<svg width="93" height="92" viewBox="0 0 93 92" fill="none" xmlns="http://www.w3.org/2000/svg">
<path d="M83.4894 46.7781L60.4885 32.7523V0H2.56018V20.0549L0.27576 19.8656V21.8803L0.213087 33.3588L0.175483 33.3558V39.9028L0 71.5102L2.56018 71.8859V92H60.4885V80.4268L90.2236 84.9502L93 52.2393L83.4894 46.7781ZM32.8123 3.80745C33.5832 3.80745 34.2099 4.39913 34.2099 5.12689C34.2099 5.85465 33.5832 6.44633 32.8123 6.44633C32.0351 6.44633 31.4115 5.85465 31.4115 5.12689C31.4115 4.39913 32.0383 3.80745 32.8123 3.80745ZM24.4799 8.22136H41.1415V9.49051H24.4799V8.22136ZM3.45013 23.1376L13.4464 23.9718L13.5718 28.6135H3.45013V23.1376ZM3.34672 39.9442L3.36552 36.5184L13.5467 37.0479L13.672 41.6955L3.34672 42.0062V39.9442ZM3.45326 50.7157L13.4558 50.1092L13.578 54.6089L3.4564 55.5852L3.45326 50.7157ZM8.92146 69.7884L10.1561 69.5695L8.92146 69.7884ZM3.40313 67.7264V63.4279L11.4158 62.7297L11.5036 66.2768L3.40313 67.7264ZM32.2639 88.0239C30.4182 88.0239 28.9234 86.6069 28.9234 84.8703C28.9234 83.1337 30.4182 81.7226 32.2639 81.7226C34.1033 81.7226 35.6012 83.1337 35.6012 84.8703C35.6012 86.6069 34.1033 88.0239 32.2639 88.0239ZM51.1942 77.1903C36.1465 77.2643 19.3157 77.3234 11.8514 77.2583V69.2618L14.7406 68.7471L14.5056 59.4429L3.23078 60.4251L11.8483 59.6737V57.7774L16.8182 57.304L16.5362 46.9112L11.8451 47.1982V44.7427L16.9185 44.5888L16.6365 34.199L11.8451 33.9564V31.6134L5.47759 31.6074L16.8213 31.6134L16.5393 21.2235L11.8451 20.83V14.005L51.1879 13.9932V33.3056L29.4311 38.6366C28.7198 38.8111 28.2278 39.4235 28.2434 40.1158L28.4095 47.4082C28.4252 48.1537 29.0237 48.7779 29.8071 48.8608L51.1879 51.2719V77.1873H51.1942V77.1903ZM87.3375 81.4711L60.4885 77.3856V58.3631L64.1518 63.1232L66.7151 61.357L57.5555 49.4643C57.2985 49.1241 56.9005 48.9051 56.4587 48.8548L31.5526 46.0503L31.4429 41.2429L57.9284 34.7581L83.1322 50.1299L83.1572 50.0944L89.6752 53.8397L87.3375 81.4711Z" fill="black"/>
</svg>
