<svg width="92" height="104" viewBox="0 0 92 104" fill="none" xmlns="http://www.w3.org/2000/svg">
<path d="M63.3092 29.1497L63.5901 28.8544C63.8893 28.5287 64.0549 28.0924 64.0512 27.6396C64.0474 27.1867 63.8747 26.7536 63.5701 26.4333C63.2655 26.1131 62.8534 25.9315 62.4227 25.9276C61.9919 25.9236 61.5769 26.0977 61.2671 26.4123L60.9862 26.7076C60.5285 27.1891 59.985 27.5711 59.3868 27.8316C58.7887 28.0922 58.1475 28.2264 57.5 28.2264C56.8525 28.2264 56.2114 28.0922 55.6132 27.8316C55.015 27.5711 54.4716 27.1891 54.0139 26.7076L53.7329 26.4123C53.4231 26.0977 53.0081 25.9236 52.5773 25.9276C52.1466 25.9315 51.7345 26.1131 51.4299 26.4333C51.1253 26.7536 50.9526 27.1867 50.9488 27.6396C50.9451 28.0924 51.1107 28.5287 51.4099 28.8544L51.6909 29.1497C52.4537 29.9518 53.3593 30.5881 54.356 31.0222C55.3528 31.4564 56.4211 31.6798 57.5 31.6798C58.5789 31.6798 59.6472 31.4564 60.644 31.0222C61.6407 30.5881 62.5464 29.9518 63.3092 29.1497Z" fill="black"/>
<path d="M73.9286 82.9H60.7857V77.7188H62.4286C63.7345 77.7147 64.9858 77.1674 65.9093 76.1967C66.8327 75.2259 67.3532 73.9104 67.3571 72.5375V70.2232C69.1396 69.0763 70.6694 67.5436 71.8449 65.7272C73.0204 63.9107 73.8147 61.8521 74.175 59.688L77.1814 41.7436C77.2095 41.6487 77.2206 41.5492 77.2143 41.45C77.2099 40.308 76.8467 39.1995 76.1812 38.2969C75.5157 37.3942 74.5852 36.748 73.5343 36.4587L72.2857 32.5382V22.4521C72.2764 20.3947 71.5652 18.4092 70.2814 16.8563C72.7352 16.1763 74.9063 14.6628 76.4573 12.5514C78.0082 10.44 78.8519 7.84891 78.8571 5.18125V1.72708C78.8571 1.26903 78.6841 0.829742 78.376 0.505851C78.0679 0.18196 77.65 0 77.2143 0H34.5C29.7081 0.00320268 25.1133 2.00579 21.7249 5.5679C18.3365 9.13 16.4316 13.9603 16.4286 18.9979V50.4308C16.4384 56.1853 18.2643 61.7737 21.62 66.32C21.688 66.4144 21.7651 66.5012 21.85 66.5791L31.2143 75.059V82.9H18.0714C13.2795 82.9032 8.68475 84.9058 5.29636 88.4679C1.90797 92.03 0.00304649 96.8603 0 101.898C0 102.356 0.173087 102.795 0.481182 103.119C0.789278 103.443 1.20714 103.625 1.64286 103.625C2.07857 103.625 2.49644 103.443 2.80453 103.119C3.11263 102.795 3.28571 102.356 3.28571 101.898C3.2918 97.7774 4.85153 93.8275 7.62307 90.9139C10.3946 88.0003 14.1519 86.3606 18.0714 86.3542H31.625C33.2514 89.7565 39.6586 91.5354 46 91.5354C52.3414 91.5354 58.7486 89.7565 60.375 86.3542H73.9286C77.8481 86.3606 81.6054 88.0003 84.3769 90.9139C87.1485 93.8275 88.7082 97.7774 88.7143 101.898C88.7143 102.356 88.8874 102.795 89.1955 103.119C89.5036 103.443 89.9214 103.625 90.3571 103.625C90.7929 103.625 91.2107 103.443 91.5188 103.119C91.8269 102.795 92 102.356 92 101.898C91.997 96.8603 90.092 92.03 86.7036 88.4679C83.3152 84.9058 78.7205 82.9032 73.9286 82.9ZM72.2857 39.7229C72.7022 39.7218 73.1036 39.8871 73.4086 40.1853C73.7135 40.4835 73.8994 40.8923 73.9286 41.3291L70.9386 59.1008C70.472 61.8995 69.0808 64.4353 67.0101 66.2615C64.9394 68.0876 62.3221 69.0869 59.6193 69.0833H57.5C56.1941 69.0792 54.9427 68.532 54.0193 67.5612C53.0958 66.5905 52.5753 65.275 52.5714 63.9021V41.45C52.5714 40.9919 52.7445 40.5527 53.0526 40.2288C53.3607 39.9049 53.7786 39.7229 54.2143 39.7229H72.2857ZM69.0821 33.3672L70.0021 36.2687H54.2143C53.267 36.2744 52.3411 36.5654 51.5462 37.1072C50.7514 37.649 50.1208 38.4188 49.7293 39.3257L34.5 34.9562V20.725C34.5026 19.8097 34.8496 18.9327 35.4652 18.2856C36.0809 17.6384 36.9151 17.2736 37.7857 17.2708H64.0714C65.3774 17.2749 66.6287 17.8221 67.5521 18.7929C68.4756 19.7637 68.9961 21.0792 69 22.4521V32.8146C69.0032 33.0019 69.0308 33.1878 69.0821 33.3672ZM31.2143 70.4995L24.1171 64.0748C21.2697 60.1554 19.7231 55.3626 19.7143 50.4308V18.9979C19.7204 14.8774 21.2801 10.9275 24.0516 8.01389C26.8232 5.10026 30.5805 3.46056 34.5 3.45417H75.5714V5.18125C75.5714 7.4715 74.706 9.66796 73.1655 11.2874C71.625 12.9069 69.5357 13.8167 67.3571 13.8167H37.7857C36.0429 13.8167 34.3714 14.5445 33.139 15.8401C31.9066 17.1356 31.2143 18.8928 31.2143 20.725V36.2687H28.7336C27.9955 36.2684 27.2667 36.4424 26.6011 36.7778C25.9355 37.1132 25.3501 37.6015 24.8881 38.2066C24.426 38.8117 24.0992 39.5181 23.9316 40.2738C23.764 41.0295 23.7601 41.8151 23.92 42.5726L25.4643 49.8609C25.7617 51.2775 26.4783 52.5587 27.5113 53.5206C28.5444 54.4825 29.8407 55.0756 31.2143 55.2149V70.4995ZM31.8879 51.8125C31.1366 51.8177 30.4066 51.5511 29.8202 51.0574C29.2339 50.5636 28.827 49.8728 28.6679 49.101L27.14 41.83C27.0833 41.5764 27.082 41.3126 27.1361 41.0583C27.1901 40.8041 27.2982 40.566 27.4521 40.3619C27.6084 40.1636 27.8042 40.0036 28.0255 39.8932C28.2469 39.7828 28.4886 39.7247 28.7336 39.7229H32.8571C33.2057 39.7202 33.5442 39.5994 33.8224 39.3786C34.1006 39.1577 34.3036 38.8484 34.4014 38.4967L49.2857 42.7626V61.536L34.5 55.8366V55.2667C34.9357 55.2667 35.3536 55.0847 35.6617 54.7608C35.9698 54.4369 36.1429 53.9976 36.1429 53.5396C36.1429 53.0815 35.9698 52.6422 35.6617 52.3183C35.3536 51.9945 34.9357 51.8125 34.5 51.8125H31.8879ZM49.2857 74.2646C48.85 74.2646 48.4321 74.4465 48.124 74.7704C47.8159 75.0943 47.6429 75.5336 47.6429 75.9917C47.6429 76.4497 47.8159 76.889 48.124 77.2129C48.4321 77.5368 48.85 77.7188 49.2857 77.7188H57.5V84.6271C57.5 85.6288 53.475 88.0813 46 88.0813C38.525 88.0813 34.5 85.6288 34.5 84.6271V59.5153L49.4171 65.2665C49.7222 67.2908 50.7034 69.1345 52.1847 70.467C53.666 71.7995 55.5504 72.5336 57.5 72.5375H59.6193C61.1298 72.5353 62.6311 72.2907 64.0714 71.8121V72.5375C64.0714 72.9956 63.8983 73.4348 63.5903 73.7587C63.2822 74.0826 62.8643 74.2646 62.4286 74.2646H49.2857Z" fill="black"/>
</svg>
