<svg width="93" height="100" viewBox="0 0 93 100" fill="none" xmlns="http://www.w3.org/2000/svg">
<path d="M81.9234 23.4327V17.5746H87.3709V0C81.12 0 62.0918 0 54.6857 0C48.6782 0 43.7907 5.25557 43.7907 11.7164L49.2382 11.7156C49.2382 8.48578 51.682 5.85818 54.6857 5.85818H71.0283V17.5746H76.4758V23.4327H65.5808V35.4438C59.3721 36.8044 54.6857 42.7218 54.6857 49.7946V69.4136C54.4998 69.5763 54.3135 69.7397 54.1254 69.9055C53.097 70.631 51.9963 71.2019 50.8474 71.614C50.8784 71.4521 50.9053 71.2886 50.9238 71.1223C51.1617 68.9743 50.4501 65.8431 45.7091 63.1259C42.0916 61.0522 36.4757 59.4295 29.0175 58.3024L28.9033 58.2878C17.5196 57.0911 11.3459 66.3484 6.83755 73.1074C5.16117 75.6208 3.57757 77.9947 2.10402 79.2974L0 81.157L13.8367 99.2589L15.9407 97.399C20.6924 93.199 27.8296 93.5544 35.3857 93.9299C42.091 94.2639 48.9822 94.604 54.6857 91.6558V99.9797H93C93 97.1965 93 24.6858 93 23.4327H81.9234ZM76.4758 5.85818H81.9234V11.7164H76.4758V5.85818ZM35.6375 88.078C28.3173 87.7138 20.7758 87.3387 14.7196 91.1885L7.51831 81.7674C8.7885 80.2333 10.0029 78.4124 11.264 76.5216C15.6064 70.0114 20.0954 63.2788 28.3184 64.1122C36.355 65.3313 40.5755 66.9261 42.7019 68.0504C44.9895 69.26 45.5021 70.2387 45.5145 70.4293C45.4431 70.967 43.73 72.1877 42.0424 72.0112L28.9538 70.636L28.4241 76.4663L44.4516 78.1503C45.1028 78.2187 45.7512 78.2525 46.3971 78.2525C50.9302 78.2525 55.2871 76.5809 58.8349 73.4448C58.8535 73.4304 68.0118 65.045 73.5364 62.6467C70.4877 68.7614 59.5273 80.0832 54.7308 84.7396C50.114 88.7982 43.0812 88.4481 35.6375 88.078ZM87.5525 94.1215H60.1333V87.3596C65.1927 82.3042 73.3292 73.7038 77.1588 67.5148C78.2543 65.7447 81.164 61.0421 78.5027 57.8543C77.571 56.7381 75.7533 55.6604 72.3855 56.8648C68.5769 58.227 63.356 62.2227 60.1331 64.8216V49.7946C60.1331 44.9493 63.7987 41.0073 68.3044 41.0073H87.5523V94.1215H87.5525ZM71.0283 35.1491V29.2909H87.5525V35.1491H71.0283Z" fill="black"/>
<path d="M46.5144 41.0066C51.0201 41.0066 54.6857 37.0646 54.6857 32.2193C54.6857 31.0129 54.3652 28.8149 51.5943 23.6781C50.1946 21.0833 48.8137 18.9287 48.7556 18.8383L46.5144 15.3491L44.2733 18.8383C44.2152 18.9287 42.8343 21.0833 41.4346 23.6781C38.6636 28.8149 38.3431 31.0129 38.3431 32.2193C38.3431 37.0646 42.0088 41.0066 46.5144 41.0066ZM46.5144 25.9327C48.0824 28.7739 49.215 31.3252 49.2382 32.2217C49.2371 33.8358 48.0156 35.1484 46.5144 35.1484C45.0126 35.1484 43.7907 33.8344 43.7907 32.2228C43.8128 31.3273 44.9459 28.7749 46.5144 25.9327Z" fill="black"/>
</svg>
