<svg width="330" height="207" viewBox="0 0 330 207" fill="none" xmlns="http://www.w3.org/2000/svg">
<path d="M65.7503 206.999C102.063 206.999 131.501 204.837 131.501 202.17C131.501 199.504 102.063 197.342 65.7503 197.342C29.4374 197.342 0 199.504 0 202.17C0 204.837 29.4374 206.999 65.7503 206.999Z" fill="#E6E6E6"/>
<path d="M50.2583 34.2584C61.7009 29.5525 75.9527 32.5341 89.8712 34.6034C90.0007 32.0975 91.5706 29.0476 89.9261 27.2993C87.9282 25.1752 88.1121 22.9435 89.3144 20.6989C92.3888 14.9591 87.984 8.85163 83.5365 3.77334C82.5341 2.6313 81.2672 1.73398 79.8388 1.15427C78.4104 0.574562 76.8606 0.328811 75.3155 0.436973L67.077 1.00597C65.0722 1.14442 63.159 1.87157 61.5933 3.09012C60.0276 4.30867 58.8842 5.9605 58.316 7.82458C56.3488 10.4115 55.2959 12.9912 55.9588 15.5575C53.0122 17.5045 52.5172 19.8548 53.8412 22.5042C54.964 24.1724 54.952 25.7962 53.7902 27.3751C52.2643 29.3881 51.0956 31.6326 50.332 34.0167L50.2583 34.2584Z" fill="#2F2E41"/>
<path d="M322.18 176.914H88.9673C86.8934 176.914 84.9044 176.118 83.4379 174.7C81.9714 173.282 81.1476 171.359 81.1476 169.354C165.687 159.854 248.638 159.854 330 169.354C330 171.359 329.176 173.282 327.71 174.7C326.243 176.118 324.254 176.914 322.18 176.914Z" fill="#2F2E41"/>
<path d="M330 169.8L81.1476 169.355L109.989 122.433L110.127 122.21V18.7982C110.127 17.543 110.382 16.3001 110.879 15.1404C111.376 13.9807 112.104 12.927 113.022 12.0395C113.94 11.1519 115.029 10.4479 116.229 9.96758C117.428 9.48728 118.714 9.24013 120.012 9.24023H289.756C291.054 9.24013 292.339 9.48728 293.539 9.96758C294.738 10.4479 295.828 11.1519 296.746 12.0395C297.664 12.927 298.392 13.9807 298.889 15.1404C299.385 16.3001 299.641 17.543 299.641 18.7982V122.922L330 169.8Z" fill="#3F3D56"/>
<path d="M119.786 15.9121C118.933 15.913 118.114 16.2413 117.511 16.825C116.907 17.4087 116.567 18.2 116.566 19.0255V113.315C116.567 114.141 116.907 114.932 117.511 115.516C118.114 116.099 118.933 116.428 119.786 116.429H291.361C292.215 116.428 293.033 116.099 293.637 115.516C294.24 114.932 294.58 114.141 294.581 113.315V19.0255C294.58 18.2 294.241 17.4087 293.637 16.8251C293.033 16.2414 292.215 15.9131 291.361 15.9121H119.786Z" fill="white"/>
<path d="M120.505 128.881C120.242 128.881 119.983 128.955 119.761 129.092C119.539 129.23 119.362 129.426 119.252 129.657L110.365 148.338C110.268 148.541 110.226 148.764 110.242 148.988C110.258 149.211 110.332 149.427 110.456 149.615C110.581 149.803 110.753 149.958 110.956 150.066C111.159 150.173 111.387 150.23 111.618 150.23H298.504C298.739 150.23 298.971 150.171 299.176 150.061C299.381 149.95 299.554 149.79 299.678 149.597C299.801 149.403 299.872 149.182 299.882 148.955C299.893 148.728 299.843 148.502 299.738 148.298L290.078 129.618C289.964 129.396 289.788 129.21 289.57 129.079C289.352 128.949 289.101 128.88 288.844 128.881H120.505Z" fill="#2F2E41"/>
<path d="M204.884 14.3544C206.027 14.3544 206.954 13.4584 206.954 12.353C206.954 11.2476 206.027 10.3516 204.884 10.3516C203.741 10.3516 202.814 11.2476 202.814 12.353C202.814 13.4584 203.741 14.3544 204.884 14.3544Z" fill="white"/>
<path d="M186.514 153.787C186.211 153.787 185.916 153.884 185.676 154.063C185.435 154.241 185.261 154.491 185.182 154.774L182.953 162.78C182.898 162.978 182.891 163.185 182.932 163.386C182.973 163.587 183.061 163.776 183.19 163.939C183.319 164.101 183.485 164.233 183.675 164.324C183.864 164.414 184.073 164.461 184.285 164.461H226.679C226.899 164.461 227.116 164.411 227.312 164.313C227.507 164.216 227.676 164.074 227.803 163.901C227.931 163.728 228.014 163.527 228.045 163.317C228.076 163.106 228.055 162.892 227.983 162.691L225.117 154.685C225.023 154.423 224.847 154.196 224.613 154.035C224.38 153.874 224.1 153.787 223.813 153.787H186.514Z" fill="#2F2E41"/>
<path d="M299.641 120.652V122.431H109.989L110.131 122.209V120.652H299.641Z" fill="#2F2E41"/>
<path d="M271.873 84.4448H139.274C138.623 84.4441 137.999 84.1937 137.539 83.7486C137.078 83.3035 136.819 82.7 136.819 82.0705V50.2669C136.819 49.6374 137.078 49.0339 137.539 48.5888C137.999 48.1437 138.623 47.8933 139.274 47.8926H271.873C272.524 47.8933 273.148 48.1437 273.609 48.5888C274.069 49.0339 274.328 49.6374 274.329 50.2669V82.0705C274.328 82.7 274.069 83.3035 273.609 83.7486C273.148 84.1937 272.524 84.4441 271.873 84.4448ZM139.274 48.8423C138.884 48.8427 138.509 48.9929 138.233 49.26C137.957 49.5271 137.801 49.8892 137.801 50.2669V82.0705C137.801 82.4482 137.957 82.8103 138.233 83.0774C138.509 83.3445 138.884 83.4947 139.274 83.4951H271.873C272.264 83.4947 272.638 83.3445 272.915 83.0774C273.191 82.8103 273.346 82.4482 273.347 82.0705V50.2669C273.346 49.8892 273.191 49.527 272.915 49.26C272.638 48.9929 272.264 48.8427 271.873 48.8423L139.274 48.8423Z" fill="#E6E6E6"/>
<path d="M159.877 74.6204C165.402 74.6204 169.88 70.2903 169.88 64.9489C169.88 59.6074 165.402 55.2773 159.877 55.2773C154.353 55.2773 149.875 59.6074 149.875 64.9489C149.875 70.2903 154.353 74.6204 159.877 74.6204Z" fill="#E6E6E6"/>
<path d="M182.979 58.5C182.759 58.4997 182.542 58.5411 182.34 58.622C182.137 58.7028 181.953 58.8215 181.798 58.9712C181.643 59.1209 181.52 59.2987 181.436 59.4945C181.352 59.6902 181.309 59.9 181.309 60.1119C181.309 60.3238 181.352 60.5336 181.436 60.7294C181.52 60.9251 181.643 61.1029 181.798 61.2526C181.953 61.4023 182.137 61.521 182.34 61.6019C182.542 61.6827 182.759 61.7242 182.979 61.7238H261.57C262.012 61.7238 262.436 61.554 262.749 61.2517C263.061 60.9494 263.237 60.5394 263.237 60.1119C263.237 59.6844 263.061 59.2744 262.749 58.9721C262.436 58.6698 262.012 58.5 261.57 58.5H182.979Z" fill="#E6E6E6"/>
<path d="M182.979 68.1738C182.536 68.1738 182.112 68.3437 181.8 68.6459C181.487 68.9482 181.311 69.3582 181.311 69.7857C181.311 70.2133 181.487 70.6233 181.8 70.9256C182.112 71.2278 182.536 71.3977 182.979 71.3977H216.797C217.239 71.3977 217.663 71.2278 217.975 70.9256C218.288 70.6233 218.464 70.2133 218.464 69.7857C218.464 69.3582 218.288 68.9482 217.975 68.6459C217.663 68.3437 217.239 68.1738 216.797 68.1738H182.979Z" fill="#E6E6E6"/>
<path d="M109.662 68.824L85.1504 81.4244L84.8401 70.9241C92.8406 69.6327 100.452 67.3843 107.49 63.7238L110.054 57.5997C110.333 56.9324 110.787 56.3468 111.372 55.9004C111.956 55.454 112.65 55.1621 113.386 55.0534C114.122 54.9448 114.874 55.023 115.57 55.2805C116.265 55.538 116.879 55.9659 117.352 56.5222C118.043 57.3361 118.389 58.3737 118.319 59.4248C118.248 60.4759 117.768 61.4619 116.974 62.1831L109.662 68.824Z" fill="#FFB8B8"/>
<path d="M49.7697 141.575C49.5909 140.94 49.5529 140.277 49.6583 139.627C49.7637 138.978 50.0101 138.358 50.3812 137.807L55.7657 129.817C57.0393 127.927 58.9935 126.562 61.2492 125.987C63.5049 125.411 65.9012 125.666 67.9732 126.703C65.7103 130.427 66.0257 133.695 68.7548 136.534C64.5183 138.534 60.6027 141.115 57.1294 144.197C56.4954 144.615 55.7672 144.881 55.0055 144.971C54.2439 145.062 53.4709 144.976 52.7508 144.719C52.0308 144.462 51.3846 144.043 50.866 143.496C50.3475 142.949 49.9716 142.29 49.7697 141.575Z" fill="#2F2E41"/>
<path d="M110.779 131.129C109.964 132.442 108.814 133.531 107.439 134.29C106.063 135.05 104.509 135.455 102.926 135.466L67.1542 135.728L65.6028 127.028L81.427 122.528L68.0851 112.627L82.6681 96.127L109.156 119.997C110.704 121.392 111.71 123.259 112.005 125.285C112.3 127.312 111.868 129.374 110.779 131.129Z" fill="#2F2E41"/>
<path d="M61.5692 190.629H53.1917C45.6699 140.776 38.0134 90.7843 60.6384 72.125L87.3223 76.3252L83.9092 98.2259L69.0159 114.726L61.5692 190.629Z" fill="#2F2E41"/>
<path d="M68.9335 201.923C68.2776 202.096 67.5914 202.132 66.9198 202.03C66.2483 201.929 65.6066 201.69 65.037 201.332L55.9408 200.149C53.9862 198.918 52.5743 197.029 51.9791 194.848C51.3838 192.667 51.6477 190.35 52.7195 188.346C56.5716 190.534 59.9508 190.229 62.8873 187.59C64.9621 191.641 68.3807 191.394 71.6456 194.806C72.0779 195.419 72.3524 196.123 72.4463 196.86C72.5402 197.596 72.4508 198.344 72.1854 199.04C71.9201 199.736 71.4865 200.361 70.9209 200.862C70.3552 201.364 69.6738 201.727 68.9335 201.923Z" fill="#2F2E41"/>
<path d="M81.427 38.8238L65.9131 35.2236C68.4897 30.124 68.7019 24.4497 67.4645 18.4231L78.0139 18.123C78.3445 25.6173 79.3445 32.6189 81.427 38.8238Z" fill="#FFB8B8"/>
<path d="M85.6908 85.3589C74.3972 92.7999 66.4175 85.6135 60.3281 74.5257C61.1743 67.741 59.8042 59.6217 57.2667 50.7994C56.1381 46.9082 56.5595 42.7493 58.4474 39.1437C60.3354 35.5382 63.5528 32.7481 67.4645 31.3242L80.8065 36.7244C92.1353 45.6532 94.3652 55.3248 90.1148 65.5254L85.6908 85.3589Z" fill="#6C63FF"/>
<path d="M53.1917 46.3238L40.7805 52.6241L62.8103 65.2245L65.8756 72.5353C66.0802 73.0233 66.1799 73.5464 66.1685 74.0729C66.1572 74.5993 66.0351 75.1179 65.8097 75.5973C65.5843 76.0766 65.2603 76.5065 64.8574 76.8607C64.4545 77.215 63.9813 77.4862 63.4665 77.6579C62.8813 77.853 62.2573 77.9145 61.6434 77.8375C61.0295 77.7605 60.4424 77.5472 59.9281 77.2142C59.4137 76.8812 58.986 76.4376 58.6786 75.9181C58.3711 75.3986 58.1922 74.8174 58.1559 74.2199L57.8459 69.1246L29.8463 60.1905C28.9029 59.8895 28.0428 59.3849 27.331 58.7148C26.6192 58.0448 26.0744 57.2269 25.7379 56.3232C25.2474 55.0058 25.2224 53.5684 25.6669 52.2359C26.1113 50.9033 27.0001 49.7508 28.1942 48.9588L50.7095 34.0234L53.1917 46.3238Z" fill="#FFB8B8"/>
<path d="M65.6028 47.5232C60.4266 45.3299 55.7197 47.7125 49.7786 49.6233L48.8478 33.7228C54.7471 30.6826 60.3716 29.8629 65.6028 32.2227L65.6028 47.5232Z" fill="#6C63FF"/>
<path d="M71.7948 25.9982C77.2652 25.9982 81.6998 21.7104 81.6998 16.421C81.6998 11.1316 77.2652 6.84375 71.7948 6.84375C66.3244 6.84375 61.8897 11.1316 61.8897 16.421C61.8897 21.7104 66.3244 25.9982 71.7948 25.9982Z" fill="#FFB8B8"/>
<path d="M83.6444 15.2129C73.8375 16.1416 66.3648 14.5908 61.5889 10.1752V6.61914H82.8121L83.6444 15.2129Z" fill="#2F2E41"/>
</svg>
