<svg width="314" height="207" viewBox="0 0 314 207" fill="none" xmlns="http://www.w3.org/2000/svg">
<g clip-path="url(#clip0)">
<path d="M199.829 177.366H26.9433C25.9313 177.365 24.9611 176.885 24.2455 176.032C23.53 175.179 23.1275 174.023 23.1263 172.817V52.856C23.1274 51.6499 23.5299 50.4935 24.2455 49.6406C24.9611 48.7877 25.9313 48.308 26.9433 48.3066H199.829C200.841 48.308 201.811 48.7878 202.527 49.6407C203.242 50.4935 203.645 51.6499 203.646 52.856V172.817C203.645 174.023 203.242 175.179 202.527 176.032C201.811 176.885 200.841 177.365 199.829 177.366Z" fill="#E6E6E6"/>
<path d="M210.607 194.155H16.166V40.8131C16.1672 39.4651 16.6171 38.1727 17.4169 37.2195C18.2166 36.2662 19.3009 35.73 20.432 35.7285H206.34C207.472 35.73 208.556 36.2662 209.356 37.2195C210.155 38.1727 210.605 39.4651 210.607 40.8131V194.155ZM17.0641 193.084H209.708V40.8131C209.707 39.7489 209.352 38.7285 208.721 37.976C208.089 37.2234 207.233 36.8001 206.34 36.799H20.432C19.539 36.8001 18.683 37.2234 18.0516 37.976C17.4202 38.7285 17.065 39.7489 17.0641 40.8131V193.084Z" fill="#CCCCCC"/>
<path d="M113.386 44.5591C114.378 44.5591 115.182 43.6006 115.182 42.4182C115.182 41.2359 114.378 40.2773 113.386 40.2773C112.394 40.2773 111.59 41.2359 111.59 42.4182C111.59 43.6006 112.394 44.5591 113.386 44.5591Z" fill="#E6E6E6"/>
<path d="M156.72 151.908H70.0525C69.0405 151.907 68.0703 151.427 67.3548 150.574C66.6392 149.721 66.2367 148.565 66.2355 147.359V78.315C66.2367 77.1089 66.6392 75.9525 67.3548 75.0996C68.0703 74.2468 69.0405 73.767 70.0525 73.7656H156.72C157.732 73.7671 158.702 74.2468 159.418 75.0997C160.133 75.9526 160.536 77.1089 160.537 78.315V147.359C160.536 148.565 160.133 149.721 159.418 150.574C158.702 151.427 157.732 151.907 156.72 151.908Z" fill="white"/>
<path d="M84.31 103.202C83.5994 103.202 82.9049 102.951 82.3141 102.481C81.7233 102.01 81.2629 101.341 80.991 100.559C80.7191 99.7766 80.6479 98.9157 80.7865 98.0851C80.9252 97.2545 81.2673 96.4916 81.7697 95.8928C82.2721 95.2939 82.9122 94.8862 83.6091 94.721C84.306 94.5557 85.0283 94.6405 85.6847 94.9646C86.3411 95.2887 86.9022 95.8375 87.297 96.5416C87.6917 97.2457 87.9024 98.0736 87.9024 98.9205C87.9013 100.056 87.5225 101.144 86.849 101.947C86.1755 102.749 85.2624 103.201 84.31 103.202Z" fill="#CCCCCC"/>
<path d="M84.31 117.118C83.5994 117.118 82.9049 116.867 82.3141 116.397C81.7233 115.926 81.2629 115.257 80.991 114.475C80.7191 113.693 80.6479 112.832 80.7865 112.001C80.9252 111.171 81.2673 110.408 81.7697 109.809C82.2721 109.21 82.9122 108.802 83.6091 108.637C84.306 108.472 85.0283 108.557 85.6847 108.881C86.3411 109.205 86.9022 109.753 87.297 110.458C87.6917 111.162 87.9024 111.99 87.9024 112.836C87.9013 113.972 87.5225 115.06 86.849 115.863C86.1755 116.665 85.2624 117.117 84.31 117.118Z" fill="#6C63FF"/>
<path d="M84.31 131.034C83.5994 131.034 82.9049 130.783 82.3141 130.313C81.7233 129.842 81.2629 129.173 80.991 128.391C80.7191 127.609 80.6479 126.748 80.7865 125.917C80.9252 125.087 81.2673 124.324 81.7697 123.725C82.2721 123.126 82.9122 122.718 83.6091 122.553C84.306 122.388 85.0283 122.473 85.6847 122.797C86.3411 123.121 86.9022 123.67 87.297 124.374C87.6917 125.078 87.9024 125.906 87.9024 126.752C87.9013 127.888 87.5225 128.976 86.849 129.779C86.1755 130.581 85.2624 131.033 84.31 131.034Z" fill="#6C63FF"/>
<path d="M101.374 95.4414C100.6 95.4414 99.8575 95.8079 99.3101 96.4604C98.7627 97.1128 98.4552 97.9977 98.4552 98.9204C98.4552 99.843 98.7627 100.728 99.3101 101.38C99.8575 102.033 100.6 102.399 101.374 102.399H143.136C143.91 102.399 144.653 102.033 145.2 101.38C145.747 100.728 146.055 99.843 146.055 98.9204C146.055 97.9977 145.747 97.1128 145.2 96.4604C144.653 95.8079 143.91 95.4414 143.136 95.4414H101.374Z" fill="#CCCCCC"/>
<path d="M101.374 109.357C100.6 109.357 99.8575 109.724 99.3101 110.376C98.7627 111.029 98.4552 111.914 98.4552 112.836C98.4552 113.759 98.7627 114.644 99.3101 115.296C99.8575 115.949 100.6 116.315 101.374 116.315H143.136C143.91 116.315 144.653 115.949 145.2 115.296C145.747 114.644 146.055 113.759 146.055 112.836C146.055 111.914 145.747 111.029 145.2 110.376C144.653 109.724 143.91 109.357 143.136 109.357H101.374Z" fill="#6C63FF"/>
<path d="M101.374 123.273C100.6 123.273 99.8575 123.64 99.3101 124.292C98.7627 124.945 98.4552 125.83 98.4552 126.752C98.4552 127.675 98.7627 128.56 99.3101 129.212C99.8575 129.865 100.6 130.231 101.374 130.231H143.136C143.91 130.231 144.653 129.865 145.2 129.212C145.747 128.56 146.055 127.675 146.055 126.752C146.055 125.83 145.747 124.945 145.2 124.292C144.653 123.64 143.91 123.273 143.136 123.273H101.374Z" fill="#6C63FF"/>
<path d="M297.852 200.885L292.348 200.774L290.085 175.416L298.209 175.579L297.852 200.885Z" fill="#FFB8B8"/>
<path d="M288.443 198.821L299.058 199.034L298.946 207.001L281.646 206.654C281.661 205.608 281.848 204.575 282.198 203.616C282.547 202.656 283.052 201.787 283.683 201.06C284.314 200.333 285.06 199.761 285.876 199.377C286.693 198.992 287.565 198.804 288.443 198.821Z" fill="#2F2E41"/>
<path d="M243.226 200.825L238.123 198.363L243.662 173.73L251.194 177.365L243.226 200.825Z" fill="#FFB8B8"/>
<path d="M235.068 194.867L244.91 199.615L242.401 207.001L226.363 199.263C227.029 197.304 228.319 195.74 229.952 194.916C231.584 194.091 233.425 194.074 235.068 194.867Z" fill="#2F2E41"/>
<path d="M261.626 105.935L245.46 156.782L238.724 192.106L245.909 196.388L278.69 120.386L290.814 196.656H297.999C297.999 196.656 301.284 106.195 296.498 99.1074L261.626 105.935Z" fill="#2F2E41"/>
<path d="M241.584 161.604C248.571 161.604 254.235 154.853 254.235 146.526C254.235 138.198 248.571 131.447 241.584 131.447C234.597 131.447 228.933 138.198 228.933 146.526C228.933 154.853 234.597 161.604 241.584 161.604Z" fill="#6C63FF"/>
<path d="M240.53 153.194L236.515 147.04L238.85 144.876L240.751 147.789L247.173 139.709L249.321 142.134L240.53 153.194Z" fill="white"/>
<path d="M269.484 35.5533C277.668 35.5533 284.303 27.6456 284.303 17.8909C284.303 8.13623 277.668 0.228516 269.484 0.228516C261.3 0.228516 254.665 8.13623 254.665 17.8909C254.665 27.6456 261.3 35.5533 269.484 35.5533Z" fill="#2F2E41"/>
<path d="M248.803 138.079C249.435 137.705 249.989 137.17 250.429 136.512C250.868 135.855 251.181 135.09 251.345 134.273C251.51 133.455 251.522 132.605 251.381 131.781C251.239 130.958 250.949 130.181 250.528 129.506L261.769 55.3562L251.28 55.1914L243.473 128.516C242.568 129.433 241.977 130.713 241.812 132.114C241.646 133.516 241.917 134.941 242.574 136.119C243.231 137.298 244.228 138.149 245.376 138.51C246.524 138.871 247.744 138.718 248.803 138.079H248.803Z" fill="#FFB8B8"/>
<path d="M313.22 123.596C313.616 122.876 313.871 122.06 313.968 121.207C314.064 120.354 313.998 119.486 313.776 118.667C313.553 117.848 313.179 117.1 312.681 116.476C312.184 115.852 311.575 115.37 310.9 115.064L290.827 56.9497C290.335 55.5274 289.59 54.2498 288.642 53.2057C287.695 52.1616 286.568 51.3762 285.34 50.9039C284.112 50.4317 282.812 50.2841 281.531 50.4713C280.25 50.6585 279.019 51.1761 277.923 51.9881L304.51 118.763C304.167 120.097 304.241 121.533 304.717 122.808C305.193 124.082 306.04 125.108 307.101 125.696C308.162 126.285 309.365 126.397 310.49 126.011C311.614 125.624 312.584 124.767 313.22 123.596V123.596Z" fill="#FFB8B8"/>
<path d="M269.777 37.6897C275.869 37.6897 280.807 31.8042 280.807 24.5441C280.807 17.2839 275.869 11.3984 269.777 11.3984C263.686 11.3984 258.748 17.2839 258.748 24.5441C258.748 31.8042 263.686 37.6897 269.777 37.6897Z" fill="#FFB8B8"/>
<path d="M256.366 45.3297C262.727 42.1732 273.71 39.0536 285.905 45.8529C287.332 46.6459 288.603 47.7896 289.633 49.2089C290.663 50.6282 291.43 52.2912 291.883 54.0885L297.101 74.8915L290.365 82.9199L296.652 99.5118C296.652 99.5118 272.627 116.907 261.85 106.202L255.339 78.6381L246.807 75.962L249.718 55.3501C250.025 53.1461 250.796 51.071 251.958 49.3186C253.121 47.5662 254.638 46.1938 256.366 45.3297Z" fill="#CCCCCC"/>
<path d="M259.462 14.8227C263.769 17.9565 268.625 19.8636 273.652 20.3953L272.156 18.2593C273.245 18.7392 274.391 19.0104 275.551 19.0629C276.132 19.0829 276.709 18.9404 277.235 18.6468C277.762 18.3531 278.223 17.9165 278.582 17.372C278.876 16.8065 279.05 16.1649 279.09 15.5018C279.13 14.8387 279.036 14.1739 278.814 13.5639C278.358 12.3473 277.648 11.2899 276.753 10.4925C275.165 8.99579 273.292 7.99042 271.299 7.56599C269.307 7.14156 267.257 7.31125 265.333 8.05995C264.013 8.5301 262.831 9.43385 261.922 10.6677C261.476 11.2892 261.165 12.0332 261.019 12.8329C260.873 13.6327 260.896 14.4631 261.086 15.2496" fill="#2F2E41"/>
<path d="M257.399 3.12623C257.22 0.878288 254.909 -0.505633 253.102 0.1734C251.296 0.852433 250.109 3.02085 249.751 5.23811C249.578 6.1719 249.562 7.1371 249.703 8.07837C249.844 9.01964 250.14 9.91847 250.573 10.7233C251.02 11.518 251.65 12.1427 252.387 12.5232C253.124 12.9037 253.937 13.0241 254.73 12.8699C256.517 12.4159 257.755 10.3362 258.109 8.19981C258.463 6.0634 258.112 3.86078 257.76 1.72367" fill="#2F2E41"/>
<path d="M287.935 4.19654C287.755 1.9486 285.445 0.56468 283.638 1.24371C281.831 1.92275 280.645 4.09116 280.286 6.30843C280.114 7.24221 280.098 8.20741 280.239 9.14868C280.38 10.0899 280.675 10.9888 281.108 11.7936C281.556 12.5883 282.186 13.213 282.923 13.5935C283.66 13.9741 284.473 14.0944 285.265 13.9402C287.052 13.4863 288.29 11.4065 288.645 9.27012C288.999 7.13371 288.647 4.93109 288.296 2.79398" fill="#2F2E41"/>
<path d="M213.974 187.198H206.116V185.592C206.116 185.024 205.927 184.48 205.59 184.078C205.253 183.677 204.796 183.451 204.32 183.451H194.89C194.413 183.451 193.956 183.677 193.619 184.078C193.283 184.48 193.093 185.024 193.093 185.592V187.198H191.746V185.592C191.746 185.024 191.557 184.48 191.22 184.078C190.883 183.677 190.426 183.451 189.95 183.451H180.52C180.043 183.451 179.587 183.677 179.25 184.078C178.913 184.48 178.724 185.024 178.724 185.592V187.198H177.376V185.592C177.376 185.024 177.187 184.48 176.85 184.078C176.513 183.677 176.057 183.451 175.58 183.451H166.15C165.674 183.451 165.217 183.677 164.88 184.078C164.543 184.48 164.354 185.024 164.354 185.592V187.198H163.007V185.592C163.007 185.024 162.817 184.48 162.481 184.078C162.144 183.677 161.687 183.451 161.21 183.451H151.78C151.304 183.451 150.847 183.677 150.51 184.078C150.173 184.48 149.984 185.024 149.984 185.592V187.198H148.637V185.592C148.637 185.024 148.448 184.48 148.111 184.078C147.774 183.677 147.317 183.451 146.841 183.451H137.411C136.934 183.451 136.477 183.677 136.14 184.078C135.804 184.48 135.614 185.024 135.614 185.592V187.198H134.267V185.592C134.267 185.024 134.078 184.48 133.741 184.078C133.404 183.677 132.947 183.451 132.471 183.451H123.041C122.564 183.451 122.108 183.677 121.771 184.078C121.434 184.48 121.245 185.024 121.245 185.592V187.198H119.897V185.592C119.897 185.024 119.708 184.48 119.371 184.078C119.035 183.677 118.578 183.451 118.101 183.451H108.671C108.195 183.451 107.738 183.677 107.401 184.078C107.064 184.48 106.875 185.024 106.875 185.592V187.198H105.528V185.592C105.528 185.024 105.339 184.48 105.002 184.078C104.665 183.677 104.208 183.451 103.732 183.451H94.3014C93.825 183.451 93.3681 183.677 93.0313 184.078C92.6944 184.48 92.5052 185.024 92.5052 185.592V187.198H91.158V185.592C91.158 185.024 90.9688 184.48 90.6319 184.078C90.2951 183.677 89.8382 183.451 89.3618 183.451H79.9317C79.4553 183.451 78.9984 183.677 78.6615 184.078C78.3247 184.48 78.1354 185.024 78.1354 185.592V187.198H76.7883V185.592C76.7883 185.024 76.599 184.48 76.2622 184.078C75.9253 183.677 75.4685 183.451 74.9921 183.451H65.5619C65.0855 183.451 64.6287 183.677 64.2918 184.078C63.9549 184.48 63.7657 185.024 63.7657 185.592V187.198H62.4185V185.592C62.4185 185.024 62.2293 184.48 61.8924 184.078C61.5556 183.677 61.0987 183.451 60.6223 183.451H51.1922C50.7158 183.451 50.2589 183.677 49.9221 184.078C49.5852 184.48 49.396 185.024 49.396 185.592V187.198H48.0488V185.592C48.0488 185.024 47.8596 184.48 47.5227 184.078C47.1859 183.677 46.729 183.451 46.2526 183.451H36.8224C36.3461 183.451 35.8892 183.677 35.5523 184.078C35.2155 184.48 35.0262 185.024 35.0262 185.592V187.198H33.6791V185.592C33.6791 185.024 33.4898 184.48 33.153 184.078C32.8161 183.677 32.3592 183.451 31.8829 183.451H22.4527C21.9763 183.451 21.5195 183.677 21.1826 184.078C20.8457 184.48 20.6565 185.024 20.6565 185.592V187.198H12.798C9.40377 187.198 6.14855 188.805 3.74845 191.665C1.34836 194.526 0 198.406 0 202.452V202.452C0 203.658 0.402143 204.815 1.11796 205.669C1.83378 206.522 2.80464 207.001 3.81696 207.001H222.955C223.968 207.001 224.939 206.522 225.654 205.669C226.37 204.815 226.772 203.658 226.772 202.452V202.452C226.772 198.406 225.424 194.526 223.024 191.665C220.624 188.805 217.369 187.198 213.974 187.198Z" fill="#3F3D56"/>
</g>
<defs>
<clipPath id="clip0">
<rect width="314" height="207" fill="white"/>
</clipPath>
</defs>
</svg>
