<svg width="321" height="325" viewBox="0 0 321 325" fill="none" xmlns="http://www.w3.org/2000/svg">
<path d="M2.75444 251.364C-0.918249 255.082 -0.918249 261.111 2.75444 264.829L59.4297 322.21C61.2661 324.07 63.673 325 66.0792 325C68.4855 325 70.893 324.07 72.7287 322.21L94.4169 300.252L24.442 229.406L2.75444 251.364Z" fill="#7B2CBF"/>
<path d="M58.5602 179.636C54.8881 175.918 48.9333 175.918 45.2606 179.636L23.5731 201.595L121.886 301.133L143.574 279.175C147.246 275.456 147.246 269.428 143.574 265.709L58.5602 179.636Z" fill="#7B2CBF"/>
<path d="M177.425 45.8253C173.753 49.5437 173.753 55.5721 177.425 59.2906L262.439 145.364C264.275 147.223 266.682 148.153 269.089 148.153C271.495 148.153 273.902 147.223 275.738 145.364L297.426 123.405L199.114 23.8668L177.425 45.8253Z" fill="#7B2CBF"/>
<path d="M318.245 73.6357C321.918 69.9172 321.918 63.8888 318.245 60.1704L261.569 2.78884C257.897 -0.929614 251.943 -0.929614 248.27 2.78884L226.582 24.7473L296.557 95.5941L318.245 73.6357Z" fill="#7B2CBF"/>
<path d="M93.5381 188.111L185.814 94.6851L227.445 136.835L135.169 230.261L93.5381 188.111Z" fill="#7B2CBF"/>
</svg>
