<svg width="450" height="314" viewBox="0 0 450 314" fill="none" xmlns="http://www.w3.org/2000/svg">
<path d="M450 18.7706V62H448.663V61.5393H1.3373V62H0V18.7706C0.0057426 13.7939 2.33232 9.02231 6.46914 5.50319C10.606 1.98407 16.215 0.00488513 22.0654 0H427.935C433.785 0.00488513 439.394 1.98407 443.531 5.50319C447.668 9.02231 449.994 13.7939 450 18.7706Z" fill="#5A189A"/>
<path d="M427.935 0H22.0654C16.215 0.00491255 10.606 1.9952 6.46914 5.53408C2.33232 9.07295 0.0057426 13.8713 0 18.876V267.124C0.0057426 272.129 2.33232 276.927 6.46914 280.466C10.606 284.005 16.215 285.995 22.0654 286H427.935C433.785 285.995 439.394 284.005 443.531 280.466C447.668 276.927 449.994 272.129 450 267.124V18.876C449.994 13.8713 447.668 9.07295 443.531 5.53408C439.394 1.9952 433.785 0.00491255 427.935 0ZM448.663 267.124C448.656 271.825 446.47 276.332 442.584 279.656C438.698 282.98 433.43 284.85 427.935 284.856H22.0654C16.5701 284.85 11.3019 282.98 7.41615 279.656C3.5304 276.332 1.34431 271.825 1.3373 267.124V18.876C1.34431 14.175 3.5304 9.66831 7.41615 6.34421C11.3019 3.02012 16.5701 1.15 22.0654 1.144H427.935C433.43 1.15 438.698 3.02012 442.584 6.34421C446.47 9.66831 448.656 14.175 448.663 18.876V267.124Z" fill="#3F3D56"/>
<path d="M91.5 44C98.9558 44 105 38.8513 105 32.5C105 26.1487 98.9558 21 91.5 21C84.0442 21 78 26.1487 78 32.5C78 38.8513 84.0442 44 91.5 44Z" fill="white"/>
<path d="M359.5 44C366.956 44 373 38.8513 373 32.5C373 26.1487 366.956 21 359.5 21C352.044 21 346 26.1487 346 32.5C346 38.8513 352.044 44 359.5 44Z" fill="white"/>
<path d="M129.285 159H49.7147C46.3437 158.997 43.1119 157.848 40.7283 155.806C38.3446 153.764 37.0038 150.996 37 148.108V115.892C37.0038 113.004 38.3446 110.236 40.7283 108.194C43.1119 106.152 46.3437 105.003 49.7147 105H129.285C132.656 105.003 135.888 106.152 138.272 108.194C140.655 110.236 141.996 113.004 142 115.892V148.108C141.996 150.996 140.655 153.764 138.272 155.806C135.888 157.848 132.656 158.997 129.285 159Z" fill="#5A189A"/>
<path d="M265.285 159H185.715C182.344 158.997 179.112 157.848 176.728 155.806C174.345 153.764 173.004 150.996 173 148.108V115.892C173.004 113.004 174.345 110.236 176.728 108.194C179.112 106.152 182.344 105.003 185.715 105H265.285C268.656 105.003 271.888 106.152 274.272 108.194C276.655 110.236 277.996 113.004 278 115.892V148.108C277.996 150.996 276.655 153.764 274.272 155.806C271.888 157.848 268.656 158.997 265.285 159Z" fill="#5A189A"/>
<path d="M264.872 243H185.128C181.648 242.997 178.311 241.806 175.85 239.689C173.388 237.572 172.004 234.702 172 231.708V199.292C172.004 196.298 173.388 193.428 175.85 191.311C178.311 189.194 181.648 188.003 185.128 188H264.872C268.352 188.003 271.689 189.194 274.15 191.311C276.612 193.428 277.996 196.298 278 199.292V231.708C277.996 234.702 276.612 237.572 274.15 239.689C271.689 241.806 268.352 242.997 264.872 243Z" fill="#F2F2F2"/>
<path d="M128.872 243H49.1284C45.6477 242.997 42.3108 241.806 39.8495 239.689C37.3883 237.572 36.0039 234.702 36 231.708V199.292C36.0039 196.298 37.3883 193.428 39.8495 191.311C42.3108 189.194 45.6477 188.003 49.1284 188H128.872C132.352 188.003 135.689 189.194 138.15 191.311C140.612 193.428 141.996 196.298 142 199.292V231.708C141.996 234.702 140.612 237.572 138.15 239.689C135.689 241.806 132.352 242.997 128.872 243Z" fill="#F2F2F2"/>
<path d="M400.872 243H321.128C317.648 242.997 314.311 241.806 311.85 239.689C309.388 237.572 308.004 234.702 308 231.708V199.292C308.004 196.298 309.388 193.428 311.85 191.311C314.311 189.194 317.648 188.003 321.128 188H400.872C404.352 188.003 407.689 189.194 410.15 191.311C412.612 193.428 413.996 196.298 414 199.292V231.708C413.996 234.702 412.612 237.572 410.15 239.689C407.689 241.806 404.352 242.997 400.872 243Z" fill="#F2F2F2"/>
<path d="M400.872 159H321.128C317.648 158.997 314.311 157.806 311.85 155.689C309.388 153.572 308.004 150.702 308 147.708V115.292C308.004 112.298 309.388 109.428 311.85 107.311C314.311 105.194 317.648 104.003 321.128 104H400.872C404.352 104.003 407.689 105.194 410.15 107.311C412.612 109.428 413.996 112.298 414 115.292V147.708C413.996 150.702 412.612 153.572 410.15 155.689C407.689 157.806 404.352 158.997 400.872 159Z" fill="#F2F2F2"/>
<path d="M90.5 151C102.374 151 112 142.493 112 132C112 121.507 102.374 113 90.5 113C78.6259 113 69 121.507 69 132C69 142.493 78.6259 151 90.5 151Z" fill="white"/>
<path d="M88.0471 139C87.5801 139.001 87.1255 138.876 86.7518 138.646L86.7287 138.631L81.8508 135.556C81.6246 135.413 81.4347 135.236 81.2919 135.033C81.1492 134.83 81.0564 134.606 81.0189 134.373C80.9814 134.141 80.9999 133.904 81.0733 133.678C81.1468 133.451 81.2737 133.239 81.4469 133.053C81.6201 132.866 81.8361 132.71 82.0827 132.593C82.3293 132.476 82.6015 132.399 82.8838 132.369C83.1661 132.338 83.453 132.354 83.7281 132.414C84.0032 132.475 84.261 132.58 84.4869 132.723L87.6464 134.718L95.1129 126.699C95.2861 126.513 95.502 126.357 95.7484 126.239C95.9948 126.122 96.2669 126.046 96.549 126.015C96.8312 125.985 97.1179 126 97.3928 126.061C97.6678 126.121 97.9255 126.226 98.1513 126.368L98.1049 126.42L98.1525 126.369C98.6081 126.658 98.9061 127.083 98.9813 127.552C99.0565 128.021 98.9027 128.496 98.5536 128.871L89.7712 138.304C89.5681 138.521 89.3069 138.697 89.0079 138.818C88.7089 138.938 88.3801 139.001 88.0471 139Z" fill="#6C63FF"/>
<path d="M226 150C238.15 150 248 141.717 248 131.5C248 121.283 238.15 113 226 113C213.85 113 204 121.283 204 131.5C204 141.717 213.85 150 226 150Z" fill="white"/>
<path d="M223.438 139C222.945 139.001 222.465 138.857 222.07 138.591L222.046 138.575L216.896 135.026C216.415 134.694 216.099 134.203 216.02 133.662C215.94 133.12 216.103 132.572 216.472 132.139C216.841 131.705 217.386 131.422 217.988 131.35C218.589 131.278 219.198 131.425 219.679 131.757L223.015 134.059L230.897 124.806C231.079 124.592 231.307 124.412 231.567 124.276C231.828 124.141 232.115 124.053 232.413 124.018C232.71 123.982 233.013 124 233.303 124.07C233.594 124.14 233.866 124.261 234.104 124.425L234.055 124.485L234.105 124.426C234.586 124.759 234.901 125.25 234.98 125.791C235.06 126.332 234.897 126.88 234.529 127.313L225.258 138.196C225.043 138.447 224.767 138.65 224.452 138.789C224.136 138.929 223.789 139.001 223.438 139Z" fill="#6C63FF"/>
<path d="M371.12 219.004C371.828 218.355 372.357 217.584 372.671 216.745C372.985 215.905 373.076 215.019 372.937 214.147C372.798 213.275 372.432 212.439 371.867 211.699C371.301 210.958 370.548 210.331 369.662 209.86L357.631 156L343 160.549L359.426 212.062C358.583 213.362 358.337 214.878 358.737 216.32C359.137 217.762 360.154 219.032 361.595 219.888C363.036 220.743 364.802 221.126 366.558 220.963C368.313 220.801 369.936 220.103 371.12 219.004Z" fill="#A0616A"/>
<path d="M254.347 134.803C254.384 135.141 254.389 135.48 254.362 135.818L283.161 154.347L291.328 151.544L298 161.294L284.119 167.431C282.998 167.927 281.714 168.106 280.461 167.94C279.208 167.774 278.054 167.273 277.17 166.511L248.384 141.703C246.861 141.99 245.268 141.883 243.819 141.395C242.37 140.907 241.133 140.062 240.273 138.973C239.412 137.883 238.969 136.6 239.002 135.295C239.035 133.989 239.542 132.723 240.457 131.665C241.372 130.606 242.65 129.806 244.123 129.369C245.595 128.933 247.191 128.882 248.699 129.223C250.207 129.563 251.555 130.28 252.564 131.277C253.573 132.274 254.195 133.504 254.347 134.803H254.347Z" fill="#A0616A"/>
<path d="M319.998 264H311.868L308 242L320 242.001L319.998 264Z" fill="#A0616A"/>
<path d="M323 270L296 269.999V269.716C296 268.571 296.272 267.438 296.8 266.38C297.328 265.323 298.102 264.362 299.078 263.553C300.054 262.743 301.212 262.101 302.487 261.663C303.762 261.225 305.129 261 306.509 261H306.51L323 261.001L323 270Z" fill="#2F2E41"/>
<path d="M350.998 264H342.191L338 242L351 242.001L350.998 264Z" fill="#A0616A"/>
<path d="M353 270L326 269.999V269.716C326 268.571 326.272 267.438 326.8 266.38C327.328 265.323 328.102 264.362 329.078 263.553C330.054 262.743 331.212 262.101 332.487 261.663C333.762 261.225 335.129 261 336.509 261H336.51L353 261.001L353 270Z" fill="#2F2E41"/>
<path d="M311.246 313.887C310.489 313.888 309.76 313.647 309.2 313.212C308.641 312.776 308.291 312.178 308.221 311.534L301 228.515L301.341 228.491L351.034 225L351.048 225.302L354.998 311.303C355.013 311.652 354.946 312.001 354.8 312.327C354.654 312.654 354.433 312.952 354.149 313.204C353.865 313.456 353.525 313.656 353.149 313.793C352.772 313.93 352.367 314 351.958 314H342.215C341.487 314.003 340.783 313.782 340.231 313.377C339.679 312.972 339.316 312.411 339.209 311.796L325.977 242.322C325.964 242.25 325.92 242.185 325.854 242.14C325.787 242.095 325.703 242.072 325.619 242.078C325.534 242.083 325.455 242.115 325.397 242.168C325.339 242.221 325.306 242.291 325.305 242.364L324.705 310.958C324.699 311.621 324.397 312.256 323.862 312.735C323.326 313.214 322.598 313.501 321.824 313.536L311.409 313.883C311.354 313.886 311.3 313.887 311.246 313.887Z" fill="#2F2E41"/>
<path d="M319.5 124C328.613 124 336 117.732 336 110C336 102.268 328.613 96 319.5 96C310.387 96 303 102.268 303 110C303 117.732 310.387 124 319.5 124Z" fill="#A0616A"/>
<path d="M322.677 234C315.411 233.982 308.181 233.144 301.176 231.509C300.502 231.343 299.916 230.985 299.517 230.495C299.118 230.006 298.931 229.414 298.986 228.821C301.224 200.316 301.75 178.194 297.044 162.889C295.039 156.365 295.949 149.495 299.542 144.039C304.95 135.829 314.889 130.832 325.491 131.004C325.997 131.012 326.509 131.028 327.026 131.05C343.115 131.752 355.653 144.089 354.974 158.551L351.737 227.483C351.726 227.986 351.538 228.475 351.199 228.888C350.86 229.301 350.384 229.619 349.832 229.803C341.15 232.571 331.952 233.993 322.677 234Z" fill="#3F3D56"/>
<path d="M299.817 166.81L287.844 154.153C287.504 153.793 287.257 153.374 287.121 152.924C286.985 152.474 286.963 152.004 287.057 151.547C287.15 151.089 287.357 150.654 287.663 150.271C287.969 149.889 288.367 149.567 288.83 149.329L305.048 140.992C307.194 139.498 309.939 138.8 312.68 139.05C315.422 139.299 317.937 140.477 319.674 142.324C321.411 144.171 322.228 146.537 321.945 148.903C321.663 151.269 320.305 153.442 318.168 154.945L305.493 166.945C305.13 167.288 304.685 167.56 304.189 167.742C303.693 167.924 303.158 168.012 302.619 167.999C302.081 167.986 301.552 167.873 301.068 167.668C300.585 167.463 300.158 167.171 299.817 166.81Z" fill="#3F3D56"/>
<path d="M339.47 165.714C338.976 165.522 338.535 165.24 338.178 164.886C337.821 164.533 337.556 164.117 337.402 163.667L331.988 147.938C330.813 145.76 330.681 143.267 331.619 141.004C332.558 138.741 334.492 136.894 336.997 135.868C339.501 134.842 342.372 134.721 344.98 135.53C347.587 136.34 349.718 138.015 350.906 140.188L361.374 153.92C361.673 154.312 361.871 154.755 361.955 155.22C362.038 155.684 362.006 156.159 361.859 156.611C361.713 157.063 361.456 157.483 361.106 157.842C360.756 158.2 360.321 158.489 359.831 158.688L342.606 165.691C342.115 165.891 341.582 165.996 341.04 166C340.499 166.004 339.963 165.906 339.47 165.714Z" fill="#3F3D56"/>
<path d="M328.071 120.807L315.875 118.456C314.617 118.213 313.106 117.751 312.932 116.673C312.697 115.226 315.17 114.217 314.942 112.769C314.721 111.366 312.468 111.185 310.862 110.771C309.366 110.329 308.133 109.414 307.424 108.22C306.715 107.025 306.585 105.645 307.063 104.372C305.325 106.435 301.354 106.612 299.1 104.94C296.846 103.268 296.414 100.236 297.768 97.9774C298.499 96.8682 299.531 95.92 300.779 95.21C302.027 94.5 303.456 94.0482 304.951 93.8914C307.956 93.6043 310.994 94.0815 313.675 95.2615C313.853 93.6625 316.223 93.0143 318.129 93C322.089 93.0389 325.936 94.1168 329.135 96.0837C332.334 98.0506 334.725 100.809 335.976 103.974C338.315 110.324 336.751 117.285 330.206 121L328.071 120.807Z" fill="#2F2E41"/>
<path d="M449.332 270H194.668C194.491 270 194.321 269.947 194.196 269.854C194.07 269.76 194 269.633 194 269.5C194 269.367 194.07 269.24 194.196 269.146C194.321 269.053 194.491 269 194.668 269H449.332C449.509 269 449.679 269.053 449.804 269.146C449.93 269.24 450 269.367 450 269.5C450 269.633 449.93 269.76 449.804 269.854C449.679 269.947 449.509 270 449.332 270Z" fill="#3F3D56"/>
</svg>
