<svg width="249" height="237" viewBox="0 0 249 237" fill="none" xmlns="http://www.w3.org/2000/svg">
<path d="M91.2849 141.602V139.542C91.2849 130.118 85.1646 126.326 75.8098 126.326C73.3849 126.326 72.4615 124.485 72.4615 122.536C72.4615 120.694 73.3849 118.745 75.8098 118.745C84.01 118.745 89.2069 116.144 89.2069 105.746C89.2069 96.9706 84.9333 93.0704 76.2725 93.0704C65.418 93.0704 62.7617 98.9198 62.7617 103.471C62.7617 105.854 61.4914 107.478 58.1412 107.478C53.9833 107.478 53.0599 106.395 53.0599 102.82C53.0599 96.3215 57.7942 84.9463 76.5038 84.9463C89.4363 84.9463 98.5617 90.0381 98.5617 104.12C98.5617 113.544 94.6351 119.936 89.2069 122.319C96.0191 124.919 100.987 130.12 100.987 139.544V141.602C100.987 158.501 89.6676 164.782 75.8098 164.782C58.7195 164.782 51.2133 154.6 51.2133 146.368C51.2133 143.01 52.4836 142.142 55.7162 142.142C59.6428 142.142 60.6818 143.442 60.6818 145.717C60.6818 150.377 64.6084 156.55 75.8098 156.55C85.9723 156.55 91.2849 152 91.2849 141.602Z" fill="white"/>
<path d="M198.114 175.775V156.195C198.114 154.278 196.456 152.723 194.413 152.723C192.368 152.723 190.712 154.278 190.712 156.195V177.213C190.712 178.133 191.101 179.015 191.795 179.668L201.048 188.347C201.771 189.025 202.719 189.364 203.666 189.364C204.612 189.364 205.561 189.025 206.282 188.347C207.727 186.991 207.727 184.794 206.282 183.438L198.114 175.775Z" fill="white"/>
<path d="M194.413 139.008C171.954 139.008 153.682 156.148 153.682 177.213C153.682 198.28 171.954 215.418 194.413 215.418C216.87 215.418 235.142 198.28 235.142 177.213C235.142 156.148 216.87 139.008 194.413 139.008ZM194.413 208.474C176.035 208.474 161.084 194.452 161.084 177.213C161.084 159.976 176.035 145.952 194.413 145.952C212.789 145.952 227.74 159.976 227.74 177.213C227.74 194.452 212.789 208.474 194.413 208.474Z" fill="white"/>
<path d="M139.599 210.516H8.70904C7.98811 210.516 7.40211 209.966 7.40211 209.29V63.3473H25.5797V185.832C25.5797 190.029 29.221 193.445 33.695 193.445H128.087C130.131 193.445 131.788 191.892 131.788 189.973C131.788 188.055 130.131 186.501 128.087 186.501H33.6969C33.3018 186.501 32.9818 186.201 32.9818 185.832V63.3473H183.304V113.775C183.304 115.692 184.962 117.247 187.005 117.247C189.051 117.247 190.706 115.692 190.706 113.775V63.3473H208.884V115.922C208.884 117.838 210.542 119.393 212.585 119.393C214.63 119.393 216.286 117.838 216.286 115.922V25.5385C216.286 21.0326 212.381 17.3674 207.577 17.3674H191.462V13.2539C191.462 5.94525 185.124 0 177.333 0C169.541 0 163.203 5.94525 163.203 13.2539V17.3674H145.336V13.2539C145.336 5.94525 138.998 0 131.206 0C123.415 0 117.077 5.94525 117.077 13.2539V17.3674H99.2094V13.2539C99.2094 5.94525 92.8714 0 85.0799 0C77.2903 0 70.9503 5.94525 70.9503 13.2539V17.3674H53.0831V13.2539C53.0831 5.94525 46.7451 0 38.9536 0C31.1621 0 24.824 5.94525 24.824 13.2539V17.3674H8.70904C3.90731 17.3674 0 21.0326 0 25.5385V209.29C0 213.794 3.90731 217.459 8.70904 217.459H139.599C141.642 217.459 143.3 215.904 143.3 213.987C143.3 212.069 141.644 210.516 139.599 210.516ZM170.605 13.2539C170.605 9.77314 173.624 6.94336 177.333 6.94336C181.041 6.94336 184.06 9.77314 184.06 13.2539V28.4262C184.06 31.9069 181.041 34.7367 177.333 34.7367C173.624 34.7367 170.605 31.9069 170.605 28.4262V13.2539ZM124.479 13.2539C124.479 9.77314 127.497 6.94336 131.206 6.94336C134.915 6.94336 137.934 9.77314 137.934 13.2539V28.4262C137.934 31.9069 134.915 34.7367 131.206 34.7367C127.495 34.7367 124.479 31.9069 124.479 28.4262V13.2539ZM78.3525 13.2539C78.3525 9.77314 81.3711 6.94336 85.0799 6.94336C88.7887 6.94336 91.8073 9.77314 91.8073 13.2539V28.4262C91.8073 31.9069 88.7887 34.7367 85.0799 34.7367C81.3711 34.7367 78.3525 31.9069 78.3525 28.4262V13.2539ZM32.2262 13.2539C32.2262 9.77314 35.2448 6.94336 38.9536 6.94336C42.6643 6.94336 45.681 9.77314 45.681 13.2539V28.4262C45.681 31.9069 42.6643 34.7367 38.9536 34.7367C35.2448 34.7367 32.2262 31.9069 32.2262 28.4262V13.2539ZM7.40211 25.5385C7.40211 24.8623 7.98811 24.3108 8.70904 24.3108H24.824V28.4262C24.824 35.7348 31.1621 41.68 38.9536 41.68C46.7451 41.68 53.0831 35.7348 53.0831 28.4262V24.3108H70.9503V28.4262C70.9503 35.7348 77.2884 41.68 85.0799 41.68C92.8695 41.68 99.2094 35.7348 99.2094 28.4262V24.3108H117.077V28.4262C117.077 35.7348 123.415 41.68 131.206 41.68C138.996 41.68 145.336 35.7348 145.336 28.4262V24.3108H163.203V28.4262C163.203 35.7348 169.541 41.68 177.333 41.68C185.122 41.68 191.462 35.7348 191.462 28.4262V24.3108H207.577C208.298 24.3108 208.884 24.8623 208.884 25.5385V56.4039H7.40211V25.5385Z" fill="white"/>
<path d="M231.578 214.68C242.288 205.325 249 191.992 249 177.213C249 148.979 224.511 126.01 194.413 126.01C182.163 126.01 170.846 129.814 161.728 136.228V108.561C161.728 91.3363 150.758 84.9463 136.785 84.9463C122.809 84.9463 111.955 91.3363 111.955 108.561V141.168C111.955 158.39 122.811 164.782 136.785 164.782C138.41 164.782 139.994 164.694 141.527 164.513C140.416 168.576 139.825 172.83 139.825 177.213C139.825 191.992 146.537 205.325 157.249 214.68L153.328 224.054C151.545 228.318 153.79 233.147 158.336 234.82L162.688 236.422C163.737 236.807 164.832 237 165.925 237C167.128 237 168.329 236.767 169.464 236.302C171.633 235.415 173.302 233.789 174.165 231.722L176.706 225.651C182.261 227.442 188.218 228.417 194.413 228.417C200.609 228.417 206.565 227.442 212.12 225.651L214.661 231.722C215.525 233.789 217.194 235.415 219.361 236.302C220.498 236.767 221.697 237 222.902 237C223.995 237 225.09 236.807 226.136 236.422L230.491 234.82C235.034 233.147 237.282 228.318 235.499 224.054L231.578 214.68ZM136.783 156.55C127.314 156.55 121.655 151.675 121.655 141.168V108.561C121.655 98.0537 127.314 93.1789 136.783 93.1789C146.253 93.1789 152.027 98.0537 152.027 108.561V141.168C152.027 142.703 151.899 144.115 151.66 145.413C149.249 148.261 147.154 151.353 145.424 154.644C143.079 155.922 140.168 156.55 136.783 156.55ZM167.274 229.187C167.083 229.645 166.709 229.855 166.503 229.939C166.297 230.023 165.879 230.138 165.391 229.959L161.038 228.357C160.292 228.083 159.924 227.289 160.217 226.591L163.286 219.253C165.383 220.624 167.586 221.861 169.882 222.947L167.274 229.187ZM227.786 228.357L223.432 229.959C222.946 230.138 222.528 230.023 222.322 229.939C222.115 229.855 221.741 229.645 221.55 229.187L218.94 222.949C221.238 221.861 223.441 220.624 225.539 219.253L228.608 226.591C228.901 227.289 228.532 228.083 227.786 228.357ZM194.413 221.475C168.394 221.475 147.227 201.618 147.227 177.213C147.227 152.809 168.394 132.953 194.413 132.953C220.431 132.953 241.598 152.809 241.598 177.213C241.598 201.618 220.431 221.475 194.413 221.475Z" fill="white"/>
</svg>
