<svg width="77" height="70" viewBox="0 0 77 70" fill="none" xmlns="http://www.w3.org/2000/svg">
<path d="M38.5 70C37.4038 70 36.3469 69.5942 35.5233 68.8571C32.4127 66.0778 29.4137 63.4659 26.7678 61.1621L26.7543 61.1501C18.9968 54.3951 12.298 48.5616 7.63702 42.8151C2.42681 36.3909 0 30.2998 0 23.6457C0 17.1807 2.1695 11.2163 6.10844 6.85041C10.0944 2.43294 15.5637 0 21.5106 0C25.9553 0 30.0258 1.43587 33.6088 4.2674C35.417 5.69667 37.056 7.44589 38.5 9.48625C39.9446 7.44589 41.583 5.69667 43.3918 4.2674C46.9747 1.43587 51.0453 0 55.49 0C61.4363 0 66.9062 2.43294 70.8921 6.85041C74.8311 11.2163 77 17.1807 77 23.6457C77 30.2998 74.5738 36.3909 69.3636 42.8145C64.7026 48.5616 58.0044 54.3945 50.2481 61.1489C47.5975 63.4563 44.5938 66.0724 41.4761 68.8583C40.6531 69.5942 39.5956 70 38.5 70ZM21.5106 4.60896C16.8385 4.60896 12.5465 6.51425 9.42409 9.97427C6.25531 13.4865 4.50996 18.3416 4.50996 23.6457C4.50996 29.2421 6.54552 34.2472 11.1095 39.8743C15.5208 45.3134 22.0822 51.0269 29.6792 57.6426L29.6933 57.6546C32.3493 59.9675 35.36 62.5895 38.4935 65.3892C41.6459 62.5841 44.6613 59.9579 47.3225 57.6414C54.919 51.0257 61.4798 45.3134 65.8911 39.8743C70.4545 34.2472 72.49 29.2421 72.49 23.6457C72.49 18.3416 70.7447 13.4865 67.5759 9.97427C64.4541 6.51425 60.1615 4.60896 55.49 4.60896C52.0675 4.60896 48.9251 5.72068 46.1505 7.91291C43.6779 9.86742 41.9555 12.3382 40.9456 14.067C40.4263 14.956 39.5122 15.4867 38.5 15.4867C37.4878 15.4867 36.5737 14.956 36.0544 14.067C35.0451 12.3382 33.3227 9.86742 30.8495 7.91291C28.0749 5.72068 24.9325 4.60896 21.5106 4.60896Z" fill="white"/>
</svg>
