<svg width="66" height="67" viewBox="0 0 66 67" fill="none" xmlns="http://www.w3.org/2000/svg">
<path d="M2.49149 1.00003C23.8865 1.15179 43.1738 4.50069 43.1738 4.50069C49.8233 6.355 49.9566 11.9915 49.7278 14.2423C49.6463 15.0435 49.6267 15.8488 49.6714 16.6531C50.511 31.7528 49.8762 48.7753 49.8762 48.7753C50.0467 50.3858 50.0059 52.2769 51.9436 53.1691C56.8381 55.4225 56.8417 57.5098 59.3498 59.242C61.8584 60.9742 63.8187 59.988 64.7866 61.2353C66.2152 63.0763 60.132 68.0342 56.6601 65.0834C53.1876 62.133 48.6613 61.5398 44.8081 62.1392C40.9544 62.7385 39.5036 58.2154 40.5067 55.9319C41.5097 53.6484 41.051 50.8605 41.051 50.8605C41.051 50.8605 38.8728 42.0984 38.2209 36.5651C37.568 31.0236 37.8874 23.0361 37.9794 21.0888C37.9885 20.8957 37.7903 20.7659 37.6208 20.8533C29.1256 25.2471 8.09125 24.8097 2.42509 24.6043C1.62929 24.5752 1 23.9119 1 23.1031V2.5028C1.0005 1.66838 1.67004 0.994414 2.49149 1.00003Z" fill="#FFCDBE"/>
<path d="M59.6436 62.0764C56.3344 58.9293 51.8382 58.0755 47.9481 58.4506C44.0579 58.8261 42.8604 54.2264 43.9929 52.0047C45.1249 49.7825 44.8229 46.9727 44.8229 46.9727C44.8229 46.9727 43.1357 38.0993 42.7949 32.5369C42.453 26.9668 43.2219 19.0106 43.4236 17.072C43.4433 16.8799 43.2522 16.7388 43.0777 16.8165C34.3294 20.7111 13.3036 19.0566 7.64521 18.5236C6.85054 18.4485 6.25808 17.7495 6.30346 16.9422L7.19644 1.08383C5.64494 1.0404 4.07578 1.01128 2.49453 1.00003C1.67113 0.994414 1 1.66838 1 2.50279V23.1029C1 23.9118 1.63079 24.5755 2.42847 24.6041C8.10758 24.8095 29.1918 25.2469 37.7077 20.8536C37.8771 20.7657 38.0763 20.896 38.0672 21.0887C37.9744 23.036 37.6543 31.0239 38.3088 36.5648C38.9622 42.0986 41.146 50.8601 41.146 50.8601C41.146 50.8601 41.6054 53.648 40.6 55.932C39.5945 58.2155 41.0492 62.7381 44.9116 62.1387C48.7745 61.5393 53.3115 62.1326 56.7922 65.0834C59.6033 67.4671 64.1211 64.69 65 62.5643C63.2498 63.3395 61.1361 63.4958 59.6436 62.0764Z" fill="#F7C1B3"/>
<path d="M38 20.9117C39.4016 19.9859 40.5993 19.1652 40.6175 19.1523C41.0334 18.8671 41.5878 18.9941 41.8567 19.4361C42.1251 19.8782 42.0056 20.4676 41.5897 20.7534C41.5682 20.7683 39.9328 21.8896 38.231 23C38.2567 22.1828 38.2833 21.5423 38.301 21.1523C38.309 20.9777 38.1494 20.8581 38 20.9117Z" fill="#EFB5A8"/>
<path d="M15.8504 31.3742C15.4381 31.8004 15.3156 32.4352 15.5393 32.9915C15.7625 33.5482 16.2834 33.9077 16.8666 33.9077H18.7662V39.0211C18.7662 39.562 19.1908 40 19.7147 40C20.2381 40 20.6628 39.562 20.6628 39.0211V33.9077H22.5618C23.1455 33.9077 23.6664 33.5482 23.8896 32.9915C24.1133 32.4352 23.9909 31.8004 23.5781 31.3742L20.7309 28.4338C20.17 27.8551 19.2585 27.8556 18.698 28.4338L15.8504 31.3742Z" fill="white"/>
<path d="M2.45023 0H2.46786C7.52047 0.0354537 12.8865 0.251721 18.4162 0.64171C18.9493 0.679696 19.3509 1.14414 19.3136 1.67999C19.2758 2.21585 18.8133 2.61901 18.2807 2.58204C12.7913 2.19458 7.46656 1.98034 2.45476 1.94488C2.45325 1.94488 2.45224 1.94488 2.45073 1.94488C2.16605 1.94488 1.93479 2.17634 1.93479 2.462V22.8812C1.93479 23.1608 2.15195 23.3872 2.42957 23.3974C15.2647 23.8577 31.2297 23.1021 37.5545 19.6008C38.796 18.8684 40.4909 17.7693 40.5081 17.7587C40.9565 17.467 41.5556 17.5966 41.8453 18.0479C42.135 18.4992 42.006 19.1009 41.5571 19.3921C41.4941 19.4331 40.1619 20.2972 38.9698 21.0174C38.8917 22.6913 38.6791 28.1486 38.9471 32.9734C38.9764 33.5097 38.5682 33.9686 38.0352 33.9985C38.0165 33.9995 37.9984 34 37.9803 34C37.4709 34 37.0436 33.5994 37.0154 33.0818C36.7861 28.9605 36.901 24.3966 36.9907 22.0258C27.7889 25.9095 8.36493 25.5565 2.36054 25.3407C1.03692 25.2936 0 24.2133 0 22.8812V2.462C0 1.09856 1.0989 0 2.45023 0V0Z" fill="black"/>
<path d="M38.337 36.9452C38.8628 36.8664 39.354 37.2366 39.4318 37.7723C40.2147 43.1609 42.0412 50.5509 42.0598 50.625C42.0663 50.6511 42.0718 50.6772 42.0759 50.7038C42.0965 50.8295 42.5685 53.8137 41.4617 56.3397C41.0634 57.2487 41.1764 58.9543 42.0533 60.1255C42.7086 60.9997 43.6081 61.3545 44.7295 61.1802C49.5003 60.4363 54.0924 61.5892 57.3265 64.3433C58.7864 65.5871 61.0157 64.9685 62.577 63.8039C63.7878 62.9005 64.1368 62.0335 64.0635 61.8535C63.8686 61.6025 63.5196 61.533 62.7091 61.4241C56.5019 60.5902 57.8287 56.9425 51.601 54.0698C49.1247 52.9272 49.1448 50.4788 48.9765 48.8837C48.9715 48.8367 48.97 48.7892 48.9715 48.7416C48.978 48.5719 49.5937 31.5827 48.7681 16.6963C48.7209 15.8466 48.741 14.9821 48.8279 14.1262C49.0875 11.5669 48.6782 7.04192 43.0346 5.4407C42.3415 5.3226 34.1171 3.94071 22.882 2.95963C22.3511 2.9131 21.9579 2.43765 22.0036 1.89777C22.0488 1.35739 22.5159 0.957593 23.0462 1.0036C34.8191 2.03121 43.3218 3.49899 43.4062 3.51331C43.4373 3.51893 43.4685 3.52609 43.4991 3.53478C46.6584 4.4177 48.8364 6.19172 49.9719 8.80827C50.8658 10.8671 50.8864 12.9463 50.7463 14.3282C50.6699 15.0802 50.6524 15.8394 50.6935 16.5853C51.4971 31.074 50.9441 47.5259 50.9015 48.7452C51.0732 50.4425 51.0652 51.667 52.3975 52.2815C59.1952 55.4175 57.5862 58.7554 62.9617 59.4778C63.9043 59.6046 64.8791 59.7354 65.5781 60.6383C66.3952 61.694 66.008 63.2344 64.5677 64.6582C62.35 66.8504 58.6267 68.0099 56.0891 65.8494C53.2799 63.4563 49.2457 62.4619 45.0212 63.1209C43.2033 63.4041 41.6043 62.763 40.5201 61.3157C39.2952 59.6802 38.9507 57.2513 39.701 55.5396C40.5135 53.6854 40.2213 51.3597 40.1791 51.0596C40.0209 50.4175 38.2888 43.3204 37.5245 38.0597C37.4466 37.5234 37.8102 37.0244 38.337 36.9452Z" fill="black"/>
</svg>
