<svg width="65" height="58" viewBox="0 0 65 58" fill="none" xmlns="http://www.w3.org/2000/svg">
<path d="M55.2312 56.1543H9.66943C8.34195 56.1345 7.07123 55.6837 6.10793 54.8909C5.14463 54.0981 4.5587 53.0209 4.4657 51.8717L1.00703 6.39871C0.776041 3.35522 3.10168 0.853516 6.20571 0.853516H58.6949C61.7989 0.853516 64.1251 3.35375 63.8936 6.39725L60.4355 51.8687C60.343 53.0185 59.7573 54.0963 58.7938 54.8897C57.8304 55.6831 56.5592 56.1343 55.2312 56.1543V56.1543Z" fill="#430E68"/>
<path d="M48.5454 51.3596H16.3547C14.4511 51.3596 12.8055 50.3726 12.6779 49.1412L10.236 25.5896C10.0724 24.0135 11.7157 22.7188 13.9087 22.7188H50.9924C53.1843 22.7188 54.8288 24.0135 54.6652 25.5896L52.2221 49.1412C52.094 50.3726 50.449 51.3596 48.5454 51.3596Z" fill="white"/>
<path d="M47.7378 9.54461L41.3195 18.6834C38.7892 17.8723 36.1292 17.4067 33.4344 17.3033C32.7768 17.2789 32.1249 17.2789 31.4673 17.3033C28.7725 17.4067 26.1125 17.8723 23.5822 18.6834L17.1639 9.54461C29.1968 4.34614 35.7612 4.35589 47.7378 9.54461V9.54461Z" fill="#BDDFF4"/>
<path d="M63.0078 1.64683C62.4596 1.12858 61.7935 0.714642 61.0515 0.431181C60.3096 0.147719 59.5079 0.000898676 58.6972 0H52.0822C51.8213 0 51.5712 0.0899121 51.3867 0.249957C51.2023 0.410002 51.0987 0.62707 51.0987 0.853407C51.0987 1.07975 51.2023 1.29681 51.3867 1.45686C51.5712 1.6169 51.8213 1.70681 52.0822 1.70681H58.6972C59.2385 1.70881 59.7735 1.80812 60.2683 1.99848C60.7632 2.18884 61.2072 2.46612 61.5724 2.81283C62.0607 3.29115 62.4315 3.85076 62.6622 4.45754C62.893 5.06431 62.9788 5.70552 62.9145 6.34204L59.4525 51.8121C59.3763 52.7456 58.901 53.6209 58.1198 54.2662C57.3386 54.9116 56.3079 55.2805 55.2295 55.3008H9.67223C8.59462 55.2801 7.56469 54.9112 6.78404 54.2663C6.00338 53.6214 5.52819 52.7469 5.45146 51.814L1.98943 6.34447C1.92514 5.70796 2.01098 5.06675 2.24173 4.45998C2.47248 3.8532 2.84328 3.29358 3.33153 2.81527C3.69622 2.46836 4.13979 2.19076 4.63427 1.99999C5.12875 1.80921 5.66342 1.70939 6.20457 1.70681H14.7866C15.0475 1.70681 15.2976 1.6169 15.4821 1.45686C15.6665 1.29681 15.7701 1.07975 15.7701 0.853407C15.7701 0.62707 15.6665 0.410002 15.4821 0.249957C15.2976 0.0899121 15.0475 0 14.7866 0H6.20457C5.39377 0.000890427 4.59201 0.147705 3.84993 0.431165C3.10786 0.714625 2.44162 1.12857 1.89332 1.64683C1.22115 2.29559 0.708707 3.0566 0.387379 3.88323C0.0660517 4.70986 -0.057393 5.58472 0.0246073 6.4542L3.48665 51.9233C3.60218 53.2871 4.30044 54.5644 5.44462 55.5049C6.5888 56.4454 8.09646 56.9813 9.67223 57.0076H55.2295C56.8052 56.9813 58.3129 56.4455 59.4571 55.5051C60.6014 54.5647 61.2998 53.2876 61.4156 51.9237L64.8771 6.4542C64.9591 5.58468 64.8357 4.70978 64.5142 3.88313C64.1928 3.05649 63.6802 2.29551 63.0078 1.64683V1.64683Z" fill="black"/>
<path d="M32.9735 1.70682H46.8441C47.105 1.70682 47.3552 1.6169 47.5396 1.45686C47.7241 1.29681 47.8277 1.07975 47.8277 0.853408C47.8277 0.62707 47.7241 0.410002 47.5396 0.249957C47.3552 0.0899121 47.105 0 46.8441 0H32.9735C32.7127 0 32.4625 0.0899121 32.2781 0.249957C32.0936 0.410002 31.99 0.62707 31.99 0.853408C31.99 1.07975 32.0936 1.29681 32.2781 1.45686C32.4625 1.6169 32.7127 1.70682 32.9735 1.70682V1.70682Z" fill="black"/>
<path d="M20.0247 1.70682H27.73C27.9908 1.70682 28.241 1.6169 28.4254 1.45686C28.6099 1.29681 28.7135 1.07975 28.7135 0.853408C28.7135 0.62707 28.6099 0.410002 28.4254 0.249957C28.241 0.0899121 27.9908 0 27.73 0H20.0247C19.7638 0 19.5137 0.0899121 19.3292 0.249957C19.1448 0.410002 19.0411 0.62707 19.0411 0.853408C19.0411 1.07975 19.1448 1.29681 19.3292 1.45686C19.5137 1.6169 19.7638 1.70682 20.0247 1.70682V1.70682Z" fill="black"/>
<path d="M10.2449 23.1737C9.88763 23.5055 9.61487 23.8989 9.44444 24.3283C9.27401 24.7576 9.20973 25.2133 9.25579 25.6657L11.6994 49.2168C11.8737 50.8958 13.9189 52.2115 16.3558 52.2115H48.5454C50.9818 52.2115 53.0275 50.8948 53.2018 49.2168L55.6449 25.6657C55.691 25.2133 55.6267 24.7576 55.4563 24.3283C55.2859 23.8989 55.0131 23.5055 54.6557 23.1737C54.1826 22.7476 53.6127 22.4113 52.9822 22.1859C52.3517 21.9605 51.6742 21.8511 50.9925 21.8644H13.9087C13.2269 21.8511 12.5493 21.9606 11.9187 22.186C11.2881 22.4113 10.7182 22.7477 10.2449 23.1737V23.1737ZM53.204 24.3256C53.3764 24.4826 53.5085 24.6695 53.5915 24.874C53.6745 25.0785 53.7066 25.296 53.6857 25.5121L51.2426 49.0632C51.1717 49.7459 50.0466 50.5047 48.5449 50.5047H16.3547C14.8529 50.5047 13.7283 49.7454 13.657 49.0632L11.2155 25.5121C11.1942 25.296 11.2261 25.0785 11.309 24.8739C11.392 24.6694 11.5241 24.4825 11.6966 24.3256C11.9857 24.0745 12.3314 23.878 12.712 23.7481C13.0926 23.6183 13.5 23.5581 13.9087 23.5712H50.9925C51.4011 23.5581 51.8084 23.6184 52.1889 23.7482C52.5695 23.878 52.915 24.0746 53.204 24.3256V24.3256Z" fill="black"/>
<path d="M22.7404 19.1281C22.8586 19.2961 23.0401 19.4235 23.2542 19.4887C23.4682 19.5539 23.7017 19.553 23.915 19.486C29.4198 17.7031 35.481 17.7031 40.9858 19.486C41.1992 19.5528 41.4327 19.5537 41.6468 19.4885C41.8608 19.4233 42.0425 19.296 42.1609 19.1281L48.5792 9.98977C48.65 9.88893 48.696 9.77643 48.7141 9.6594C48.7322 9.54236 48.7222 9.42333 48.6845 9.30984C48.6469 9.19635 48.5826 9.09086 48.4956 9.00006C48.4086 8.90926 48.3008 8.83512 48.179 8.78232C35.8478 3.43999 29.0873 3.4395 16.7234 8.78232C16.6015 8.83502 16.4935 8.90912 16.4063 8.99992C16.3192 9.09072 16.2547 9.19624 16.2169 9.3098C16.1792 9.42336 16.1691 9.54248 16.1872 9.65961C16.2053 9.77675 16.2512 9.88934 16.3221 9.99026L22.7404 19.1281ZM46.339 9.89907L40.8942 17.6529C38.485 16.9506 35.9732 16.5487 33.4339 16.4591V12.4993C33.4339 12.2729 33.3303 12.0559 33.1458 11.8958C32.9614 11.7358 32.7112 11.6459 32.4504 11.6459C32.1895 11.6459 31.9394 11.7358 31.7549 11.8958C31.5705 12.0559 31.4668 12.2729 31.4668 12.4993V16.4591C28.9275 16.5491 26.4157 16.9514 24.0066 17.6539L18.5623 9.90004C29.4357 5.34041 35.4943 5.34041 46.339 9.89907V9.89907Z" fill="black"/>
</svg>
