<svg width="277" height="150" viewBox="0 0 277 150" fill="none" xmlns="http://www.w3.org/2000/svg">
<g clip-path="url(#clip0)">
<path d="M139.371 0H15.8025C11.6128 0.00336449 7.59614 1.19184 4.63363 3.30469C1.67111 5.41754 0.00470706 8.28221 0 11.2702V114.751C0.00470793 117.739 1.67112 120.604 4.63363 122.717C7.59615 124.83 11.6128 126.018 15.8025 126.022H139.371C143.561 126.018 147.578 124.83 150.54 122.717C153.503 120.604 155.169 117.739 155.174 114.751V11.2702C155.169 8.28221 153.503 5.41754 150.54 3.30469C147.578 1.19184 143.561 0.00336449 139.371 0Z" fill="#F2F2F2"/>
<path d="M139.372 3.24414H15.8024C12.8189 3.24653 9.95853 4.09286 7.84885 5.59747C5.73917 7.10207 4.55248 9.14208 4.54913 11.2699V114.751C4.55249 116.879 5.73918 118.919 7.84886 120.423C9.95854 121.928 12.8189 122.774 15.8024 122.777H139.372C142.355 122.774 145.215 121.928 147.325 120.423C149.435 118.919 150.621 116.879 150.625 114.751V11.2699C150.621 9.14209 149.435 7.10211 147.325 5.5975C145.215 4.09289 142.355 3.24655 139.372 3.24414Z" fill="white"/>
<path d="M120.774 33.3337H58.2863C57.5884 33.3337 56.919 33.1359 56.4255 32.784C55.932 32.432 55.6548 31.9546 55.6548 31.4569C55.6548 30.9591 55.932 30.4817 56.4255 30.1298C56.919 29.7778 57.5884 29.5801 58.2863 29.5801H120.774C121.12 29.5801 121.462 29.6286 121.781 29.7229C122.101 29.8173 122.391 29.9555 122.635 30.1298C122.879 30.3041 123.073 30.511 123.205 30.7387C123.338 30.9664 123.406 31.2104 123.406 31.4569C123.406 31.7033 123.338 31.9474 123.205 32.1751C123.073 32.4028 122.879 32.6097 122.635 32.784C122.391 32.9582 122.101 33.0965 121.781 33.1908C121.462 33.2851 121.12 33.3337 120.774 33.3337Z" fill="#F2F2F2"/>
<path d="M131.629 39.6676H58.2863C57.5889 39.6671 56.9203 39.4691 56.4274 39.1172C55.9346 38.7653 55.6577 38.2882 55.6577 37.7909C55.6577 37.2935 55.9346 36.8164 56.4274 36.4645C56.9203 36.1126 57.5889 35.9146 58.2863 35.9141H131.629C132.327 35.9146 132.995 36.1126 133.488 36.4645C133.981 36.8164 134.258 37.2935 134.258 37.7909C134.258 38.2882 133.981 38.7653 133.488 39.1172C132.995 39.4691 132.327 39.6671 131.629 39.6676Z" fill="#F2F2F2"/>
<path d="M120.774 61.7204H58.2863C57.5884 61.7204 56.919 61.5226 56.4255 61.1707C55.932 60.8187 55.6548 60.3413 55.6548 59.8436C55.6548 59.3458 55.932 58.8685 56.4255 58.5165C56.919 58.1645 57.5884 57.9668 58.2863 57.9668H120.774C121.12 57.9668 121.462 58.0153 121.781 58.1097C122.101 58.204 122.391 58.3422 122.635 58.5165C122.879 58.6908 123.073 58.8977 123.205 59.1254C123.338 59.3531 123.406 59.5971 123.406 59.8436C123.406 60.0901 123.338 60.3341 123.205 60.5618C123.073 60.7895 122.879 60.9964 122.635 61.1707C122.391 61.345 122.101 61.4832 121.781 61.5775C121.462 61.6718 121.12 61.7204 120.774 61.7204Z" fill="#F2F2F2"/>
<path d="M131.629 68.0544H58.2863C57.5889 68.0538 56.9203 67.8558 56.4274 67.5039C55.9346 67.152 55.6577 66.675 55.6577 66.1776C55.6577 65.6802 55.9346 65.2031 56.4274 64.8512C56.9203 64.4993 57.5889 64.3013 58.2863 64.3008H131.629C132.327 64.3013 132.995 64.4993 133.488 64.8512C133.981 65.2031 134.258 65.6802 134.258 66.1776C134.258 66.675 133.981 67.152 133.488 67.5039C132.995 67.8558 132.327 68.0538 131.629 68.0544Z" fill="#F2F2F2"/>
<path d="M120.774 90.1071H58.2863C57.5884 90.1071 56.919 89.9094 56.4255 89.5574C55.932 89.2054 55.6548 88.7281 55.6548 88.2303C55.6548 87.7326 55.932 87.2552 56.4255 86.9032C56.919 86.5513 57.5884 86.3535 58.2863 86.3535H120.774C121.12 86.3532 121.463 86.4016 121.782 86.4958C122.102 86.59 122.392 86.7282 122.637 86.9025C122.882 87.0768 123.076 87.2838 123.208 87.5116C123.341 87.7394 123.409 87.9837 123.409 88.2303C123.409 88.4769 123.341 88.7212 123.208 88.949C123.076 89.1769 122.882 89.3838 122.637 89.5581C122.392 89.7325 122.102 89.8706 121.782 89.9648C121.463 90.059 121.12 90.1074 120.774 90.1071Z" fill="#F2F2F2"/>
<path d="M131.629 96.4411H58.2863C57.5889 96.4406 56.9203 96.2426 56.4274 95.8907C55.9346 95.5388 55.6577 95.0617 55.6577 94.5643C55.6577 94.0669 55.9346 93.5899 56.4274 93.2379C56.9203 92.886 57.5889 92.6881 58.2863 92.6875H131.629C132.327 92.6881 132.995 92.886 133.488 93.2379C133.981 93.5899 134.258 94.0669 134.258 94.5643C134.258 95.0617 133.981 95.5388 133.488 95.8907C132.995 96.2426 132.327 96.4406 131.629 96.4411Z" fill="#F2F2F2"/>
<path d="M44.2886 42.5437H22.1747C21.8402 42.5435 21.5194 42.4486 21.2829 42.2798C21.0463 42.1111 20.9133 41.8824 20.9129 41.6438V27.605C20.9133 27.3664 21.0463 27.1377 21.2829 26.9689C21.5194 26.8002 21.8402 26.7053 22.1747 26.7051H44.2886C44.6232 26.7053 44.9439 26.8002 45.1805 26.9689C45.417 27.1377 45.5501 27.3664 45.5504 27.605V41.6438C45.5501 41.8824 45.417 42.1111 45.1805 42.2798C44.9439 42.4486 44.6232 42.5435 44.2886 42.5437Z" fill="#E6E6E6"/>
<path d="M44.2886 70.9305H22.1747C21.8402 70.9302 21.5194 70.8353 21.2829 70.6666C21.0463 70.4979 20.9133 70.2691 20.9129 70.0305V55.9917C20.9133 55.7531 21.0463 55.5244 21.2829 55.3557C21.5194 55.187 21.8402 55.0921 22.1747 55.0918H44.2886C44.6232 55.0921 44.9439 55.187 45.1805 55.3557C45.417 55.5244 45.5501 55.7531 45.5504 55.9917V70.0305C45.5501 70.2691 45.417 70.4979 45.1804 70.6666C44.9439 70.8353 44.6232 70.9302 44.2886 70.9305Z" fill="#E6E6E6"/>
<path d="M44.2886 99.3172H22.1747C21.8402 99.3169 21.5194 99.222 21.2829 99.0533C21.0463 98.8846 20.9133 98.6559 20.9129 98.4173V84.3784C20.9133 84.1398 21.0463 83.9111 21.2829 83.7424C21.5194 83.5737 21.8402 83.4788 22.1747 83.4785H44.2886C44.6232 83.4788 44.9439 83.5737 45.1805 83.7424C45.417 83.9111 45.5501 84.1398 45.5504 84.3784V98.4173C45.5501 98.6559 45.417 98.8846 45.1805 99.0533C44.9439 99.222 44.6232 99.3169 44.2886 99.3172Z" fill="#E6E6E6"/>
<path d="M248.227 97.8682L249.208 91.7539L254.123 61.0972L255.103 54.9829C255.575 52.0138 254.375 49.0327 251.768 46.6935C249.162 44.3543 245.36 42.8481 241.198 42.5053L129.666 33.4095C125.503 33.0734 121.323 33.9287 118.043 35.7879C114.763 37.647 112.651 40.3581 112.17 43.3264L112.168 43.3422L105.297 86.1959L105.295 86.2117C104.823 89.1807 106.023 92.1619 108.629 94.5011C111.236 96.8403 115.038 98.3465 119.199 98.6893L230.732 107.785C234.895 108.121 239.075 107.266 242.355 105.407C245.635 103.548 247.747 100.836 248.227 97.8682Z" fill="#E6E6E6"/>
<path d="M243.708 97.4998L244.869 90.2578L249.422 61.8562L250.584 54.6144C250.919 52.5001 250.065 50.3771 248.209 48.7113C246.352 47.0455 243.645 45.9729 240.682 45.7288L129.149 36.6331C126.185 36.3937 123.208 37.0028 120.872 38.3267C118.536 39.6507 117.033 41.5813 116.69 43.6951L116.688 43.7109L109.817 86.5646L109.814 86.5805C109.479 88.6948 110.333 90.8177 112.189 92.4835C114.045 94.1493 116.752 95.2219 119.716 95.466L231.249 104.562C234.213 104.801 237.19 104.192 239.526 102.868C241.861 101.544 243.365 99.6136 243.708 97.4998Z" fill="white"/>
<path d="M225.452 58.6445L163.368 53.5815C163.025 53.5537 162.692 53.4779 162.39 53.3584C162.087 53.239 161.821 53.0781 161.605 52.8851C161.39 52.6921 161.23 52.4708 161.135 52.2337C161.04 51.9966 161.011 51.7484 161.05 51.5034C161.089 51.2584 161.196 51.0213 161.364 50.8057C161.532 50.59 161.757 50.4001 162.028 50.2468C162.299 50.0934 162.61 49.9796 162.942 49.9119C163.275 49.8442 163.623 49.8239 163.966 49.8522L226.05 54.9153C226.742 54.9723 227.375 55.2231 227.809 55.6127C228.243 56.0023 228.442 56.4987 228.362 56.9929C228.283 57.4871 227.932 57.9387 227.386 58.2484C226.84 58.5581 226.145 58.7006 225.452 58.6445Z" fill="#E6E6E6"/>
<path d="M235.227 65.817L162.359 59.8744C162.016 59.8467 161.683 59.7708 161.381 59.6514C161.078 59.5319 160.812 59.371 160.596 59.178C160.381 58.985 160.221 58.7637 160.126 58.5266C160.031 58.2895 160.002 58.0414 160.041 57.7964C160.08 57.5514 160.187 57.3143 160.355 57.0987C160.523 56.883 160.749 56.6931 161.019 56.5398C161.29 56.3864 161.601 56.2727 161.933 56.2049C162.266 56.1372 162.614 56.1169 162.957 56.1452L235.825 62.0877C236.169 62.1157 236.501 62.1917 236.803 62.3113C237.105 62.4308 237.371 62.5917 237.587 62.7846C237.802 62.9776 237.961 63.1988 238.056 63.4358C238.151 63.6727 238.18 63.9207 238.141 64.1656C238.102 64.4105 237.995 64.6474 237.827 64.8629C237.66 65.0784 237.434 65.2683 237.164 65.4216C236.893 65.575 236.583 65.6888 236.251 65.7567C235.918 65.8245 235.571 65.845 235.227 65.817Z" fill="#E6E6E6"/>
<path d="M233.196 78.3677L125.765 69.6065C125.073 69.5495 124.44 69.2986 124.006 68.909C123.572 68.5195 123.373 68.023 123.453 67.5288C123.532 67.0346 123.883 66.5831 124.429 66.2734C124.974 65.9637 125.67 65.8212 126.363 65.8772L233.794 74.6384C234.137 74.6662 234.47 74.742 234.772 74.8615C235.075 74.981 235.341 75.1418 235.557 75.3348C235.772 75.5278 235.932 75.7491 236.027 75.9862C236.122 76.2233 236.151 76.4714 236.112 76.7164C236.072 76.9615 235.966 77.1985 235.798 77.4142C235.63 77.6298 235.404 77.8197 235.134 77.973C234.863 78.1264 234.552 78.2402 234.22 78.3079C233.887 78.3756 233.539 78.3959 233.196 78.3677H233.196Z" fill="#E6E6E6"/>
<path d="M232.532 84.6888L124.756 75.8994C124.064 75.8424 123.431 75.5916 122.997 75.202C122.563 74.8124 122.364 74.316 122.444 73.8218C122.523 73.3276 122.874 72.876 123.42 72.5663C123.965 72.2566 124.661 72.1141 125.354 72.1701L233.13 80.9595C233.823 81.0165 234.456 81.2674 234.889 81.6569C235.323 82.0465 235.522 82.5429 235.443 83.0371C235.364 83.5313 235.012 83.9829 234.467 84.2926C233.921 84.6023 233.225 84.7448 232.532 84.6888Z" fill="#E6E6E6"/>
<path d="M231.219 90.7001L123.788 81.9389C123.445 81.9111 123.112 81.8353 122.81 81.7159C122.507 81.5964 122.241 81.4355 122.025 81.2425C121.81 81.0495 121.65 80.8282 121.555 80.5911C121.46 80.354 121.431 80.1059 121.47 79.8608C121.509 79.6158 121.616 79.3787 121.784 79.1631C121.952 78.9475 122.177 78.7575 122.448 78.6042C122.719 78.4508 123.03 78.3371 123.362 78.2694C123.695 78.2017 124.043 78.1814 124.386 78.2096L231.817 86.9708C232.509 87.0278 233.142 87.2787 233.576 87.6683C234.01 88.0578 234.209 88.5542 234.129 89.0485C234.05 89.5427 233.699 89.9942 233.153 90.3039C232.608 90.6136 231.912 90.7561 231.219 90.7001V90.7001Z" fill="#E6E6E6"/>
<path d="M230.555 97.0208L122.779 88.2314C122.086 88.1744 121.454 87.9236 121.02 87.534C120.586 87.1444 120.387 86.648 120.466 86.1538C120.546 85.6596 120.897 85.2081 121.443 84.8984C121.988 84.5887 122.684 84.4462 123.377 84.5022L231.153 93.2915C231.496 93.3193 231.829 93.3951 232.131 93.5145C232.434 93.634 232.7 93.7949 232.916 93.9879C233.131 94.1809 233.291 94.4022 233.386 94.6393C233.481 94.8764 233.51 95.1245 233.471 95.3696C233.432 95.6146 233.325 95.8517 233.157 96.0673C232.989 96.2829 232.764 96.4729 232.493 96.6262C232.222 96.7796 231.911 96.8933 231.579 96.961C231.246 97.0287 230.898 97.049 230.555 97.0208Z" fill="#E6E6E6"/>
<path d="M147.994 61.5961L126.023 59.8043C125.691 59.777 125.388 59.6567 125.179 59.4699C124.971 59.2831 124.875 59.0451 124.913 58.808L127.149 44.8601C127.188 44.6231 127.356 44.4066 127.618 44.2581C127.88 44.1097 128.214 44.0414 128.546 44.0682L150.517 45.86C150.849 45.8873 151.153 46.0076 151.361 46.1944C151.569 46.3812 151.665 46.6192 151.627 46.8563L149.391 60.8042C149.353 61.0412 149.184 61.2577 148.922 61.4062C148.66 61.5546 148.327 61.6229 147.994 61.5961Z" fill="#6C63FF"/>
<path d="M276.672 149.963H204.76C204.673 149.963 204.59 149.938 204.528 149.894C204.466 149.85 204.432 149.79 204.432 149.728C204.432 149.666 204.466 149.607 204.528 149.563C204.59 149.519 204.673 149.494 204.76 149.494H276.672C276.759 149.494 276.842 149.519 276.904 149.563C276.965 149.607 277 149.666 277 149.728C277 149.79 276.965 149.85 276.904 149.894C276.842 149.938 276.759 149.963 276.672 149.963Z" fill="#3F3D56"/>
<path d="M249.669 60.496C249.559 60.8072 249.545 61.1319 249.63 61.4472C249.714 61.7625 249.894 62.0608 250.158 62.3211C250.422 62.5813 250.762 62.7972 251.155 62.9534C251.548 63.1097 251.985 63.2026 252.434 63.2255L254.658 67.9862L259.045 67.7277L255.771 61.0361C255.775 60.4956 255.501 59.9729 255 59.5668C254.5 59.1608 253.808 58.8998 253.056 58.8332C252.304 58.7666 251.544 58.8991 250.92 59.2056C250.295 59.512 249.851 59.9712 249.669 60.496Z" fill="#FFB8B8"/>
<path d="M253.028 91.6708C253.543 92.0075 254.172 92.2415 254.853 92.3493C255.535 92.457 256.244 92.4347 256.91 92.2845C257.575 92.1343 258.173 91.8615 258.644 91.4938C259.114 91.126 259.44 90.6763 259.589 90.19L263.063 78.8383C263.657 76.8971 263.517 74.8782 262.658 72.9883L258.592 64.0481C258.533 63.9198 258.437 63.802 258.309 63.7028C258.181 63.6035 258.024 63.5252 257.85 63.4731C257.675 63.421 257.487 63.3964 257.298 63.4009C257.109 63.4055 256.924 63.4391 256.754 63.4995L254.101 64.447C253.826 64.5451 253.608 64.7088 253.485 64.9096C253.362 65.1105 253.342 65.3357 253.428 65.5462L253.695 66.2024C255.92 71.659 256.037 77.4429 254.033 82.943L251.872 88.8749C251.691 89.3719 251.703 89.8947 251.907 90.3872C252.11 90.8797 252.498 91.3234 253.028 91.6708Z" fill="#6C63FF"/>
<path d="M239.128 147.514L235.374 147.514L233.589 137.188L239.129 137.188L239.128 147.514Z" fill="#FFB8B8"/>
<path d="M232.692 146.748H239.932V149.999H228.134C228.134 149.572 228.252 149.149 228.481 148.755C228.71 148.36 229.046 148.002 229.469 147.7C229.892 147.398 230.395 147.159 230.948 146.996C231.501 146.832 232.094 146.748 232.692 146.748Z" fill="#2F2E41"/>
<path d="M259.362 147.514L255.608 147.514L253.823 137.188L259.363 137.188L259.362 147.514Z" fill="#FFB8B8"/>
<path d="M252.926 146.748H260.166V149.999H248.368C248.368 149.572 248.486 149.149 248.715 148.755C248.944 148.36 249.28 148.002 249.703 147.7C250.127 147.398 250.629 147.159 251.182 146.996C251.735 146.832 252.328 146.748 252.926 146.748Z" fill="#2F2E41"/>
<path d="M248.368 74.1033C252.822 74.1033 256.433 71.5281 256.433 68.3514C256.433 65.1748 252.822 62.5996 248.368 62.5996C243.914 62.5996 240.303 65.1748 240.303 68.3514C240.303 71.5281 243.914 74.1033 248.368 74.1033Z" fill="#FFB8B8"/>
<path d="M220.791 105.863C220.848 105.544 221.001 105.238 221.241 104.967C221.481 104.695 221.802 104.464 222.18 104.291C222.559 104.117 222.986 104.005 223.432 103.961C223.878 103.918 224.332 103.945 224.762 104.041L229.269 100.188L233.221 101.57L226.748 106.948C226.476 107.452 225.953 107.867 225.279 108.115C224.606 108.363 223.828 108.426 223.094 108.292C222.36 108.159 221.72 107.837 221.295 107.39C220.871 106.942 220.692 106.398 220.791 105.863Z" fill="#FFB8B8"/>
<path d="M250.332 74.1016C251.545 74.1203 252.751 73.9556 253.869 73.6183C254.987 73.281 255.993 72.7788 256.82 72.1446C257.646 71.5105 258.275 70.7587 258.666 69.9388C259.056 69.1189 259.198 68.2493 259.084 67.3873C258.969 66.5253 258.6 65.6903 258.001 64.9373C257.402 64.1842 256.586 63.5301 255.607 63.0179C254.628 62.5058 253.508 62.1472 252.321 61.9657C251.134 61.7842 249.907 61.7839 248.719 61.9648C246.946 61.1968 244.884 60.68 242.817 60.8114C240.75 60.9429 238.707 61.8179 237.934 63.1913C237.161 64.5646 237.991 66.3748 239.913 66.9329C241.145 67.2907 242.536 67.1172 243.851 66.9729C245.165 66.8286 246.6 66.7345 247.744 67.2183C248.888 67.7021 249.402 68.9994 248.378 69.6043C247.834 69.9376 247.447 70.3811 247.266 70.8756C247.085 71.3701 247.119 71.8922 247.365 72.3724C247.88 73.3223 249.286 74.0854 250.332 74.1016Z" fill="#2F2E41"/>
<path d="M260.338 105.634L261.768 144.354C261.773 144.483 261.74 144.612 261.672 144.731C261.604 144.851 261.502 144.959 261.373 145.049C261.243 145.14 261.089 145.21 260.919 145.255C260.75 145.301 260.569 145.321 260.388 145.314L255.676 145.143C255.375 145.132 255.089 145.048 254.865 144.904C254.641 144.761 254.493 144.567 254.446 144.354L248.84 119.205C248.816 119.098 248.74 119 248.626 118.928C248.511 118.856 248.365 118.814 248.212 118.811C248.059 118.807 247.91 118.842 247.789 118.909C247.668 118.976 247.584 119.07 247.551 119.177L239.963 143.391C239.922 143.52 239.844 143.642 239.732 143.748C239.621 143.854 239.479 143.942 239.316 144.007C239.153 144.071 238.973 144.109 238.788 144.12C238.603 144.131 238.416 144.114 238.241 144.069L233.564 143.865C233.293 143.797 233.062 143.667 232.905 143.495C232.747 143.324 232.673 143.121 232.694 142.916L236.777 105.268L260.338 105.634Z" fill="#2F2E41"/>
<path d="M262.634 87.2443C263.423 81.3767 257.374 76.0694 249.129 75.6519C245.577 75.472 240.063 75.4077 238.245 78.7283C232.768 88.7312 242.355 88.4882 239.052 97.1547C235.749 105.821 232.832 106.318 237.364 106.944C241.896 107.57 262.276 111.264 261.439 105.164C260.924 101.414 261.847 93.0972 262.634 87.2443Z" fill="#6C63FF"/>
<path d="M239.871 77.7103C240.522 77.5307 241.228 77.4766 241.917 77.5536C242.607 77.6307 243.256 77.836 243.799 78.1491C244.341 78.4621 244.759 78.8717 245.008 79.3365C245.258 79.8013 245.332 80.3049 245.221 80.7965L242.647 92.2695C242.207 94.2314 241.044 96.0746 239.277 97.6105L230.917 104.876C230.797 104.98 230.647 105.065 230.477 105.124C230.306 105.183 230.121 105.215 229.932 105.218C229.742 105.221 229.555 105.195 229.381 105.142C229.207 105.088 229.052 105.009 228.925 104.909L226.94 103.336C226.734 103.173 226.615 102.964 226.603 102.745C226.591 102.526 226.688 102.311 226.875 102.137L227.46 101.596C232.323 97.0945 235.392 91.7399 236.341 86.0977L237.364 80.0124C237.45 79.5025 237.728 79.0189 238.17 78.6134C238.612 78.2079 239.2 77.8957 239.871 77.7103Z" fill="#6C63FF"/>
</g>
<defs>
<clipPath id="clip0">
<rect width="277" height="150" fill="white"/>
</clipPath>
</defs>
</svg>
