<svg width="879" height="840" viewBox="0 0 879 840" fill="none" xmlns="http://www.w3.org/2000/svg">
<path d="M680.811 359.946L676.361 354.574V349.201L223.127 343.829C216.59 372.969 201.444 406.617 202.304 451.515C204.781 580.238 251.247 717.337 311.482 816.596C416.374 816.596 569.22 816.596 585.654 816.596C634.917 735.44 690.164 591.212 693.922 451.558C695.136 406.528 687.197 389.022 680.811 359.946Z" fill="#FFCDB3"/>
<path d="M401.953 386.804C496.543 386.804 584.622 362.547 658.44 322.928L658.562 322.873C619.611 232.603 598.033 126.905 603.561 21.4844H306.92C307.806 140.498 282.924 258.626 240.286 362.463C282.564 375.547 337.4 386.804 401.953 386.804Z" fill="#FFCDB3"/>
<path d="M222.712 435.093C276.334 478.487 401.552 574.033 449.073 620.205C521.961 549.374 602.987 455.597 689.167 419.333L689.195 419.315C681.564 383.854 668.977 356.31 656.052 319.226L655.954 319.28C596.412 358.845 525.368 383.07 449.073 383.07C403.368 383.07 285.327 334.756 244.736 319.28C237.639 345.281 226.518 391.116 222.712 435.093Z" fill="#430E68"/>
<path d="M576.138 127.694C576.138 117.625 569.83 109.453 562.059 109.453C554.287 109.453 547.979 117.625 547.979 127.694C547.979 137.763 554.287 145.935 562.059 145.935C569.83 145.935 576.138 137.763 576.138 127.694Z" fill="black"/>
<path d="M622.264 5.70037C619.606 2.06125 615.907 0 612.04 0H286.808C282.941 0 279.242 2.06125 276.584 5.70037C273.926 9.33948 272.539 14.2354 272.75 19.239C281.361 222.59 211.893 340.389 195.638 414.257C166.248 547.436 214.193 719.45 281.373 832.011C284.039 836.478 288.152 839.094 292.511 839.094H606.352C610.709 839.094 614.822 836.478 617.489 832.013C681.43 724.91 731.505 545.852 703.109 414.41C687.125 340.136 617.446 223.531 626.098 19.239C626.311 14.2372 624.924 9.3413 622.264 5.70037ZM649.708 343.804C651.415 348.445 653.105 352.974 654.766 357.417C661.376 375.102 667.288 390.957 671.982 407.976C591.507 447.222 515.67 532.018 449.424 597.336C382.894 531.745 307.301 447.186 226.804 407.951C231.549 390.952 237.456 375.12 244.058 357.463C245.727 353.003 247.423 348.457 249.137 343.802C310.697 381.467 379.621 401.306 449.424 401.306C519.226 401.306 588.149 381.467 649.708 343.804ZM219.198 443.233C295.442 481.158 367.676 562.87 435.345 629.271V802.611H299.49C226.97 677.01 205.329 534.481 219.198 443.233ZM599.349 802.611H463.503V629.271C531.653 562.388 603.44 481.224 679.425 443.342C696.166 558.621 652.512 709.525 599.349 802.611ZM634.634 299.429C635.752 303.099 636.924 306.8 638.136 310.543C580.208 346.097 515.256 364.823 449.424 364.823C383.592 364.823 318.638 346.097 260.71 310.543C261.908 306.837 263.075 303.154 264.199 299.471C290.597 212.843 303.108 124.465 301.454 36.4842H597.392C595.739 124.43 608.245 212.791 634.634 299.429Z" fill="black"/>
<path d="M581.102 196.5C579.465 186.653 571.973 180.382 564.374 182.509C556.773 184.631 551.938 194.333 553.576 204.181C557.823 229.732 563.254 255.647 569.713 281.208C572.129 290.767 580.072 296.007 587.476 292.866C594.866 289.731 598.894 279.428 596.474 269.853C590.316 245.492 585.144 220.814 581.102 196.5Z" fill="black"/>
<path d="M864.921 438.282H777.829L810.111 396.457C815.609 389.334 815.609 377.783 810.111 370.658C804.614 363.533 795.699 363.535 790.199 370.658L733.882 443.623C728.384 450.746 728.384 462.297 733.882 469.422L790.199 542.386C795.697 549.51 804.612 549.51 810.111 542.386C815.609 535.263 815.609 523.713 810.111 516.588L777.829 474.764H864.921C872.697 474.764 879 466.598 879 456.523C879 446.449 872.697 438.282 864.921 438.282Z" fill="white"/>
<path d="M14.0793 474.762H101.171L68.8885 516.587C63.3906 523.71 63.3906 535.261 68.8885 542.386C74.3865 549.509 83.3015 549.509 88.8008 542.386L145.118 469.421C150.616 462.298 150.616 450.747 145.118 443.622L88.8008 370.658C83.3029 363.535 74.3879 363.535 68.8885 370.658C63.3891 377.781 63.3906 389.331 68.8885 396.456L101.171 438.28H14.0793C6.30329 438.28 0 446.446 0 456.521C0 466.595 6.30329 474.762 14.0793 474.762Z" fill="white"/>
</svg>
