<svg width="256" height="223" viewBox="0 0 256 223" fill="none" xmlns="http://www.w3.org/2000/svg">
<path opacity="0.1" d="M249.1 154.141C248.846 154.334 248.613 154.522 248.365 154.705C247.448 155.382 246.488 155.994 245.492 156.535C240.274 159.409 233.842 160.812 227.577 161.766C213.526 163.906 199.181 164.322 184.897 164.73C146.301 165.837 107.611 166.941 69.1094 164.391C53.8972 163.384 38.3503 161.7 24.5655 156.535C22.5896 155.797 20.6526 154.983 18.7545 154.093C14.9134 152.29 11.2245 150.094 8.15666 147.472C5.27395 145.014 2.93635 142.191 1.53936 138.981C-1.37377 132.296 0.167725 124.787 3.49412 118.235C4.87565 115.584 6.43366 113.038 8.15666 110.615C10.725 106.926 13.557 103.342 16.1405 99.6553C25.3338 86.5504 31.3324 69.9706 22.8466 56.5294C20.4075 52.6678 16.8834 49.2777 14.8957 45.2466C12.3603 40.0899 12.5555 34.3638 13.3618 28.8019C13.4666 28.0956 13.5773 27.3964 13.6939 26.7043C15.0706 18.4568 17.6617 9.57096 25.6507 4.42222C33.9489 -0.927808 45.7333 -0.657658 56.032 1.24399C72.0479 4.23152 86.8214 10.4503 101.752 16.0651C116.683 21.68 132.303 26.8102 148.712 27.3611C163.202 27.8484 180.103 24.2014 189.719 14.7223C199.06 5.51606 216.617 4.8142 229.271 10.3761C237.957 14.1926 244.437 21.0682 247.171 28.8019C247.724 30.3546 248.123 31.9628 248.36 33.601C248.579 35.0982 248.65 36.615 248.573 38.1274C248.535 38.8743 248.461 39.6132 248.36 40.3442C246.245 55.605 231.025 67.6426 221.774 81.2745C217.253 87.9329 214.061 95.9315 217.17 103.112C221.911 114.053 238.398 117.943 248.355 126.085C250.228 127.567 251.878 129.335 253.248 131.329C258.078 138.575 256.295 148.362 249.1 154.141Z" fill="#0D0D58"/>
<path d="M248.831 154.651V25.1035H7.62939V147.219C10.7099 149.905 14.414 152.164 18.2779 154.021C20.1811 154.937 22.1249 155.775 24.1093 156.534H245.954L248.831 154.651Z" fill="url(#paint0_linear)"/>
<path d="M248.365 154.703V28.8105H8.1568V147.491C11.2246 150.103 14.9135 152.298 18.7546 154.112C20.6511 154.995 22.5881 155.809 24.5657 156.554H245.492L248.365 154.703Z" fill="white"/>
<path d="M248.365 25.4707H8.1593V32.1291H248.365V25.4707Z" fill="#5A5773"/>
<path d="M12.9561 30.5232C13.8663 30.5232 14.6041 29.7524 14.6041 28.8016C14.6041 27.8508 13.8663 27.0801 12.9561 27.0801C12.0459 27.0801 11.3081 27.8508 11.3081 28.8016C11.3081 29.7524 12.0459 30.5232 12.9561 30.5232Z" fill="white"/>
<path d="M17.393 30.5232C18.3031 30.5232 19.041 29.7524 19.041 28.8016C19.041 27.8508 18.3031 27.0801 17.393 27.0801C16.4828 27.0801 15.745 27.8508 15.745 28.8016C15.745 29.7524 16.4828 30.5232 17.393 30.5232Z" fill="white"/>
<path d="M21.8299 30.5232C22.74 30.5232 23.4779 29.7524 23.4779 28.8016C23.4779 27.8508 22.74 27.0801 21.8299 27.0801C20.9197 27.0801 20.1819 27.8508 20.1819 28.8016C20.1819 29.7524 20.9197 30.5232 21.8299 30.5232Z" fill="white"/>
<path d="M109.221 46.7637H69.543V72.8093H109.221V46.7637Z" fill="#0D0D58"/>
<path opacity="0.2" d="M54.2826 46.7637H14.6041V72.8093H54.2826V46.7637Z" fill="#5A5773"/>
<path opacity="0.2" d="M164.16 46.7637H124.482V72.8093H164.16V46.7637Z" fill="#5A5773"/>
<path opacity="0.2" d="M54.2826 84H14.6041V110.046H54.2826V84Z" fill="#5A5773"/>
<path opacity="0.2" d="M109.221 84H69.543V110.046H109.221V84Z" fill="#5A5773"/>
<path opacity="0.2" d="M164.16 84H124.482V110.046H164.16V84Z" fill="#5A5773"/>
<path opacity="0.2" d="M54.2826 121.232H14.6041V147.278H54.2826V121.232Z" fill="#5A5773"/>
<path opacity="0.2" d="M109.221 121.232H69.543V147.278H109.221V121.232Z" fill="#5A5773"/>
<path opacity="0.2" d="M164.16 121.232H124.482V147.278H164.16V121.232Z" fill="#5A5773"/>
<path d="M99.4982 69.578L96.76 70.5897L95.7662 68.8681C95.0056 67.5439 93.9508 65.7323 93.1725 64.416C91.7983 62.1012 93.5959 58.5733 93.5959 58.5733C93.5959 58.5733 93.9204 55.0322 95.0765 53.9411C96.2327 52.8499 96.5547 58.5733 96.5547 58.5733C101.197 60.7769 98.7097 65.9601 98.7097 65.9601L99.161 68.0153L99.4982 69.578Z" fill="#EFB7B9"/>
<path opacity="0.1" d="M99.4982 69.5779L96.76 70.5897L95.7661 68.8681V68.7172C95.7661 68.7172 97.3355 67.5915 99.166 68.0153L99.4982 69.5779Z" fill="black"/>
<path d="M95.0765 81.179L96.4482 79.9659L95.7611 69.0487C95.7611 69.0487 99.3106 66.5114 101.937 70.4815C101.937 70.4815 101.831 72.9076 101.937 73.5697C102.044 74.2319 101.199 74.894 101.937 75.5535C102.675 76.213 101.937 78.4218 101.937 78.4218C101.937 78.4218 102.771 79.9659 103.299 80.4056C103.826 80.8452 104.356 84.487 103.299 85.2577C102.241 86.0284 100.259 87.795 100.259 88.5657C100.259 89.3364 97.7235 91.2142 97.7235 91.2142L95.4974 88.1393L95.0765 81.179Z" fill="#FF6484"/>
<path d="M65.4129 147.449C60.2965 145.182 61.4323 139.644 62.3958 136.855C62.5883 136.29 62.8144 135.738 63.0727 135.202L65.9428 133.383C65.9428 133.383 66.5284 134.943 67.1547 137.035C68.6074 141.903 70.2782 149.608 65.4129 147.449Z" fill="#EFB7B9"/>
<path d="M72.4459 197.981C72.0995 198.686 71.8438 199.436 71.6853 200.211C71.432 201.458 71.3214 202.732 71.3557 204.007C71.376 204.889 71.4469 205.466 71.4469 205.466L65.7474 209.561C65.7474 209.561 65.7804 209.081 65.8362 208.377C65.9832 206.501 66.29 203.021 66.579 202.571C66.7793 202.259 66.9188 201.003 67.0075 199.838C67.0963 198.672 67.1317 197.65 67.1317 197.65C67.1317 197.65 73.9899 194.964 72.4459 197.981Z" fill="#EFB7B9"/>
<path d="M85.9061 200.919C85.9061 200.919 85.9061 202.057 85.8655 203.382C85.8249 204.706 85.7489 206.269 85.5892 206.997C85.4421 207.664 85.432 208.891 85.4598 210.022C85.4979 211.346 85.5892 212.538 85.5892 212.538C85.5892 212.538 79.7705 206.79 80.3638 206.335C80.5235 206.213 80.6807 205.723 80.8252 205.071C81.0027 204.277 81.1624 203.217 81.2816 202.317C81.4235 201.244 81.5123 200.381 81.5123 200.381L85.9061 200.919Z" fill="#EFB7B9"/>
<path opacity="0.1" d="M72.446 197.981C72.0996 198.686 71.8438 199.436 71.6853 200.211C70.1253 200.168 68.5683 200.044 67.0203 199.838C67.1065 198.699 67.1445 197.65 67.1445 197.65C67.1445 197.65 73.99 194.964 72.446 197.981Z" fill="black"/>
<path opacity="0.1" d="M85.9062 200.919C85.9062 200.919 85.9062 202.058 85.8656 203.382C84.0503 203.867 82.1842 202.897 81.2816 202.323C81.4236 201.25 81.5123 200.387 81.5123 200.387L85.9062 200.919Z" fill="black"/>
<path d="M97.8199 144.583C95.4975 149.88 94.5467 156.163 94.5467 156.163L93.7025 161.46C93.7025 161.46 94.1259 163.774 93.7025 164.656C93.2791 165.538 92.4348 166.974 92.4348 166.974C92.4348 166.974 93.0686 172.377 92.4348 172.928C91.8009 173.479 92.4348 176.787 92.4348 176.787L90.3228 187.91L87.3666 202.244C84.5168 204.673 80.7239 201.585 80.7239 201.585L81.5606 192.212C81.5606 192.212 82.8283 175.791 82.3009 175.118C81.7736 174.445 82.5113 172.361 82.5113 172.361C82.5113 172.361 83.2517 170.375 82.7243 169.604C82.197 168.833 82.8283 167.178 82.8283 167.178C82.8283 167.178 82.6178 160.451 83.2517 158.906C83.8855 157.362 83.2517 147.812 83.2517 147.812L82.9981 144.837L82.8511 143.19L82.8384 143.028C82.8384 143.028 82.7421 143.688 82.5849 144.71C82.1184 147.822 81.1245 154.272 80.7315 155.598C80.4644 156.555 80.1015 157.479 79.6489 158.356C79.6489 158.356 80.1966 161.664 79.6489 162.546C79.1013 163.427 79.5652 164.421 79.5652 164.421C79.5652 164.421 80.0926 167.178 78.508 168.28C76.9234 169.381 78.508 169.935 78.508 169.935C78.508 169.935 77.3468 172.583 76.9259 173.683C76.5051 174.782 76.9259 176.331 76.9259 176.331L76.0817 185.262C76.0817 185.262 75.3413 189.01 75.4478 191.547C75.5543 194.084 74.4971 199.927 74.4971 199.927C74.4971 199.927 66.3687 199.927 65.1162 198.934C63.8637 197.94 67.2079 188.252 67.2079 188.252C67.2079 188.252 68.1586 171.27 67.9457 170.83C67.7327 170.39 67.9457 167.08 68.686 166.42C69.4263 165.761 68.686 164.434 68.686 164.434C68.686 164.434 68.4756 161.785 68.686 161.126C68.8964 160.466 68.653 158.258 68.653 158.258C68.653 158.258 67.9457 152.855 67.8417 149.766C67.7378 146.678 67.2079 139.734 67.2079 139.734C67.2079 139.734 67.7606 135.438 67.8442 133.393C67.8747 132.641 68.1967 131.701 68.6049 130.816C69.0617 129.817 69.5871 128.854 70.1768 127.935C70.1768 127.935 95.1882 120.211 96.2378 120.979C96.5167 121.183 96.9224 122.569 97.323 124.574C98.4385 130.175 99.5287 140.69 97.8199 144.583Z" fill="#444053"/>
<path d="M82.4099 77.1872C86.4328 77.1872 89.694 73.7804 89.694 69.578C89.694 65.3755 86.4328 61.9688 82.4099 61.9688C78.3869 61.9688 75.1257 65.3755 75.1257 69.578C75.1257 73.7804 78.3869 77.1872 82.4099 77.1872Z" fill="#A1616A"/>
<path opacity="0.1" d="M97.3229 124.579C96.4837 125.029 95.9208 125.339 95.9208 125.339C95.9208 125.339 84.0984 131.184 80.7365 130.853C78.1353 130.588 71.4951 130.739 68.6023 130.814C69.0592 129.815 69.5845 128.852 70.1742 127.932C70.1742 127.932 95.1881 120.211 96.2377 120.98C96.5166 121.189 96.9223 122.569 97.3229 124.579Z" fill="black"/>
<path d="M77.3416 81.7294C77.3416 81.7294 70.595 82.8418 69.0028 83.933C67.4106 85.0242 64.2566 87.1324 64.2566 91.6535C64.2566 96.1745 63.5188 100.807 63.0954 102.128C62.672 103.45 69.7457 114.147 69.7457 114.147L67.2103 130.359C67.2103 130.359 77.3518 130.028 80.7289 130.359C84.106 130.69 95.9233 124.845 95.9233 124.845C95.9233 124.845 102.891 120.986 104.369 120.872C105.847 120.758 101.412 112.381 101.412 112.381C101.412 112.381 94.5492 98.8204 95.7104 96.6142C96.8716 94.4079 97.7234 91.2112 97.7234 91.2112L96.4558 79.9655C96.4558 79.9655 94.5568 79.3034 92.9722 80.5164C91.3876 81.7294 86.005 81.0673 86.005 81.0673L77.3416 81.7294Z" fill="#FF6484"/>
<path opacity="0.1" d="M65.8895 101.358L63.2426 102.128L62.5098 112.505C62.5098 112.505 63.4606 115.262 62.5098 116.144C61.5591 117.026 61.3486 135.884 61.3486 135.884C61.3486 135.884 64.4114 138.199 67.9989 136.435C67.9989 136.435 67.4715 134.34 69.0561 126.73C70.6407 119.121 70.6382 115.262 70.6382 115.262C70.6382 115.262 70.6382 105.778 71.3785 104.234C72.1189 102.69 71.3785 98.8308 71.3785 98.8308C71.3785 98.8308 69.9004 96.7359 70.0044 95.9651C70.1083 95.1944 65.8895 101.358 65.8895 101.358Z" fill="black"/>
<path opacity="0.1" d="M67.1546 137.043C65.6002 137.59 63.9083 137.526 62.3958 136.863C62.5883 136.298 62.8144 135.746 63.0727 135.21L65.9427 133.391C65.9427 133.391 66.5385 134.951 67.1546 137.043Z" fill="black"/>
<path d="M65.7297 101.358L63.0904 102.129L62.3526 112.506C62.3526 112.506 63.3034 115.263 62.3526 116.145C61.4018 117.027 61.1914 135.884 61.1914 135.884C61.1914 135.884 64.2567 138.197 67.8417 136.425C67.8417 136.425 67.3143 134.33 68.8964 126.721C70.4785 119.111 70.481 115.252 70.481 115.252C70.481 115.252 70.481 105.768 71.2188 104.224C71.9566 102.68 71.2188 98.821 71.2188 98.821C71.2188 98.821 69.7407 96.726 69.8472 95.9553C69.9536 95.1845 65.7297 101.358 65.7297 101.358Z" fill="#FF6484"/>
<path opacity="0.1" d="M92.7543 103.01C92.7543 103.01 91.3826 115.36 87.3691 117.677C87.3691 117.677 96.3418 115.031 92.7543 103.01Z" fill="black"/>
<path opacity="0.1" d="M72.593 104.115C72.593 104.115 77.5522 106.65 76.3961 108.414C75.2399 110.178 72.593 104.115 72.593 104.115Z" fill="black"/>
<path opacity="0.1" d="M72.593 109.188C72.593 109.188 75.7597 112.607 75.1284 113.82C74.4971 115.033 72.593 109.188 72.593 109.188Z" fill="black"/>
<path opacity="0.1" d="M98.1367 80.8477C98.1367 80.8477 99.3791 83.0512 99.4982 84.4867C99.6174 85.9222 98.1367 80.8477 98.1367 80.8477Z" fill="black"/>
<path opacity="0.1" d="M98.1367 77.871C98.1367 77.871 98.7604 77.3175 100.353 77.871C101.945 78.4245 98.1367 77.871 98.1367 77.871Z" fill="black"/>
<path opacity="0.1" d="M92.0417 142.322C89.4262 142.71 86.7591 142.353 84.3215 141.289L82.9904 144.849L82.8434 143.201C83.0614 141.819 83.4848 140.338 84.3215 139.965C84.3215 139.965 87.2524 142.404 92.0417 142.322Z" fill="black"/>
<path opacity="0.1" d="M70.3872 146.955C70.3872 146.955 76.8803 148.361 78.7007 148.112L70.3872 146.955Z" fill="black"/>
<path opacity="0.1" d="M71.0615 148.732C71.0615 148.732 73.8327 148.607 75.217 149.187L71.0615 148.732Z" fill="black"/>
<path opacity="0.1" d="M71.3784 149.932C72.6428 150.212 73.9262 150.389 75.217 150.461L71.3784 149.932Z" fill="black"/>
<path opacity="0.1" d="M71.2188 165.108C71.3379 165.026 76.7611 163.702 77.4355 164.653L71.2188 165.108Z" fill="black"/>
<path opacity="0.1" d="M71.2188 166.846C71.2188 166.846 75.9295 166.266 76.0486 166.846C76.1678 167.426 71.2188 166.846 71.2188 166.846Z" fill="black"/>
<path opacity="0.1" d="M71.2188 168.415C71.2188 168.415 76.2464 167.329 76.8397 167.594C77.4329 167.859 71.2188 168.415 71.2188 168.415Z" fill="black"/>
<path opacity="0.1" d="M71.4571 205.469L65.7576 209.564C65.7576 209.564 65.7905 209.084 65.8463 208.38C67.114 205.122 68.7645 203.403 68.7645 203.403C70.0499 203.054 70.8613 203.377 71.3658 204.01C71.3861 204.889 71.4571 205.469 71.4571 205.469Z" fill="black"/>
<path d="M72.0124 209.147C71.207 211.067 70.8017 213.143 70.8234 215.239C70.8555 216.957 70.4382 218.652 69.6165 220.141C69.4977 220.351 69.3637 220.551 69.2159 220.74C69.2159 220.74 65.2557 220.705 63.8689 219.506C63.713 219.377 63.5859 219.214 63.4962 219.029C62.7026 217.376 65.0402 211.049 65.0402 211.049C66.2673 206.17 68.7596 203.564 68.7596 203.564C73.199 202.364 72.0124 209.147 72.0124 209.147Z" fill="#444053"/>
<path opacity="0.1" d="M69.6163 220.128C69.4974 220.338 69.3635 220.538 69.2157 220.727C69.2157 220.727 65.2555 220.692 63.8687 219.493C64.5507 217.135 66.726 210.003 67.7452 211.216C68.7036 212.355 69.3704 217.835 69.6163 220.128Z" fill="black"/>
<path d="M69.0738 211.659L68.7975 222.343H70.126C70.126 222.343 70.3415 212.97 70.9348 211.659C71.5281 210.348 69.0738 211.659 69.0738 211.659Z" fill="#444053"/>
<path opacity="0.1" d="M85.5892 212.537C85.5892 212.537 79.7705 206.79 80.3638 206.334C80.5235 206.212 80.6807 205.722 80.8252 205.071C81.9433 204.867 83.8676 205.354 85.4599 210.021C85.4979 211.345 85.5892 212.537 85.5892 212.537Z" fill="black"/>
<path d="M86.4589 218.946C86.4142 218.966 86.3674 218.98 86.3194 218.988C85.6349 219.113 83.1122 219.041 81.7 218.988C81.4412 218.979 81.1959 218.866 81.0157 218.672C80.8355 218.478 80.7345 218.218 80.734 217.947C80.734 217.55 80.734 217.066 80.7036 216.549C80.6376 214.918 80.45 212.976 79.8897 212.539C78.8984 211.745 78.115 209.048 79.8897 205.635C79.8897 205.635 83.2922 202.92 85.7464 211.08C85.7464 211.08 85.9848 213.408 87.0521 214.234C88.1195 215.061 86.9355 218.71 86.4589 218.946Z" fill="#444053"/>
<path d="M80.3208 211.836L80.9597 220.727H81.771V211.078L80.3208 211.836Z" fill="#444053"/>
<path opacity="0.1" d="M82.3034 57.4537C80.0035 57.6326 77.7772 58.3797 75.8078 59.6335C75.3008 59.9539 74.7937 60.3433 74.5833 60.918C74.4007 61.4159 74.4768 61.9774 74.4844 62.5071C74.5528 67.0679 69.6849 70.5189 69.8371 75.077C69.8979 76.886 70.7675 78.5704 70.9273 80.3741C71.1935 83.3828 69.4897 86.1505 67.8569 88.6428C69.5391 88.7497 71.1961 88.1759 72.484 87.0404C74.2068 93.0394 74.4294 99.3995 73.1305 105.514H75.4656C75.6962 105.496 75.9279 105.526 76.1476 105.601C76.3525 105.703 76.536 105.846 76.6876 106.022C78.8706 108.292 80.3335 111.648 79.4993 114.747L84.4686 112.8C85.6577 112.334 86.8646 111.86 87.899 111.092C88.9334 110.324 89.8005 109.209 90.0185 107.9C90.1529 107.106 90.1098 106.158 90.7361 105.697C91.0446 105.525 91.3737 105.398 91.7147 105.318C93.0787 104.815 93.6821 103.167 93.961 101.684C94.3006 99.8645 94.4072 98.0057 94.2779 96.1567C94.0574 93.0579 93.1801 89.9114 93.9027 86.8868C94.3109 85.1891 95.2186 83.6079 95.2921 81.8546C95.4113 78.9651 93.2486 76.4755 92.9266 73.6018C92.701 71.5995 93.3931 69.5734 93.1675 67.5711C93.0422 66.5376 92.6802 65.551 92.1122 64.6948C91.5441 63.8386 90.7868 63.1381 89.9045 62.6528C89.2934 62.3244 88.6368 62.1045 88.0334 61.7417C86.6567 60.9074 85.7769 59.4057 84.527 58.3728C83.277 57.3398 81.1955 56.9505 80.2549 58.2933L82.3034 57.4537Z" fill="black"/>
<path d="M82.3034 57.1211C80.0035 57.3 77.7772 58.0471 75.8078 59.3009C75.3008 59.6213 74.7937 60.0107 74.5833 60.5854C74.4007 61.0833 74.4768 61.6448 74.4844 62.1745C74.5528 66.7353 69.6849 70.1863 69.8371 74.7471C69.8979 76.5534 70.7675 78.2379 70.9273 80.0442C71.1935 83.0529 69.4897 85.8206 67.8569 88.3155C69.5386 88.4186 71.1943 87.8453 72.484 86.7132C74.2065 92.7104 74.4291 99.0687 73.1305 105.181H75.4656C75.6963 105.165 75.928 105.195 76.1476 105.271C76.3529 105.371 76.5366 105.514 76.6876 105.69C78.8706 107.962 80.3335 111.315 79.4993 114.414L84.4686 112.467C85.6577 112.001 86.8646 111.527 87.899 110.759C88.9334 109.991 89.8005 108.876 90.0185 107.568C90.1529 106.773 90.1098 105.825 90.7361 105.364C91.0446 105.193 91.3737 105.065 91.7147 104.985C93.0787 104.482 93.6821 102.835 93.961 101.352C94.3036 99.5305 94.4128 97.6699 94.2856 95.8188C94.065 92.72 93.1878 89.5736 93.9103 86.549C94.3185 84.8512 95.2262 83.2701 95.2997 81.5167C95.4189 78.6272 93.2562 76.1376 92.9342 73.2639C92.7086 71.2616 93.4007 69.2382 93.1751 67.2332C93.0494 66.1999 92.6872 65.2134 92.1192 64.3573C91.5512 63.5012 90.7942 62.8006 89.9121 62.3149C89.301 61.9865 88.6444 61.7667 88.041 61.4065C86.6643 60.5695 85.7845 59.0678 84.5346 58.0349C83.2846 57.0019 81.2031 56.6126 80.2625 57.9554L82.3034 57.1211Z" fill="#925978"/>
<g opacity="0.1">
<path opacity="0.1" d="M74.4791 61.0742C74.469 61.1763 74.464 61.2788 74.4641 61.3815C74.4716 61.2808 74.4766 61.1775 74.4791 61.0742Z" fill="black"/>
<path opacity="0.1" d="M92.9064 71.676C92.9976 70.2723 93.2968 68.8633 93.1852 67.4648C93.1016 68.8686 92.8024 70.2776 92.9064 71.676Z" fill="black"/>
<path opacity="0.1" d="M70.9273 78.6556C70.7802 77.0135 70.0475 75.4773 69.8751 73.8379C69.8407 74.1384 69.828 74.4412 69.8371 74.7437C69.8979 76.5314 70.7473 78.2027 70.9197 79.9825C70.9616 79.5414 70.9641 79.0972 70.9273 78.6556Z" fill="black"/>
<path opacity="0.1" d="M93.9205 85.1784C93.6831 86.2561 93.5977 87.3643 93.667 88.4678C93.6922 87.8242 93.7771 87.1847 93.9205 86.5582C94.3287 84.8605 95.2364 83.2794 95.3099 81.526C95.3219 81.2146 95.3083 80.9027 95.2693 80.5938C95.0716 82.1696 94.2831 83.6369 93.9205 85.1784Z" fill="black"/>
<path opacity="0.1" d="M72.4839 85.3223C71.4265 86.248 70.1176 86.8038 68.7418 86.9114C68.4527 87.3828 68.1536 87.8437 67.8569 88.2992C69.5386 88.4023 71.1943 87.829 72.4839 86.6969C73.4101 89.9165 73.9067 93.2542 73.9595 96.6156C74.0347 92.7938 73.5369 88.9832 72.4839 85.3223Z" fill="black"/>
<path opacity="0.1" d="M93.9687 99.9658C93.6898 101.449 93.0864 103.096 91.7223 103.597C91.3809 103.676 91.0516 103.805 90.7437 103.978C90.1175 104.439 90.1606 105.393 90.0262 106.182C89.8081 107.49 88.9436 108.603 87.9066 109.36C86.8697 110.118 85.6654 110.605 84.4763 111.071L79.7351 112.925C79.7105 113.422 79.634 113.915 79.507 114.395L84.4763 112.448C85.6654 111.982 86.8722 111.508 87.9066 110.74C88.941 109.972 89.8081 108.857 90.0262 107.548C90.1606 106.754 90.1175 105.806 90.7437 105.345C91.0522 105.174 91.3814 105.046 91.7223 104.966C93.0864 104.463 93.6898 102.816 93.9687 101.332C94.2574 99.789 94.3773 98.2163 94.3262 96.6445C94.2927 97.7599 94.1732 98.8705 93.9687 99.9658Z" fill="black"/>
<path opacity="0.1" d="M76.6952 104.296C76.5443 104.119 76.3606 103.976 76.1551 103.875C75.9354 103.8 75.7039 103.77 75.4731 103.785H73.4017C73.3206 104.246 73.2344 104.707 73.1482 105.165H75.4833C75.714 105.148 75.9457 105.179 76.1653 105.255C76.3706 105.355 76.5544 105.497 76.7053 105.674C78.3026 107.337 79.512 109.578 79.7199 111.877C79.9759 109.127 78.6119 106.299 76.6952 104.296Z" fill="black"/>
</g>
<path opacity="0.1" d="M65.1111 113.32C65.1111 113.32 66.9974 112.494 67.4183 113.32C67.8392 114.147 65.1111 113.32 65.1111 113.32Z" fill="black"/>
<path opacity="0.1" d="M65.7778 114.738C65.7778 114.738 67.6642 113.912 68.0876 114.738C68.511 115.565 65.7778 114.738 65.7778 114.738Z" fill="black"/>
<path d="M198.233 108.102C197.515 108.102 196.814 108.324 196.217 108.74C195.621 109.157 195.156 109.749 194.881 110.441C194.606 111.134 194.535 111.896 194.675 112.631C194.815 113.366 195.16 114.042 195.668 114.572C196.175 115.102 196.821 115.463 197.525 115.609C198.229 115.755 198.958 115.68 199.621 115.393C200.284 115.106 200.851 114.621 201.25 113.997C201.648 113.374 201.861 112.641 201.861 111.892C201.858 110.887 201.475 109.925 200.795 109.215C200.116 108.505 199.194 108.104 198.233 108.102ZM187.625 78.3613V82.1514H191.253L197.784 95.9714L195.054 100.614C194.756 101.163 194.599 101.784 194.6 102.415C194.6 104.953 196.26 106.205 198.512 106.205H219.725V102.561H198.956C198.895 102.565 198.834 102.555 198.778 102.533C198.721 102.51 198.669 102.475 198.626 102.431C198.584 102.386 198.55 102.332 198.529 102.273C198.507 102.213 198.498 102.15 198.502 102.087C198.55 101.923 198.614 101.765 198.694 101.615L200.507 98.6252H214.023C214.676 98.6308 215.318 98.4481 215.878 98.0972C216.438 97.7462 216.895 97.2407 217.198 96.6362L223.731 84.9005C223.859 84.6025 223.921 84.2787 223.914 83.9524C223.911 83.7085 223.862 83.4676 223.769 83.2441C223.675 83.0205 223.54 82.8187 223.371 82.6508C223.201 82.4828 223.002 82.3521 222.783 82.2663C222.564 82.1805 222.332 82.1414 222.098 82.1514H195.246L193.522 78.3613H187.625ZM216.095 108.102C215.377 108.102 214.676 108.325 214.08 108.742C213.483 109.158 213.019 109.751 212.745 110.443C212.47 111.136 212.399 111.898 212.539 112.633C212.679 113.368 213.025 114.043 213.533 114.573C214.04 115.102 214.687 115.463 215.39 115.609C216.094 115.755 216.823 115.68 217.486 115.393C218.149 115.106 218.715 114.62 219.114 113.997C219.513 113.374 219.725 112.641 219.725 111.892C219.723 110.887 219.339 109.924 218.659 109.214C217.978 108.504 217.056 108.104 216.095 108.102Z" fill="#0D0D58"/>
<path d="M211.452 88.8462H208.41V85.668H206.128V88.8462H203.086V91.2299H206.128V94.4081H208.41V91.2299H211.452V88.8462Z" fill="white"/>
<defs>
<linearGradient id="paint0_linear" x1="128.229" y1="156.534" x2="128.229" y2="25.1035" gradientUnits="userSpaceOnUse">
<stop stop-color="#808080" stop-opacity="0.25"/>
<stop offset="0.54" stop-color="#808080" stop-opacity="0.12"/>
<stop offset="1" stop-color="#808080" stop-opacity="0.1"/>
</linearGradient>
</defs>
</svg>
